{
.formatVersion = 3;
date = "2011-10-19 09:42:35 +0000";
familyName = JockeyOne;
featurePrefixes = (
{
code = "languagesystem latn dflt;";
name = LanguageSystems;
},
{
code = "lookup _liga__Standard_Ligatures_in_Latin_lookup_0 {
    sub f f by ff;
    sub f i by fi;
    sub f l by fl;
    sub f f i by ffi;
    sub f f l by ffl;
    sub i j by ij;
    sub t t by t_t;
} _liga__Standard_Ligatures_in_Latin_lookup_0;";
name = _liga__Standard_Ligatures_in_Latin_lookup_0;
}
);
features = (
{
code = "script latn;
language dflt;
lookup _liga__Standard_Ligatures_in_Latin_lookup_0;";
tag = liga;
}
);
fontMaster = (
{
customParameters = (
{
name = typoAscender;
value = 1079;
},
{
name = typoDescender;
value = -319;
},
{
name = typoLineGap;
value = 0;
},
{
name = winAscent;
value = 1079;
},
{
name = winDescent;
value = 319;
},
{
name = hheaAscender;
value = 1079;
},
{
name = hheaDescender;
value = -319;
},
{
name = hheaLineGap;
value = 0;
}
);
id = "606d6ca3-1ac2-46e0-8c1a-6890279d6924";
metricValues = (
{
},
{
pos = -50;
},
{
pos = 50;
},
{
pos = 800;
},
{
pos = -200;
},
{
pos = 700;
},
{
pos = 650;
},
{
},
{
pos = 140;
},
{
pos = 700;
},
{
pos = 650;
},
{
},
{
pos = 477;
},
{
pos = 50;
},
{
pos = 250;
}
);
name = Regular;
visible = 1;
}
);
glyphs = (
{
glyphname = quotesingle;
kernLeft = quotesingle.2;
kernRight = quotesingle;
layers = (
{
layerId = "606d6ca3-1ac2-46e0-8c1a-6890279d6924";
name = Fore;
shapes = (
{
closed = 1;
nodes = (
(35,700,l),
(146,700,l),
(136,479,l),
(45,479,l)
);
}
);
width = 181;
}
);
unicode = 39;
},
{
glyphname = quotedbl;
kernLeft = quotesingle.2;
kernRight = quotesingle;
layers = (
{
layerId = "606d6ca3-1ac2-46e0-8c1a-6890279d6924";
name = Fore;
shapes = (
{
closed = 1;
nodes = (
(52,700,l),
(163,700,l),
(153,479,l),
(62,479,l)
);
},
{
closed = 1;
nodes = (
(188,700,l),
(299,700,l),
(289,479,l),
(198,479,l)
);
}
);
width = 351;
}
);
unicode = 34;
},
{
glyphname = numbersign;
layers = (
{
layerId = "606d6ca3-1ac2-46e0-8c1a-6890279d6924";
name = Fore;
shapes = (
{
closed = 1;
nodes = (
(343,124,l),
(212,124,l),
(189,0,l),
(114,0,l),
(137,124,l),
(34,124,l),
(47,198,l),
(151,198,l),
(177,332,l),
(72,332,l),
(85,406,l),
(191,406,l),
(215,529,l),
(290,529,l),
(266,406,l),
(397,406,l),
(421,529,l),
(496,529,l),
(472,406,l),
(582,406,l),
(569,332,l),
(458,332,l),
(432,198,l),
(544,198,l),
(531,124,l),
(418,124,l),
(395,0,l),
(320,0,l)
);
},
{
closed = 1;
nodes = (
(226,198,l),
(357,198,l),
(383,332,l),
(252,332,l)
);
}
);
width = 625;
}
);
unicode = 35;
},
{
glyphname = ampersand;
layers = (
{
layerId = "606d6ca3-1ac2-46e0-8c1a-6890279d6924";
name = Fore;
shapes = (
{
closed = 1;
nodes = (
(148,451,l),
(127,492,o),
(127,539,q),
(127,625,o),
(198,655,q),
(359,655,l),
(359,535,l),
(256,535,l),
(254,529,l),
(430,111,l),
(430,0,l),
(152,0,l),
(95,22,o),
(62.5,76,q),
(30,130,o),
(30,196,q),
(30,262,o),
(63,321.5,q),
(96,381,o),
(161,421,q)
);
},
{
closed = 1;
nodes = (
(155,267,o),
(155,205.5,q),
(155,144,o),
(194,111,q),
(299,111,l),
(210,314,l)
);
}
);
width = 465;
}
);
unicode = 38;
},
{
glyphname = asterisk;
layers = (
{
layerId = "606d6ca3-1ac2-46e0-8c1a-6890279d6924";
name = Fore;
shapes = (
{
closed = 1;
nodes = (
(222,732,l),
(226,629,l),
(316,655,l),
(336,592,l),
(249,560,l),
(305,474,l),
(252,435,l),
(188,516,l),
(124,435,l),
(71,474,l),
(128,558,l),
(40,592,l),
(60,655,l),
(149,629,l),
(154,732,l)
);
}
);
width = 376;
}
);
unicode = 42;
},
{
glyphname = comma;
kernLeft = comma.2;
kernRight = comma;
layers = (
{
layerId = "606d6ca3-1ac2-46e0-8c1a-6890279d6924";
name = Fore;
shapes = (
{
closed = 1;
nodes = (
(40,148,l),
(184,148,l),
(184,89,l),
(184,14,o),
(167,-32,q),
(150,-78,o),
(99,-149,q),
(41,-121,l),
(89,-47,o),
(99,0,q),
(40,0,l)
);
}
);
width = 224;
}
);
unicode = 44;
},
{
glyphname = hyphen;
kernLeft = hyphen.2;
kernRight = hyphen;
layers = (
{
layerId = "606d6ca3-1ac2-46e0-8c1a-6890279d6924";
name = Fore;
shapes = (
{
closed = 1;
nodes = (
(25,345,l),
(231,345,l),
(231,231,l),
(25,231,l)
);
}
);
width = 256;
}
);
unicode = 45;
},
{
glyphname = period;
kernLeft = comma.2;
kernRight = comma;
layers = (
{
layerId = "606d6ca3-1ac2-46e0-8c1a-6890279d6924";
name = Fore;
shapes = (
{
closed = 1;
nodes = (
(184,148,l),
(184,0,l),
(40,0,l),
(40,148,l)
);
}
);
width = 224;
}
);
unicode = 46;
},
{
glyphname = semicolon;
kernLeft = colon.2;
kernRight = colon;
layers = (
{
layerId = "606d6ca3-1ac2-46e0-8c1a-6890279d6924";
name = Fore;
shapes = (
{
closed = 1;
nodes = (
(184,444,l),
(184,296,l),
(40,296,l),
(40,444,l)
);
},
{
closed = 1;
nodes = (
(40,148,l),
(184,148,l),
(184,89,l),
(184,14,o),
(167,-32,q),
(150,-78,o),
(99,-149,q),
(41,-121,l),
(89,-47,o),
(99,0,q),
(40,0,l)
);
}
);
width = 224;
}
);
unicode = 59;
},
{
glyphname = question;
layers = (
{
layerId = "606d6ca3-1ac2-46e0-8c1a-6890279d6924";
name = Fore;
shapes = (
{
closed = 1;
nodes = (
(189,135,l),
(189,0,l),
(67,0,l),
(67,135,l)
);
},
{
closed = 1;
nodes = (
(67,286,l),
(67,372.5,o),
(111,482.5,q),
(126,520,o),
(130.5,532,q),
(135,544,o),
(135,558,q),
(135,576,o),
(116,576,q),
(30,576,l),
(30,700,l),
(197,700,l),
(243,681,o),
(262,644,q),
(281,607,o),
(281,578.5,q),
(281,550,o),
(274.5,527.5,q),
(268,505,o),
(262,492.5,q),
(218,412,l),
(189,354,o),
(189,282,q),
(189,241,l),
(67,241,l)
);
}
);
width = 309;
}
);
unicode = 63;
},
{
glyphname = exclam;
layers = (
{
layerId = "606d6ca3-1ac2-46e0-8c1a-6890279d6924";
name = Fore;
shapes = (
{
closed = 1;
nodes = (
(167,135,l),
(167,0,l),
(55,0,l),
(55,135,l)
);
},
{
closed = 1;
nodes = (
(167,380,l),
(167,241,l),
(55,241,l),
(55,380,l),
(40,700,l),
(182,700,l)
);
}
);
width = 222;
}
);
unicode = 33;
},
{
glyphname = exclamdown;
layers = (
{
layerId = "606d6ca3-1ac2-46e0-8c1a-6890279d6924";
name = Fore;
shapes = (
{
closed = 1;
nodes = (
(55,376,l),
(55,511,l),
(167,511,l),
(167,376,l)
);
},
{
closed = 1;
nodes = (
(40,-189,l),
(182,-189,l),
(167,131,l),
(167,270,l),
(55,270,l),
(55,131,l)
);
}
);
width = 222;
}
);
unicode = 161;
},
{
glyphname = questiondown;
layers = (
{
layerId = "606d6ca3-1ac2-46e0-8c1a-6890279d6924";
name = Fore;
shapes = (
{
closed = 1;
nodes = (
(120,376,l),
(120,511,l),
(242,511,l),
(242,376,l)
);
},
{
closed = 1;
nodes = (
(242,225,l),
(242,138.5,o),
(198,28.5,q),
(183,-9,o),
(178.5,-21,q),
(174,-33,o),
(174,-47,q),
(174,-65,o),
(193,-65,q),
(279,-65,l),
(279,-189,l),
(112,-189,l),
(66,-170,o),
(47,-133,q),
(28,-96,o),
(28,-67.5,q),
(28,-39,o),
(34.5,-16.5,q),
(41,6,o),
(47,18.5,q),
(91,99,l),
(120,157,o),
(120,229,q),
(120,270,l),
(242,270,l)
);
}
);
width = 309;
}
);
unicode = 191;
},
{
glyphname = at;
layers = (
{
layerId = "606d6ca3-1ac2-46e0-8c1a-6890279d6924";
name = Fore;
shapes = (
{
closed = 1;
nodes = (
(394,120,l),
(394,250,l),
(344,250,l),
(323,220,o),
(323,185,q),
(323,150,o),
(341,120,q)
);
},
{
closed = 1;
nodes = (
(279,20,l),
(206,87,o),
(206,184.5,q),
(206,282,o),
(287,348,q),
(325,348,l),
(376,348,o),
(404,325,q),
(409,348,l),
(509,348,l),
(509,116,l),
(530,116,l),
(559,146,o),
(570,176,q),
(581,206,o),
(581,256,q),
(581,306,o),
(564,338.5,q),
(547,371,o),
(511,406,q),
(260,406,l),
(140,325,o),
(140,190,q),
(140,78.925,o),
(203,17.5,q),
(232.6,-11.36,o),
(272,-35,q),
(501,-35,l),
(501,-140,l),
(236,-140,l),
(134,-87,o),
(79.5,-11,q),
(25,65,o),
(25,190,q),
(25,381,o),
(225,511,q),
(557,511,l),
(696,407,o),
(696,260,q),
(696,184,o),
(668.5,132.5,q),
(641,81,o),
(580,20,q),
(423,20,l),
(410,46,l),
(395,29,o),
(377.5,24.5,q),
(360,20,o),
(325,20,q)
);
}
);
width = 722;
}
);
unicode = 64;
},
{
glyphname = A;
kernLeft = A.2;
kernRight = A;
layers = (
{
layerId = "606d6ca3-1ac2-46e0-8c1a-6890279d6924";
name = Fore;
shapes = (
{
closed = 1;
nodes = (
(325,111,l),
(167,111,l),
(146,0,l),
(10,0,l),
(145,700,l),
(352,700,l),
(480,0,l),
(346,0,l)
);
},
{
closed = 1;
nodes = (
(205,337,l),
(183,218,l),
(308,218,l),
(285,337,l),
(246,570,l),
(244,570,l)
);
}
);
width = 490;
}
);
unicode = 65;
},
{
glyphname = B;
layers = (
{
layerId = "606d6ca3-1ac2-46e0-8c1a-6890279d6924";
name = Fore;
shapes = (
{
closed = 1;
nodes = (
(48,700,l),
(333,700,l),
(382,682,o),
(420,637,q),
(458,592,o),
(458,528,q),
(458,415,o),
(384,370,q),
(384,366,l),
(476,315,o),
(476,206,q),
(476,81,o),
(349,0,q),
(48,0,l)
);
},
{
closed = 1;
nodes = (
(283,411,l),
(327,438,o),
(327,493,q),
(327,548,o),
(286,580,q),
(184,580,l),
(184,411,l)
);
},
{
closed = 1;
nodes = (
(287,116,l),
(305,129,o),
(319.5,157,q),
(334,185,o),
(334,213,q),
(334,241,o),
(322,264,q),
(310,287,o),
(292,298,q),
(184,298,l),
(184,116,l)
);
}
);
width = 501;
}
);
unicode = 66;
},
{
glyphname = C;
kernLeft = C.2;
kernRight = C;
layers = (
{
layerId = "606d6ca3-1ac2-46e0-8c1a-6890279d6924";
name = Fore;
shapes = (
{
closed = 1;
nodes = (
(418,116,l),
(418,0,l),
(164,0,l),
(98,62,o),
(64,157,q),
(30,252,o),
(30,352.5,q),
(30,453,o),
(68,546,q),
(106,639,o),
(181,700,q),
(418,700,l),
(418,580,l),
(242,580,l),
(215,549,o),
(195.5,480,q),
(176,411,o),
(176,348,q),
(176,285,o),
(195.5,216,q),
(215,147,o),
(242,116,q)
);
}
);
width = 443;
}
);
unicode = 67;
},
{
glyphname = D;
kernRight = D;
layers = (
{
layerId = "606d6ca3-1ac2-46e0-8c1a-6890279d6924";
name = Fore;
shapes = (
{
closed = 1;
nodes = (
(274,116,l),
(302,151,o),
(318.5,218,q),
(335,285,o),
(335,351,q),
(335,508,o),
(276,580,q),
(184,580,l),
(184,116,l)
);
},
{
closed = 1;
nodes = (
(48,700,l),
(338,700,l),
(480,574,o),
(480,358.5,q),
(480,143,o),
(347,0,q),
(48,0,l)
);
}
);
width = 510;
}
);
unicode = 68;
},
{
glyphname = E;
kernRight = E;
layers = (
{
layerId = "606d6ca3-1ac2-46e0-8c1a-6890279d6924";
name = Fore;
shapes = (
{
closed = 1;
nodes = (
(48,700,l),
(407,700,l),
(407,580,l),
(185,580,l),
(185,413,l),
(383,413,l),
(383,297,l),
(185,297,l),
(185,116,l),
(411,116,l),
(411,0,l),
(48,0,l)
);
}
);
width = 440;
}
);
unicode = 69;
},
{
glyphname = F;
layers = (
{
layerId = "606d6ca3-1ac2-46e0-8c1a-6890279d6924";
name = Fore;
shapes = (
{
closed = 1;
nodes = (
(48,700,l),
(413,700,l),
(413,580,l),
(185,580,l),
(185,405,l),
(383,405,l),
(383,289,l),
(185,289,l),
(185,0,l),
(48,0,l)
);
}
);
width = 423;
}
);
unicode = 70;
},
{
glyphname = G;
kernLeft = C.2;
kernRight = G;
layers = (
{
layerId = "606d6ca3-1ac2-46e0-8c1a-6890279d6924";
name = Fore;
shapes = (
{
closed = 1;
nodes = (
(168,0,l),
(96,66,o),
(63,157,q),
(30,248,o),
(30,347.5,q),
(30,447,o),
(70,544,q),
(110,641,o),
(182,700,q),
(425,700,l),
(425,580,l),
(239,580,l),
(213,550,o),
(194,485.5,q),
(175,421,o),
(175,348.5,q),
(175,276,o),
(192.5,210.5,q),
(210,145,o),
(236,116,q),
(332,116,l),
(332,388,l),
(464,388,l),
(464,220,l),
(464,82,o),
(380,0,q)
);
}
);
width = 494;
}
);
unicode = 71;
},
{
glyphname = H;
layers = (
{
layerId = "606d6ca3-1ac2-46e0-8c1a-6890279d6924";
name = Fore;
shapes = (
{
closed = 1;
nodes = (
(48,0,l),
(48,700,l),
(185,700,l),
(185,418,l),
(345,418,l),
(345,700,l),
(482,700,l),
(482,0,l),
(345,0,l),
(345,290,l),
(185,290,l),
(185,0,l)
);
}
);
width = 530;
}
);
unicode = 72;
},
{
glyphname = I;
layers = (
{
layerId = "606d6ca3-1ac2-46e0-8c1a-6890279d6924";
name = Fore;
shapes = (
{
closed = 1;
nodes = (
(48,700,l),
(185,700,l),
(185,0,l),
(48,0,l)
);
}
);
width = 233;
}
);
unicode = 73;
},
{
glyphname = J;
kernLeft = J.2;
kernRight = J;
layers = (
{
layerId = "606d6ca3-1ac2-46e0-8c1a-6890279d6924";
name = Fore;
shapes = (
{
closed = 1;
nodes = (
(119,116,l),
(137,139,o),
(142,169.5,q),
(147,200,o),
(147,293,q),
(147,700,l),
(284,700,l),
(284,340,l),
(284,273,o),
(281.5,236,q),
(279,199,o),
(269,151.5,q),
(250.2822,62.5905,o),
(174,0,q),
(16,0,l),
(16,116,l)
);
}
);
width = 326;
}
);
unicode = 74;
},
{
glyphname = K;
kernRight = K;
layers = (
{
layerId = "606d6ca3-1ac2-46e0-8c1a-6890279d6924";
name = Fore;
shapes = (
{
closed = 1;
nodes = (
(48,700,l),
(185,700,l),
(185,405,l),
(190,405,l),
(315,700,l),
(456,700,l),
(310,366,l),
(463,0,l),
(311,0,l),
(192,306,l),
(185,306,l),
(185,0,l),
(48,0,l)
);
}
);
width = 463;
}
);
unicode = 75;
},
{
glyphname = L;
kernRight = L;
layers = (
{
layerId = "606d6ca3-1ac2-46e0-8c1a-6890279d6924";
name = Fore;
shapes = (
{
closed = 1;
nodes = (
(48,700,l),
(185,700,l),
(185,116,l),
(393,116,l),
(393,0,l),
(48,0,l)
);
}
);
width = 413;
}
);
unicode = 76;
},
{
glyphname = M;
layers = (
{
layerId = "606d6ca3-1ac2-46e0-8c1a-6890279d6924";
name = Fore;
shapes = (
{
closed = 1;
nodes = (
(299,320,l),
(303,320,l),
(356,539,l),
(399,700,l),
(524,700,l),
(569,0,l),
(438,0,l),
(419,382,l),
(414,382,l),
(342,100,l),
(260,100,l),
(188,382,l),
(183,382,l),
(164,0,l),
(33,0,l),
(78,700,l),
(203,700,l),
(246,539,l),
(299,320,l),
(303,320,l)
);
}
);
width = 602;
}
);
unicode = 77;
},
{
glyphname = N;
layers = (
{
layerId = "606d6ca3-1ac2-46e0-8c1a-6890279d6924";
name = Fore;
shapes = (
{
closed = 1;
nodes = (
(173,387,l),
(168,385,l),
(174,267,l),
(174,0,l),
(48,0,l),
(48,700,l),
(149,700,l),
(333,298,l),
(338,300,l),
(327,423,l),
(327,700,l),
(453,700,l),
(453,0,l),
(360,0,l)
);
}
);
width = 501;
}
);
unicode = 78;
},
{
glyphname = O;
kernLeft = C.2;
kernRight = D;
layers = (
{
layerId = "606d6ca3-1ac2-46e0-8c1a-6890279d6924";
name = Fore;
shapes = (
{
closed = 1;
nodes = (
(444,643,o),
(478,547,q),
(512,451,o),
(512,349.5,q),
(512,248,o),
(479,157,q),
(446,66,o),
(374,0,q),
(168,0,l),
(96,66,o),
(63,157,q),
(30,248,o),
(30,349.5,q),
(30,451,o),
(64,547,q),
(98,643,o),
(168,700,q),
(374,700,l)
);
},
{
closed = 1;
nodes = (
(307,116,l),
(332,145,o),
(349.5,210.5,q),
(367,276,o),
(367,349,q),
(367,422,o),
(350,486.5,q),
(333,551,o),
(308,580,q),
(235,580,l),
(210,551,o),
(192.5,486.5,q),
(175,422,o),
(175,349,q),
(175,276,o),
(192.5,210.5,q),
(210,145,o),
(235,116,q)
);
}
);
width = 542;
}
);
unicode = 79;
},
{
glyphname = P;
kernRight = P;
layers = (
{
layerId = "606d6ca3-1ac2-46e0-8c1a-6890279d6924";
name = Fore;
shapes = (
{
closed = 1;
nodes = (
(183,330,l),
(272,330,l),
(327,375,o),
(327,462,q),
(327,499,o),
(312.5,532,q),
(298,565,o),
(278,580,q),
(183,580,l)
);
},
{
closed = 1;
nodes = (
(48,700,l),
(319,700,l),
(387,670,o),
(426.5,608,q),
(466,546,o),
(466,463.5,q),
(466,381,o),
(425,311,q),
(384,241,o),
(304,212,q),
(183,212,l),
(183,0,l),
(48,0,l)
);
}
);
width = 491;
}
);
unicode = 80;
},
{
glyphname = Q;
kernLeft = C.2;
kernRight = D;
layers = (
{
layerId = "606d6ca3-1ac2-46e0-8c1a-6890279d6924";
name = Fore;
shapes = (
{
closed = 1;
nodes = (
(444,643,o),
(478,547,q),
(512,451,o),
(512,349.5,q),
(512,248,o),
(479,157,q),
(446,66,o),
(374,0,q),
(341,0,l),
(372,-113,l),
(244,-113,l),
(213,0,l),
(168,0,l),
(96,66,o),
(63,157,q),
(30,248,o),
(30,349.5,q),
(30,451,o),
(64,547,q),
(98,643,o),
(168,700,q),
(374,700,l)
);
},
{
closed = 1;
nodes = (
(307,116,l),
(332,145,o),
(349.5,210.5,q),
(367,276,o),
(367,349,q),
(367,422,o),
(350,486.5,q),
(333,551,o),
(308,580,q),
(235,580,l),
(210,551,o),
(192.5,486.5,q),
(175,422,o),
(175,349,q),
(175,276,o),
(192.5,210.5,q),
(210,145,o),
(235,116,q)
);
}
);
width = 542;
}
);
unicode = 81;
},
{
glyphname = R;
kernRight = R;
layers = (
{
layerId = "606d6ca3-1ac2-46e0-8c1a-6890279d6924";
name = Fore;
shapes = (
{
closed = 1;
nodes = (
(314,700,l),
(377,679,o),
(421.5,622.5,q),
(466,566,o),
(466,484,q),
(466,350,o),
(360,287,q),
(461,0,l),
(321,0,l),
(236,255,l),
(183,255,l),
(183,0,l),
(48,0,l),
(48,700,l)
);
},
{
closed = 1;
nodes = (
(183,367,l),
(269,367,l),
(286,371,o),
(306.5,401.5,q),
(327,432,o),
(327,473,q),
(327,514,o),
(309.5,545,q),
(292,576,o),
(275,580,q),
(183,580,l)
);
}
);
width = 490;
}
);
unicode = 82;
},
{
glyphname = S;
kernLeft = S.2;
kernRight = S;
layers = (
{
layerId = "606d6ca3-1ac2-46e0-8c1a-6890279d6924";
name = Fore;
shapes = (
{
closed = 1;
nodes = (
(352,700,l),
(352,580,l),
(160,580,l),
(157,574,l),
(317,282,l),
(366,194,o),
(366,148,q),
(366,47,o),
(299,0,q),
(34,0,l),
(34,116,l),
(241,116,l),
(244,122,l),
(64,445,l),
(25,515,o),
(25,559,q),
(25,663,o),
(112,700,q)
);
}
);
width = 388;
}
);
unicode = 83;
},
{
glyphname = T;
kernLeft = T.2;
kernRight = T;
layers = (
{
layerId = "606d6ca3-1ac2-46e0-8c1a-6890279d6924";
name = Fore;
shapes = (
{
closed = 1;
nodes = (
(10,580,l),
(10,700,l),
(448,700,l),
(448,580,l),
(297,580,l),
(297,0,l),
(161,0,l),
(161,580,l)
);
}
);
width = 458;
}
);
unicode = 84;
},
{
glyphname = U;
kernLeft = U.2;
kernRight = U;
layers = (
{
layerId = "606d6ca3-1ac2-46e0-8c1a-6890279d6924";
name = Fore;
shapes = (
{
closed = 1;
nodes = (
(305,116,l),
(327,140,o),
(336.5,164.5,q),
(346,189,o),
(346,237,q),
(346,700,l),
(483,700,l),
(483,287,l),
(483,236,o),
(480.5,207.5,q),
(478,179,o),
(468.5,138.5,q),
(451.2769,65.0753,o),
(374,0,q),
(152,0,l),
(75.0229,62.7971,o),
(57.5,137.5,q),
(43,199.3158,o),
(43,287,q),
(43,700,l),
(180,700,l),
(180,237,l),
(180,189,o),
(189.5,164.5,q),
(199,140,o),
(221,116,q)
);
}
);
width = 526;
}
);
unicode = 85;
},
{
glyphname = V;
kernLeft = V.2;
kernRight = V;
layers = (
{
layerId = "606d6ca3-1ac2-46e0-8c1a-6890279d6924";
name = Fore;
shapes = (
{
closed = 1;
nodes = (
(335,0,l),
(147,0,l),
(5,700,l),
(149,700,l),
(204,376,l),
(238,166,l),
(244,166,l),
(278,376,l),
(333,700,l),
(477,700,l)
);
}
);
width = 482;
}
);
unicode = 86;
},
{
glyphname = W;
kernLeft = W.2;
kernRight = W;
layers = (
{
layerId = "606d6ca3-1ac2-46e0-8c1a-6890279d6924";
name = Fore;
shapes = (
{
closed = 1;
nodes = (
(323,413,l),
(319,413,l),
(247,0,l),
(107,0,l),
(10,700,l),
(144,700,l),
(172,494,l),
(193,262,l),
(198,262,l),
(235,493,l),
(266,700,l),
(379,700,l),
(409,493,l),
(447,262,l),
(452,262,l),
(472,494,l),
(500,700,l),
(634,700,l),
(537,0,l),
(393,0,l)
);
}
);
width = 644;
}
);
unicode = 87;
},
{
glyphname = X;
layers = (
{
layerId = "606d6ca3-1ac2-46e0-8c1a-6890279d6924";
name = Fore;
shapes = (
{
closed = 1;
nodes = (
(229,415,l),
(233,415,l),
(304,700,l),
(442,700,l),
(346,366,l),
(449,0,l),
(307,0,l),
(233,300,l),
(229,300,l),
(155,0,l),
(13,0,l),
(116,366,l),
(20,700,l),
(158,700,l)
);
}
);
width = 462;
}
);
unicode = 88;
},
{
glyphname = Y;
kernLeft = Y.2;
kernRight = Y;
layers = (
{
layerId = "606d6ca3-1ac2-46e0-8c1a-6890279d6924";
name = Fore;
shapes = (
{
closed = 1;
nodes = (
(148,0,l),
(148,233,l),
(0,700,l),
(136,700,l),
(198,487,l),
(219,364,l),
(223,364,l),
(244,487,l),
(306,700,l),
(442,700,l),
(294,233,l),
(294,0,l)
);
}
);
width = 442;
}
);
unicode = 89;
},
{
glyphname = Z;
kernLeft = Z.2;
kernRight = Z;
layers = (
{
layerId = "606d6ca3-1ac2-46e0-8c1a-6890279d6924";
name = Fore;
shapes = (
{
closed = 1;
nodes = (
(169,116,l),
(407,116,l),
(407,0,l),
(24,0,l),
(24,114,l),
(260,580,l),
(24,580,l),
(24,700,l),
(406,700,l),
(406,583,l)
);
}
);
width = 432;
}
);
unicode = 90;
},
{
glyphname = a;
kernLeft = a.2;
kernRight = a;
layers = (
{
layerId = "606d6ca3-1ac2-46e0-8c1a-6890279d6924";
name = Fore;
shapes = (
{
closed = 1;
nodes = (
(177,231,l),
(156,205,o),
(156,166,q),
(156,127,o),
(178,105,q),
(284,105,l),
(284,231,l)
);
},
{
closed = 1;
nodes = (
(317,511,l),
(377,475,o),
(396,428.5,q),
(415,382,o),
(415,302,q),
(415,152,l),
(415,69,o),
(419,0,q),
(305,0,l),
(287,36,l),
(248,0,o),
(177,0,q),
(114,0,l),
(29,56,o),
(29,161.5,q),
(29,267,o),
(116,328,q),
(210,328,l),
(249,328,o),
(283,304,q),
(283,354,l),
(283,393,o),
(249,406,q),
(69,406,l),
(69,511,l)
);
}
);
width = 458;
}
);
unicode = 97;
},
{
glyphname = b;
kernRight = b;
layers = (
{
layerId = "606d6ca3-1ac2-46e0-8c1a-6890279d6924";
name = Fore;
shapes = (
{
closed = 1;
nodes = (
(175,700,l),
(175,475,l),
(197,495,o),
(216.5,503,q),
(236,511,o),
(275,511,q),
(355,511,l),
(397,470,o),
(421,405,q),
(445,340,o),
(445,262,q),
(445,95,o),
(345,0,q),
(250,0,l),
(201,0,o),
(168,37,q),
(150,0,l),
(43,0,l),
(43,700,l)
);
},
{
closed = 1;
nodes = (
(272,105,l),
(309,168,o),
(309,258,q),
(309,348,o),
(271,406,q),
(176,406,l),
(176,105,l)
);
}
);
width = 474;
}
);
unicode = 98;
},
{
glyphname = c;
kernLeft = c.2;
kernRight = c;
layers = (
{
layerId = "606d6ca3-1ac2-46e0-8c1a-6890279d6924";
name = Fore;
shapes = (
{
closed = 1;
nodes = (
(167,218,o),
(180,174.5,q),
(193,131,o),
(216,105,q),
(366,105,l),
(366,0,l),
(147,0,l),
(29,94,o),
(29,260,q),
(29,426,o),
(155,511,q),
(366,511,l),
(366,406,l),
(216,406,l),
(167,355,o),
(167,260,q)
);
}
);
width = 390;
}
);
unicode = 99;
},
{
glyphname = d;
kernLeft = c.2;
layers = (
{
layerId = "606d6ca3-1ac2-46e0-8c1a-6890279d6924";
name = Fore;
shapes = (
{
closed = 1;
nodes = (
(329,0,l),
(311,36,l),
(289,16,o),
(269.5,8,q),
(250,0,o),
(211,0,q),
(124,0,l),
(80,42,o),
(54.5,110,q),
(29,178,o),
(29,262.5,q),
(29,347,o),
(54.5,406,q),
(80,465,o),
(127,511,q),
(213,511,l),
(266,511,o),
(297,483,q),
(297,700,l),
(430,700,l),
(430,0,l)
);
},
{
closed = 1;
nodes = (
(201,406,l),
(164,343,o),
(164,251.5,q),
(164,160,o),
(200,105,q),
(297,105,l),
(297,406,l)
);
}
);
width = 473;
}
);
unicode = 100;
},
{
glyphname = e;
kernLeft = c.2;
kernRight = b;
layers = (
{
layerId = "606d6ca3-1ac2-46e0-8c1a-6890279d6924";
name = Fore;
shapes = (
{
closed = 1;
nodes = (
(199,406,l),
(184,388,o),
(174.5,356,q),
(165,324,o),
(165,294,q),
(308,294,l),
(310,324,o),
(300,356.5,q),
(290,389,o),
(274,406,q)
);
},
{
closed = 1;
nodes = (
(410,0,l),
(156,0,l),
(86,47,o),
(57.5,116.5,q),
(29,186,o),
(29,257,q),
(29,421,o),
(153,511,q),
(315,511,l),
(382,462,o),
(406,407,q),
(430,352,o),
(430,296,q),
(430,240,o),
(421,200,q),
(172,200,l),
(175,177,o),
(189.5,147.5,q),
(204,118,o),
(221,105,q),
(410,105,l)
);
}
);
width = 454;
}
);
unicode = 101;
},
{
glyphname = f;
kernLeft = f.2;
kernRight = f;
layers = (
{
layerId = "606d6ca3-1ac2-46e0-8c1a-6890279d6924";
name = Fore;
shapes = (
{
closed = 1;
nodes = (
(321,700,l),
(321,595,l),
(231,595,l),
(197,574,o),
(197,511,q),
(301,511,l),
(301,406,l),
(197,406,l),
(197,0,l),
(64,0,l),
(64,406,l),
(9,406,l),
(9,511,l),
(64,511,l),
(64,641,o),
(177,700,q)
);
}
);
width = 310;
}
);
unicode = 102;
},
{
glyphname = g;
kernLeft = c.2;
kernRight = g;
layers = (
{
layerId = "606d6ca3-1ac2-46e0-8c1a-6890279d6924";
name = Fore;
shapes = (
{
closed = 1;
nodes = (
(430,53,l),
(430,-23,o),
(410.5,-69,q),
(391,-115,o),
(333,-150,q),
(105,-150,l),
(105,-46,l),
(276,-46,l),
(301,-31,o),
(301,2,q),
(301,61,l),
(264,30,o),
(183,30,q),
(110,30,l),
(29,127,o),
(29,255,q),
(29,347,o),
(55,405.5,q),
(81,464,o),
(131,511,q),
(205,511,l),
(270,511,o),
(308,469,q),
(326,511,l),
(430,511,l)
);
},
{
closed = 1;
nodes = (
(200,406,l),
(164,344,o),
(164,263.5,q),
(164,183,o),
(195,131,q),
(297,131,l),
(297,406,l)
);
}
);
width = 469;
}
);
unicode = 103;
},
{
glyphname = h;
kernRight = a;
layers = (
{
layerId = "606d6ca3-1ac2-46e0-8c1a-6890279d6924";
name = Fore;
shapes = (
{
closed = 1;
nodes = (
(371,511,l),
(415,455,o),
(431,399,q),
(447,343,o),
(447,259,q),
(447,0,l),
(314,0,l),
(314,269,l),
(314,364,o),
(288,406,q),
(176,406,l),
(176,0,l),
(43,0,l),
(43,700,l),
(176,700,l),
(176,475,l),
(198,495,o),
(217.5,503,q),
(237,511,o),
(276,511,q)
);
}
);
width = 486;
}
);
unicode = 104;
},
{
glyphname = i;
layers = (
{
layerId = "606d6ca3-1ac2-46e0-8c1a-6890279d6924";
name = Fore;
shapes = (
{
closed = 1;
nodes = (
(43,511,l),
(175,511,l),
(175,0,l),
(43,0,l)
);
},
{
closed = 1;
nodes = (
(175,700,l),
(175,565,l),
(43,565,l),
(43,700,l)
);
}
);
width = 218;
}
);
unicode = 105;
},
{
glyphname = j;
kernLeft = j;
layers = (
{
layerId = "606d6ca3-1ac2-46e0-8c1a-6890279d6924";
name = Fore;
shapes = (
{
closed = 1;
nodes = (
(174,511,l),
(174,51,l),
(174,-25,o),
(156,-70,q),
(138,-115,o),
(81,-150,q),
(-51,-150,l),
(-51,-45,l),
(18,-45,l),
(43,-30,o),
(43,3,q),
(43,511,l)
);
},
{
closed = 1;
nodes = (
(174,700,l),
(174,555,l),
(43,555,l),
(43,700,l)
);
}
);
width = 217;
}
);
unicode = 106;
},
{
glyphname = k;
kernRight = k;
layers = (
{
layerId = "606d6ca3-1ac2-46e0-8c1a-6890279d6924";
name = Fore;
shapes = (
{
closed = 1;
nodes = (
(43,700,l),
(176,700,l),
(176,329,l),
(190,329,l),
(284,511,l),
(414,511,l),
(296,288,l),
(415,0,l),
(283,0,l),
(191,224,l),
(176,224,l),
(176,0,l),
(43,0,l)
);
}
);
width = 426;
}
);
unicode = 107;
},
{
glyphname = l;
layers = (
{
layerId = "606d6ca3-1ac2-46e0-8c1a-6890279d6924";
name = Fore;
shapes = (
{
closed = 1;
nodes = (
(175,0,l),
(43,0,l),
(43,700,l),
(175,700,l)
);
}
);
width = 218;
}
);
unicode = 108;
},
{
glyphname = m;
kernLeft = m;
kernRight = a;
layers = (
{
layerId = "606d6ca3-1ac2-46e0-8c1a-6890279d6924";
name = Fore;
shapes = (
{
closed = 1;
nodes = (
(336,511,l),
(361,476,l),
(382,495,o),
(401.5,503,q),
(421,511,o),
(460,511,q),
(571,511,l),
(615,455,o),
(631,399,q),
(647,343,o),
(647,259,q),
(647,0,l),
(514,0,l),
(514,269,l),
(514,361,o),
(486,406,q),
(390,406,l),
(412,363,o),
(412,289,q),
(412,0,l),
(279,0,l),
(279,269,l),
(279,364,o),
(253,406,q),
(176,406,l),
(176,0,l),
(43,0,l),
(43,511,l),
(147,511,l),
(165,475,l),
(187,495,o),
(206.5,503,q),
(226,511,o),
(265,511,q)
);
}
);
width = 686;
}
);
unicode = 109;
},
{
glyphname = n;
kernLeft = m;
kernRight = a;
layers = (
{
layerId = "606d6ca3-1ac2-46e0-8c1a-6890279d6924";
name = Fore;
shapes = (
{
closed = 1;
nodes = (
(371,511,l),
(415,455,o),
(431,399,q),
(447,343,o),
(447,259,q),
(447,0,l),
(314,0,l),
(314,269,l),
(314,364,o),
(288,406,q),
(176,406,l),
(176,0,l),
(43,0,l),
(43,511,l),
(147,511,l),
(165,475,l),
(187,495,o),
(206.5,503,q),
(226,511,o),
(265,511,q)
);
}
);
width = 486;
}
);
unicode = 110;
},
{
glyphname = o;
kernLeft = c.2;
kernRight = b;
layers = (
{
layerId = "606d6ca3-1ac2-46e0-8c1a-6890279d6924";
name = Fore;
shapes = (
{
closed = 1;
nodes = (
(129,0,l),
(29,93,o),
(29,254,q),
(29,335,o),
(51.5,395,q),
(74,455,o),
(123,511,q),
(357,511,l),
(409,451,o),
(428,394.5,q),
(447,338,o),
(447,254,q),
(447,93,o),
(347,0,q)
);
},
{
closed = 1;
nodes = (
(276,105,l),
(312,175,o),
(312,264,q),
(312,353,o),
(275,406,q),
(200,406,l),
(164,355,o),
(164,261.5,q),
(164,168,o),
(200,105,q)
);
}
);
width = 476;
}
);
unicode = 111;
},
{
glyphname = p;
kernLeft = m;
kernRight = b;
layers = (
{
layerId = "606d6ca3-1ac2-46e0-8c1a-6890279d6924";
name = Fore;
shapes = (
{
closed = 1;
nodes = (
(150,511,l),
(165,475,l),
(187,495,o),
(206.5,503,q),
(226,511,o),
(265,511,q),
(355,511,l),
(397,470,o),
(421,405,q),
(445,340,o),
(445,262,q),
(445,95,o),
(345,0,q),
(260,0,l),
(207,0,o),
(176,28,q),
(176,-150,l),
(43,-150,l),
(43,511,l)
);
},
{
closed = 1;
nodes = (
(272,105,l),
(309,168,o),
(309,258,q),
(309,348,o),
(271,406,q),
(176,406,l),
(176,105,l)
);
}
);
width = 474;
}
);
unicode = 112;
},
{
glyphname = q;
kernLeft = c.2;
layers = (
{
layerId = "606d6ca3-1ac2-46e0-8c1a-6890279d6924";
name = Fore;
shapes = (
{
closed = 1;
nodes = (
(430,505,l),
(430,-150,l),
(297,-150,l),
(297,28,l),
(266,0,o),
(213,0,q),
(129,0,l),
(29,95,o),
(29,262,q),
(29,338,o),
(55,403.5,q),
(81,469,o),
(124,511,q),
(208,511,l),
(247,511,o),
(266.5,503,q),
(286,495,o),
(308,475,q),
(323,505,l)
);
},
{
closed = 1;
nodes = (
(297,104,l),
(297,406,l),
(202,406,l),
(164,348,o),
(164,257.5,q),
(164,167,o),
(201,104,q)
);
}
);
width = 473;
}
);
unicode = 113;
},
{
glyphname = r;
kernLeft = m;
kernRight = r;
layers = (
{
layerId = "606d6ca3-1ac2-46e0-8c1a-6890279d6924";
name = Fore;
shapes = (
{
closed = 1;
nodes = (
(44,511,l),
(139,511,l),
(164,457,l),
(204,511,o),
(265,511,q),
(304,511,l),
(304,377,l),
(177,377,l),
(177,0,l),
(44,0,l)
);
}
);
width = 318;
}
);
unicode = 114;
},
{
glyphname = s;
kernLeft = s.2;
kernRight = s;
layers = (
{
layerId = "606d6ca3-1ac2-46e0-8c1a-6890279d6924";
name = Fore;
shapes = (
{
closed = 1;
nodes = (
(314,511,l),
(314,406,l),
(158,406,l),
(253,265,l),
(316.7143,173.9796,o),
(324.5,139.5,q),
(328,124,o),
(328,107,q),
(328,36,o),
(275,0,q),
(20,0,l),
(20,105,l),
(203,105,l),
(96,262,l),
(89.3333,272.6667,o),
(74.6667,292.8333,q),
(60,313,o),
(52,325.5,q),
(44,338,o),
(41,344,q),
(38,350,o),
(33,359.5,q),
(28,369,o),
(26.5,375.5,q),
(22,395,o),
(22,407,q),
(22,480,o),
(93,511,q)
);
}
);
width = 350;
}
);
unicode = 115;
},
{
glyphname = t;
kernLeft = t.2;
kernRight = t;
layers = (
{
layerId = "606d6ca3-1ac2-46e0-8c1a-6890279d6924";
name = Fore;
shapes = (
{
closed = 1;
nodes = (
(73,406,l),
(4,406,l),
(4,511,l),
(73,511,l),
(73,650,l),
(206,650,l),
(206,511,l),
(288,511,l),
(288,406,l),
(206,406,l),
(206,191,l),
(206,130,o),
(227,105,q),
(288,105,l),
(288,0,l),
(146,0,l),
(92.6395,49.2558,o),
(82,106,q),
(73,154,o),
(73,223,q)
);
}
);
width = 312;
}
);
unicode = 116;
},
{
glyphname = u;
kernLeft = u;
layers = (
{
layerId = "606d6ca3-1ac2-46e0-8c1a-6890279d6924";
name = Fore;
shapes = (
{
closed = 1;
nodes = (
(115,0,l),
(71,56,o),
(55,112,q),
(39,168,o),
(39,252,q),
(39,511,l),
(172,511,l),
(172,242,l),
(172,151,o),
(208,105,q),
(301,105,l),
(301,511,l),
(434,511,l),
(434,0,l),
(329,0,l),
(311,36,l),
(273,0,o),
(220,0,q)
);
}
);
width = 477;
}
);
unicode = 117;
},
{
glyphname = v;
kernLeft = v.2;
kernRight = v;
layers = (
{
layerId = "606d6ca3-1ac2-46e0-8c1a-6890279d6924";
name = Fore;
shapes = (
{
closed = 1;
nodes = (
(144,0,l),
(96,39,o),
(68,103,q),
(40,167,o),
(40,245,q),
(40,511,l),
(173,511,l),
(173,249,l),
(173,161,o),
(206,105,q),
(267,105,l),
(300,164,o),
(300,248,q),
(300,511,l),
(433,511,l),
(433,250,l),
(433,171,o),
(405,105,q),
(377,39,o),
(329,0,q)
);
}
);
width = 473;
}
);
unicode = 118;
},
{
glyphname = w;
kernLeft = v.2;
kernRight = v;
layers = (
{
layerId = "606d6ca3-1ac2-46e0-8c1a-6890279d6924";
name = Fore;
shapes = (
{
closed = 1;
nodes = (
(408,511,l),
(408,105,l),
(478,105,l),
(511,158,o),
(511,251,q),
(511,511,l),
(644,511,l),
(644,245,l),
(644,76,o),
(550,0,q),
(467,0,l),
(390,0,o),
(340,46,q),
(290,0,o),
(217,0,q),
(134,0,l),
(40,66,o),
(40,245,q),
(40,511,l),
(173,511,l),
(173,245,l),
(173,156,o),
(205,105,q),
(276,105,l),
(276,511,l)
);
}
);
width = 684;
}
);
unicode = 119;
},
{
glyphname = x;
layers = (
{
layerId = "606d6ca3-1ac2-46e0-8c1a-6890279d6924";
name = Fore;
shapes = (
{
closed = 1;
nodes = (
(274,511,l),
(413,511,l),
(318,262,l),
(417,0,l),
(280,0,l),
(211,198,l),
(207,198,l),
(141,0,l),
(4,0,l),
(103,262,l),
(8,511,l),
(145,511,l),
(208,321,l),
(212,321,l)
);
}
);
width = 421;
}
);
unicode = 120;
},
{
glyphname = y;
kernLeft = v.2;
kernRight = v;
layers = (
{
layerId = "606d6ca3-1ac2-46e0-8c1a-6890279d6924";
name = Fore;
shapes = (
{
closed = 1;
nodes = (
(40,511,l),
(173,511,l),
(173,280,l),
(173,193,o),
(208,135,q),
(267,135,l),
(300,192,o),
(300,280,q),
(300,511,l),
(433,511,l),
(433,288,l),
(433,213,o),
(413.5,156,q),
(394,99,o),
(350,27,q),
(283,-82,l),
(265,-113,o),
(245,-128,q),
(225,-143,o),
(193,-150,q),
(35,-150,l),
(35,-45,l),
(143,-45,l),
(164,-39,o),
(178,-24,q),
(192,-9,o),
(207,19,q),
(213,30,l),
(144,30,l),
(96,69,o),
(68,135.5,q),
(40,202,o),
(40,281,q)
);
}
);
width = 473;
}
);
unicode = 121;
},
{
glyphname = z;
kernLeft = z.2;
kernRight = z;
layers = (
{
layerId = "606d6ca3-1ac2-46e0-8c1a-6890279d6924";
name = Fore;
shapes = (
{
closed = 1;
nodes = (
(185,105,l),
(376,105,l),
(376,0,l),
(24,0,l),
(24,77,l),
(220,406,l),
(36,406,l),
(36,511,l),
(378,511,l),
(378,434,l)
);
}
);
width = 402;
}
);
unicode = 122;
},
{
glyphname = bracketleft;
layers = (
{
layerId = "606d6ca3-1ac2-46e0-8c1a-6890279d6924";
name = Fore;
shapes = (
{
closed = 1;
nodes = (
(45,800,l),
(233,800,l),
(233,690,l),
(167,690,l),
(167,-40,l),
(233,-40,l),
(233,-150,l),
(45,-150,l)
);
}
);
width = 248;
}
);
unicode = 91;
},
{
glyphname = bracketright;
layers = (
{
layerId = "606d6ca3-1ac2-46e0-8c1a-6890279d6924";
name = Fore;
shapes = (
{
closed = 1;
nodes = (
(203,-150,l),
(15,-150,l),
(15,-40,l),
(81,-40,l),
(81,690,l),
(15,690,l),
(15,800,l),
(203,800,l)
);
}
);
width = 248;
}
);
unicode = 93;
},
{
glyphname = parenleft;
kernRight = parenleft;
layers = (
{
layerId = "606d6ca3-1ac2-46e0-8c1a-6890279d6924";
name = Fore;
shapes = (
{
closed = 1;
nodes = (
(163,-150,l),
(35,49,o),
(35,327.5,q),
(35,606,o),
(163,800,q),
(271,800,l),
(153,597,o),
(153,329.5,q),
(153,62,o),
(271,-150,q)
);
}
);
width = 271;
}
);
unicode = 40;
},
{
glyphname = parenright;
layers = (
{
layerId = "606d6ca3-1ac2-46e0-8c1a-6890279d6924";
name = Fore;
shapes = (
{
closed = 1;
nodes = (
(0,-150,l),
(118,62,o),
(118,329.5,q),
(118,597,o),
(0,800,q),
(108,800,l),
(236,606,o),
(236,327.5,q),
(236,49,o),
(108,-150,q)
);
}
);
width = 271;
}
);
unicode = 41;
},
{
glyphname = braceleft;
layers = (
{
layerId = "606d6ca3-1ac2-46e0-8c1a-6890279d6924";
name = Fore;
shapes = (
{
closed = 1;
nodes = (
(139,322,l),
(209,277,o),
(192,171,q),
(175,67,l),
(166,18,o),
(171,-22.5,q),
(176,-63,o),
(193,-78,q),
(238,-78,l),
(238,-148,l),
(164,-148,l),
(20,-116,o),
(46,50,q),
(69,213,l),
(78,261,o),
(61,291,q),
(25,291,l),
(25,361,l),
(61,361,l),
(78,391,o),
(69,439,q),
(46,602,l),
(20,768,o),
(164,800,q),
(238,800,l),
(238,730,l),
(193,730,l),
(176,715,o),
(171,674.5,q),
(166,634,o),
(175,585,q),
(192,481,l),
(209,375,o),
(139,330,q)
);
}
);
width = 248;
}
);
unicode = 123;
},
{
glyphname = braceright;
layers = (
{
layerId = "606d6ca3-1ac2-46e0-8c1a-6890279d6924";
name = Fore;
shapes = (
{
closed = 1;
nodes = (
(109,330,l),
(39,375,o),
(56,481,q),
(73,585,l),
(82,634,o),
(77,674.5,q),
(72,715,o),
(55,730,q),
(10,730,l),
(10,800,l),
(84,800,l),
(228,768,o),
(202,602,q),
(179,439,l),
(170,391,o),
(187,361,q),
(223,361,l),
(223,291,l),
(187,291,l),
(170,261,o),
(179,213,q),
(202,50,l),
(228,-116,o),
(84,-148,q),
(10,-148,l),
(10,-78,l),
(55,-78,l),
(72,-63,o),
(77,-22.5,q),
(82,18,o),
(73,67,q),
(56,171,l),
(39,277,o),
(109,322,q)
);
}
);
width = 248;
}
);
unicode = 125;
},
{
glyphname = backslash;
layers = (
{
layerId = "606d6ca3-1ac2-46e0-8c1a-6890279d6924";
name = Fore;
shapes = (
{
closed = 1;
nodes = (
(365,0,l),
(236,0,l),
(10,700,l),
(143,700,l)
);
}
);
width = 385;
}
);
unicode = 92;
},
{
glyphname = slash;
layers = (
{
layerId = "606d6ca3-1ac2-46e0-8c1a-6890279d6924";
name = Fore;
shapes = (
{
closed = 1;
nodes = (
(234,700,l),
(367,700,l),
(141,0,l),
(12,0,l)
);
}
);
width = 385;
}
);
unicode = 47;
},
{
glyphname = brokenbar;
layers = (
{
layerId = "606d6ca3-1ac2-46e0-8c1a-6890279d6924";
name = Fore;
shapes = (
{
closed = 1;
nodes = (
(50,316,l),
(178,316,l),
(178,0,l),
(50,0,l)
);
},
{
closed = 1;
nodes = (
(50,700,l),
(178,700,l),
(178,386,l),
(50,386,l)
);
}
);
width = 228;
}
);
unicode = 166;
},
{
glyphname = bar;
layers = (
{
layerId = "606d6ca3-1ac2-46e0-8c1a-6890279d6924";
name = Fore;
shapes = (
{
closed = 1;
nodes = (
(50,700,l),
(178,700,l),
(178,0,l),
(50,0,l)
);
}
);
width = 228;
}
);
unicode = 124;
},
{
glyphname = asciicircum;
layers = (
{
layerId = "606d6ca3-1ac2-46e0-8c1a-6890279d6924";
name = Fore;
shapes = (
{
closed = 1;
nodes = (
(155,700,l),
(273,700,l),
(396,362,l),
(275,330,l),
(214,511,l),
(162,330,l),
(40,362,l)
);
}
);
width = 436;
}
);
unicode = 94;
},
{
glyphname = underscore;
layers = (
{
layerId = "606d6ca3-1ac2-46e0-8c1a-6890279d6924";
name = Fore;
shapes = (
{
closed = 1;
nodes = (
(0,-101,l),
(416,-101,l),
(416,-215,l),
(0,-215,l)
);
}
);
width = 416;
}
);
unicode = 95;
},
{
glyphname = asciitilde;
layers = (
{
layerId = "606d6ca3-1ac2-46e0-8c1a-6890279d6924";
name = Fore;
shapes = (
{
closed = 1;
nodes = (
(138,272,l),
(74,267,o),
(10,245,q),
(10,362,l),
(66,388,o),
(138,391,q),
(274,343,l),
(346,343,o),
(402,357,q),
(402,241,l),
(349,225,o),
(274,224,q)
);
}
);
width = 412;
}
);
unicode = 126;
},
{
glyphname = zero;
layers = (
{
layerId = "606d6ca3-1ac2-46e0-8c1a-6890279d6924";
name = Fore;
shapes = (
{
closed = 1;
nodes = (
(151,0,l),
(84,67,o),
(54.5,158,q),
(25,249,o),
(25,340,q),
(25,573,o),
(151,700,q),
(342,700,l),
(408,633,o),
(438,542.5,q),
(468,452,o),
(468,362,q),
(468,126,o),
(342,0,q)
);
},
{
closed = 1;
nodes = (
(204,580,l),
(160,490,o),
(160,351,q),
(160,212,o),
(203,116,q),
(291,116,l),
(334,226,o),
(334,358,q),
(334,490,o),
(290,580,q)
);
}
);
width = 493;
}
);
unicode = 48;
},
{
glyphname = one;
layers = (
{
layerId = "606d6ca3-1ac2-46e0-8c1a-6890279d6924";
name = Fore;
shapes = (
{
closed = 1;
nodes = (
(90,580,l),
(10,580,l),
(10,700,l),
(230,700,l),
(230,0,l),
(90,0,l)
);
}
);
width = 285;
}
);
unicode = 49;
},
{
glyphname = two;
layers = (
{
layerId = "606d6ca3-1ac2-46e0-8c1a-6890279d6924";
name = Fore;
shapes = (
{
closed = 1;
nodes = (
(219,573,l),
(216,580,l),
(41,580,l),
(41,700,l),
(257,700,l),
(344,663,o),
(344,582,q),
(344,538.2308,o),
(322.5,482,q),
(316,465,o),
(312,454,q),
(308,443,o),
(299,422.5,q),
(290,402,o),
(285.5,391.5,q),
(269,353,o),
(254,320,q),
(164,116,l),
(339,116,l),
(339,0,l),
(20,0,l),
(20,100,l)
);
}
);
width = 367;
}
);
unicode = 50;
},
{
glyphname = three;
layers = (
{
layerId = "606d6ca3-1ac2-46e0-8c1a-6890279d6924";
name = Fore;
shapes = (
{
closed = 1;
nodes = (
(230,406,l),
(367,363,o),
(367,219,q),
(367,146,o),
(328.5,88,q),
(290,30,o),
(243,0,q),
(15,0,l),
(15,116,l),
(187,116,l),
(199,127,o),
(214,160,q),
(229,193,o),
(229,227,q),
(229,290,o),
(184,320,q),
(103,320,l),
(103,429,l),
(224,569,l),
(219,580,l),
(19,580,l),
(19,700,l),
(260,700,l),
(345,664,o),
(345,586,q),
(345,526,o),
(290,471,q),
(230,411,l)
);
}
);
width = 409;
}
);
unicode = 51;
},
{
glyphname = four;
layers = (
{
layerId = "606d6ca3-1ac2-46e0-8c1a-6890279d6924";
name = Fore;
shapes = (
{
closed = 1;
nodes = (
(156,270,l),
(304,270,l),
(304,452,l),
(434,452,l),
(434,0,l),
(304,0,l),
(304,145,l),
(119,145,l),
(32,190,o),
(32,284,q),
(32,327,o),
(80,447,q),
(180,700,l),
(317,700,l)
);
}
);
width = 479;
}
);
unicode = 52;
},
{
glyphname = five;
layers = (
{
layerId = "606d6ca3-1ac2-46e0-8c1a-6890279d6924";
name = Fore;
shapes = (
{
closed = 1;
nodes = (
(328,451,l),
(403,400,o),
(403,321,q),
(403,273,o),
(369,213.5,q),
(359,196,o),
(334,158,q),
(231,0,l),
(76,0,l),
(279,321,l),
(276,330,l),
(45,330,l),
(45,700,l),
(373,700,l),
(373,580,l),
(178,580,l),
(178,438,l),
(208,451,o),
(252,451,q)
);
}
);
width = 443;
}
);
unicode = 53;
},
{
glyphname = six;
layers = (
{
layerId = "606d6ca3-1ac2-46e0-8c1a-6890279d6924";
name = Fore;
shapes = (
{
closed = 1;
nodes = (
(193,318,l),
(169,268,o),
(169,230.5,q),
(169,193,o),
(178,161,q),
(187,129,o),
(198,116,q),
(285,116,l),
(312,163,o),
(312,222.5,q),
(312,282,o),
(286,318,q)
);
},
{
closed = 1;
nodes = (
(331,434,l),
(388,405,o),
(419.5,348.5,q),
(451,292,o),
(451,233,q),
(451,92,o),
(339,0,q),
(147,0,l),
(33,81,o),
(33,233,q),
(33,284,o),
(48.5,343,q),
(64,402,o),
(80.5,441,q),
(97,480,o),
(126,540,q),
(198,700,l),
(337,700,l),
(207,411,l),
(244,434,o),
(279,434,q)
);
}
);
width = 481;
}
);
unicode = 54;
},
{
glyphname = seven;
layers = (
{
layerId = "606d6ca3-1ac2-46e0-8c1a-6890279d6924";
name = Fore;
shapes = (
{
closed = 1;
nodes = (
(220,580,l),
(10,580,l),
(10,700,l),
(367,700,l),
(367,607,l),
(160,0,l),
(19,0,l)
);
}
);
width = 372;
}
);
unicode = 55;
},
{
glyphname = eight;
layers = (
{
layerId = "606d6ca3-1ac2-46e0-8c1a-6890279d6924";
name = Fore;
shapes = (
{
closed = 1;
nodes = (
(153,0,l),
(99,23,o),
(62,76,q),
(25,129,o),
(25,197,q),
(25,307,o),
(110,363,q),
(110,367,l),
(42,425,o),
(42,512,q),
(42,578,o),
(79.5,628.5,q),
(117,679,o),
(169,700,q),
(320,700,l),
(372,679,o),
(408.5,630,q),
(445,581,o),
(445,515,q),
(445,428,o),
(376,369,q),
(376,365,l),
(462,308,o),
(462,201,q),
(462,134,o),
(424.5,78.5,q),
(387,23,o),
(337,0,q)
);
},
{
closed = 1;
nodes = (
(164,269,o),
(164,213,q),
(164,182,o),
(175.5,154,q),
(187,126,o),
(201,116,q),
(286,116,l),
(300,126,o),
(311.5,154,q),
(323,182,o),
(323,213,q),
(323,269,o),
(288,298,q),
(199,298,l)
);
},
{
closed = 1;
nodes = (
(191,570,o),
(180,547.5,q),
(169,525,o),
(169,498,q),
(169,448,o),
(204,415,q),
(283,415,l),
(318,448,o),
(318,498,q),
(318,525,o),
(307,547.5,q),
(296,570,o),
(282,580,q),
(205,580,l)
);
}
);
width = 487;
}
);
unicode = 56;
},
{
glyphname = nine;
layers = (
{
layerId = "606d6ca3-1ac2-46e0-8c1a-6890279d6924";
name = Fore;
shapes = (
{
closed = 1;
nodes = (
(283,382,l),
(307,432,o),
(307,469.5,q),
(307,507,o),
(298.5,537,q),
(290,567,o),
(279,580,q),
(191,580,l),
(164,537,o),
(164,477.5,q),
(164,418,o),
(190,382,q)
);
},
{
closed = 1;
nodes = (
(145,266,l),
(88,295,o),
(56.5,351.5,q),
(25,408,o),
(25,467,q),
(25,615,o),
(144,700,q),
(329,700,l),
(443,619,o),
(443,467,q),
(443,352,o),
(350,160,q),
(278,0,l),
(139,0,l),
(269,289,l),
(232,266,o),
(197,266,q)
);
}
);
width = 468;
}
);
unicode = 57;
},
{
glyphname = cent;
layers = (
{
layerId = "606d6ca3-1ac2-46e0-8c1a-6890279d6924";
name = Fore;
shapes = (
{
closed = 1;
nodes = (
(178,321,o),
(191,277.5,q),
(204,234,o),
(227,208,q),
(377,208,l),
(377,103,l),
(316,103,l),
(316,0,l),
(210,0,l),
(210,103,l),
(158,103,l),
(40,197,o),
(40,363,q),
(40,529,o),
(166,614,q),
(210,614,l),
(210,700,l),
(316,700,l),
(316,614,l),
(377,614,l),
(377,509,l),
(227,509,l),
(178,458,o),
(178,363,q)
);
}
);
width = 401;
}
);
unicode = 162;
},
{
glyphname = sterling;
layers = (
{
layerId = "606d6ca3-1ac2-46e0-8c1a-6890279d6924";
name = Fore;
shapes = (
{
closed = 1;
nodes = (
(44,395,l),
(91,395,l),
(91,479,l),
(91,629,o),
(207,700,q),
(385,700,l),
(385,580,l),
(256,580,l),
(238,562,o),
(233,544.5,q),
(228,527,o),
(228,493,q),
(228,395,l),
(385,395,l),
(368,290,l),
(228,290,l),
(228,116,l),
(392,116,l),
(392,0,l),
(33,0,l),
(33,83,l),
(91,116,l),
(91,290,l),
(27,290,l)
);
}
);
width = 422;
}
);
unicode = 163;
},
{
glyphname = dollar;
layers = (
{
layerId = "606d6ca3-1ac2-46e0-8c1a-6890279d6924";
name = Fore;
shapes = (
{
closed = 1;
nodes = (
(360,684,l),
(360,564,l),
(166,564,l),
(163,558,l),
(325,302,l),
(374,223,o),
(374,168,q),
(374,67,o),
(307,20,q),
(260,20,l),
(260,-66,l),
(154,-66,l),
(154,20,l),
(42,20,l),
(42,136,l),
(254,136,l),
(257,142,l),
(72,429,l),
(33,491,o),
(33,543,q),
(33,647,o),
(120,684,q),
(155,684,l),
(155,770,l),
(261,770,l),
(261,684,l)
);
}
);
width = 395;
}
);
unicode = 36;
},
{
glyphname = yen;
layers = (
{
layerId = "606d6ca3-1ac2-46e0-8c1a-6890279d6924";
name = Fore;
shapes = (
{
closed = 1;
nodes = (
(156,0,l),
(156,222,l),
(56,222,l),
(56,336,l),
(123,336,l),
(8,700,l),
(144,700,l),
(206,487,l),
(227,364,l),
(231,364,l),
(252,487,l),
(314,700,l),
(450,700,l),
(334,336,l),
(404,336,l),
(404,222,l),
(302,222,l),
(302,0,l)
);
}
);
width = 458;
}
);
unicode = 165;
},
{
glyphname = Euro;
layers = (
{
layerId = "606d6ca3-1ac2-46e0-8c1a-6890279d6924";
name = Fore;
shapes = (
{
closed = 1;
nodes = (
(46,437,l),
(101,437,l),
(106,486,o),
(119,523,q),
(159,633,o),
(242,700,q),
(483,700,l),
(483,580,l),
(310,580,l),
(269,528,o),
(253,437,q),
(415,437,l),
(403,372,l),
(34,372,l)
);
},
{
closed = 1;
nodes = (
(34,330,l),
(394,330,l),
(382,265,l),
(252,265,l),
(267,168,o),
(310,116,q),
(483,116,l),
(483,0,l),
(225,0,l),
(154,66,o),
(118,179,q),
(107,212,o),
(101,265,q),
(22,265,l)
);
}
);
width = 498;
}
);
unicode = 8364;
},
{
glyphname = florin;
layers = (
{
layerId = "606d6ca3-1ac2-46e0-8c1a-6890279d6924";
name = Fore;
shapes = (
{
closed = 1;
nodes = (
(245,81,l),
(245,-3,o),
(221,-59.5,q),
(197,-116,o),
(137,-150,q),
(15,-150,l),
(15,-45,l),
(81,-45,l),
(98,-28,o),
(103.5,-7.5,q),
(109,13,o),
(109,49,q),
(109,310,l),
(25,310,l),
(25,414,l),
(109,414,l),
(109,479,l),
(109,629,o),
(224,700,q),
(352,700,l),
(352,580,l),
(273,580,l),
(255,562,o),
(250,544.5,q),
(245,527,o),
(245,493,q),
(245,414,l),
(352,414,l),
(352,310,l),
(245,310,l)
);
}
);
width = 390;
}
);
unicode = 402;
},
{
glyphname = section;
layers = (
{
layerId = "606d6ca3-1ac2-46e0-8c1a-6890279d6924";
name = Fore;
shapes = (
{
closed = 1;
nodes = (
(289,-16.3333,o),
(289,-65,q),
(289,-156,o),
(193,-196,q),
(26,-196,l),
(26,-82,l),
(173,-82,l),
(176,-77,l),
(90,91,l),
(84,103,o),
(62,144,q),
(40,185,o),
(32.5,202,q),
(7,259.8,o),
(7,298.4,q),
(7,337,o),
(20,364,q),
(33,391,o),
(46,403.5,q),
(59,416,o),
(83,432,q),
(153,432,l),
(105,522,o),
(105,569,q),
(105,660,o),
(201,700,q),
(368,700,l),
(368,580,l),
(221,580,l),
(218,575,l),
(310,392,l),
(314,385,o),
(327.5,359.5,q),
(345.5,325.5,l),
(383,254.6667,o),
(383,202,q),
(383,122,o),
(311,72,q),
(236,72,l)
);
},
{
closed = 1;
nodes = (
(113,321,l),
(188,174,l),
(274,174,l),
(278,183,l),
(203,330,l),
(117,330,l)
);
}
);
width = 408;
}
);
unicode = 167;
},
{
glyphname = copyright;
layers = (
{
layerId = "606d6ca3-1ac2-46e0-8c1a-6890279d6924";
name = Fore;
shapes = (
{
closed = 1;
nodes = (
(349,292,o),
(349,346.5,q),
(349,401,o),
(381,427,q),
(488,427,l),
(488,544,l),
(320,544,l),
(218,475,o),
(218,350,q),
(218,225,o),
(320,149,q),
(488,149,l),
(488,265,l),
(381,265,l)
);
},
{
closed = 1;
nodes = (
(745,463,o),
(745,349.5,q),
(745,236,o),
(690,143.5,q),
(635,51,o),
(534,0,q),
(236,0,l),
(135,51,o),
(80,143.5,q),
(25,236,o),
(25,349.5,q),
(25,463,o),
(80,556,q),
(135,649,o),
(236,700,q),
(534,700,l),
(635,649,o),
(690,556,q)
);
},
{
closed = 1;
nodes = (
(626,273,o),
(626,349.5,q),
(626,426,o),
(593,494.5,q),
(560,563,o),
(492,597,q),
(278,597,l),
(210,563,o),
(177,494.5,q),
(144,426,o),
(144,349.5,q),
(144,273,o),
(177,203.5,q),
(210,134,o),
(278,102,q),
(492,102,l),
(560,134,o),
(593,203.5,q)
);
}
);
width = 770;
}
);
unicode = 169;
},
{
glyphname = registered;
layers = (
{
layerId = "606d6ca3-1ac2-46e0-8c1a-6890279d6924";
name = Fore;
shapes = (
{
closed = 1;
nodes = (
(177,602,l),
(311,602,l),
(338,591,o),
(354,567,q),
(370,543,o),
(370,513,q),
(370,465,o),
(332,437,q),
(369,337,l),
(293,337,l),
(264,421,l),
(251,421,l),
(251,337,l),
(177,337,l)
);
},
{
closed = 1;
nodes = (
(251,477,l),
(286,477,l),
(297,486,o),
(297,505,q),
(297,524,o),
(286,533,q),
(251,533,l)
);
},
{
closed = 1;
nodes = (
(157,242,l),
(93,272,o),
(59,334.5,q),
(25,397,o),
(25,471,q),
(25,545,o),
(59,607.5,q),
(93,670,o),
(157,700,q),
(381,700,l),
(445,670,o),
(479,607.5,q),
(513,545,o),
(513,471,q),
(513,397,o),
(479,334.5,q),
(445,272,o),
(381,242,q)
);
},
{
closed = 1;
nodes = (
(176,627,l),
(142,604,o),
(124,560.5,q),
(106,517,o),
(106,471,q),
(106,425,o),
(124,381.5,q),
(142,338,o),
(176,315,q),
(362,315,l),
(395,338,o),
(413.5,381.5,q),
(432,425,o),
(432,471,q),
(432,517,o),
(413.5,560.5,q),
(395,604,o),
(362,627,q)
);
}
);
width = 538;
}
);
unicode = 174;
},
{
glyphname = trademark;
layers = (
{
layerId = "606d6ca3-1ac2-46e0-8c1a-6890279d6924";
name = Fore;
shapes = (
{
closed = 1;
nodes = (
(412,492,l),
(408,492,l),
(400,299,l),
(294,299,l),
(321,700,l),
(430,700,l),
(468,565,l),
(481,483,l),
(485,483,l),
(497,565,l),
(541,700,l),
(645,700,l),
(672,299,l),
(566,299,l),
(559,492,l),
(554,492,l),
(525,358,l),
(441,358,l)
);
},
{
closed = 1;
nodes = (
(5,599,l),
(87,599,l),
(87,299,l),
(200,299,l),
(200,599,l),
(282,599,l),
(282,700,l),
(5,700,l)
);
}
);
width = 685;
}
);
unicode = 8482;
},
{
glyphname = ordfeminine;
layers = (
{
layerId = "606d6ca3-1ac2-46e0-8c1a-6890279d6924";
name = Fore;
shapes = (
{
closed = 1;
nodes = (
(220,359,l),
(142,359,l),
(133,300,l),
(10,300,l),
(76,700,l),
(286,700,l),
(353,300,l),
(229,300,l)
);
},
{
closed = 1;
nodes = (
(177,593,l),
(154,448,l),
(209,448,l),
(185,593,l)
);
}
);
width = 363;
}
);
unicode = 170;
},
{
glyphname = ordmasculine;
layers = (
{
layerId = "606d6ca3-1ac2-46e0-8c1a-6890279d6924";
name = Fore;
shapes = (
{
closed = 1;
nodes = (
(93,300,l),
(20,368,o),
(20,492,q),
(20,616,o),
(93,700,q),
(275,700,l),
(349,615,o),
(349,494,q),
(349,441,o),
(331,388,q),
(313,335,o),
(275,300,q)
);
},
{
closed = 1;
nodes = (
(197,398,l),
(219,437,o),
(219,502.5,q),
(219,568,o),
(196,600,q),
(172,600,l),
(149,566,o),
(149,501.5,q),
(149,437,o),
(171,398,q)
);
}
);
width = 369;
}
);
unicode = 186;
},
{
glyphname = guillemotleft;
kernLeft = guillemotleft.2;
kernRight = guillemotleft;
layers = (
{
layerId = "606d6ca3-1ac2-46e0-8c1a-6890279d6924";
name = Fore;
shapes = (
{
closed = 1;
nodes = (
(35,244,l),
(156,437,l),
(245,388,l),
(160,244,l),
(255,108,l),
(166,59,l)
);
},
{
closed = 1;
nodes = (
(242,244,l),
(363,437,l),
(452,388,l),
(367,244,l),
(462,108,l),
(373,59,l)
);
}
);
width = 497;
}
);
unicode = 171;
},
{
glyphname = guillemotright;
kernLeft = guillemotright.2;
kernRight = guillemotright;
layers = (
{
layerId = "606d6ca3-1ac2-46e0-8c1a-6890279d6924";
name = Fore;
shapes = (
{
closed = 1;
nodes = (
(320,59,l),
(231,108,l),
(326,244,l),
(241,388,l),
(330,437,l),
(451,244,l)
);
},
{
closed = 1;
nodes = (
(114,59,l),
(25,108,l),
(120,244,l),
(35,388,l),
(124,437,l),
(245,244,l)
);
}
);
width = 486;
}
);
unicode = 187;
},
{
glyphname = guilsinglleft;
kernLeft = guillemotleft.2;
kernRight = guillemotleft;
layers = (
{
layerId = "606d6ca3-1ac2-46e0-8c1a-6890279d6924";
name = Fore;
shapes = (
{
closed = 1;
nodes = (
(35,244,l),
(156,437,l),
(245,388,l),
(160,244,l),
(255,108,l),
(166,59,l)
);
}
);
width = 280;
}
);
unicode = 8249;
},
{
glyphname = guilsinglright;
kernLeft = guillemotright.2;
kernRight = guillemotright;
layers = (
{
layerId = "606d6ca3-1ac2-46e0-8c1a-6890279d6924";
name = Fore;
shapes = (
{
closed = 1;
nodes = (
(114,59,l),
(25,108,l),
(120,244,l),
(35,388,l),
(124,437,l),
(245,244,l)
);
}
);
width = 280;
}
);
unicode = 8250;
},
{
glyphname = quoteleft;
kernLeft = quoteleft.2;
kernRight = quoteleft;
layers = (
{
layerId = "606d6ca3-1ac2-46e0-8c1a-6890279d6924";
name = Fore;
shapes = (
{
closed = 1;
nodes = (
(174,487,l),
(40,487,l),
(40,522,l),
(40,604,o),
(52.5,644.5,q),
(65,685,o),
(119,760,q),
(176,728,l),
(131,651,o),
(124,622,q),
(174,622,l)
);
}
);
width = 216;
}
);
unicode = 8216;
},
{
glyphname = quoteright;
kernLeft = quotesingle.2;
kernRight = quotesingle;
layers = (
{
layerId = "606d6ca3-1ac2-46e0-8c1a-6890279d6924";
name = Fore;
shapes = (
{
closed = 1;
nodes = (
(42,751,l),
(176,751,l),
(176,716,l),
(176,634,o),
(163.5,593.5,q),
(151,553,o),
(97,478,q),
(40,510,l),
(85,587,o),
(92,616,q),
(42,616,l)
);
}
);
width = 216;
}
);
unicode = 8217;
},
{
glyphname = quotesinglbase;
kernLeft = comma.2;
kernRight = comma;
layers = (
{
layerId = "606d6ca3-1ac2-46e0-8c1a-6890279d6924";
name = Fore;
shapes = (
{
closed = 1;
nodes = (
(42,135,l),
(176,135,l),
(176,114,l),
(176,22,o),
(163.5,-20,q),
(151,-62,o),
(97,-138,q),
(40,-106,l),
(44.6667,-99,o),
(53.8333,-82.5,q),
(68,-57,l),
(73,-48,o),
(75,-44.5,q),
(77,-41,o),
(80.5,-34,q),
(84,-27,o),
(85.5,-22.5,q),
(87,-18,o),
(88.5,-12,q),
(90,-6,o),
(92,0,q),
(42,0,l)
);
}
);
width = 216;
}
);
unicode = 8218;
},
{
glyphname = quotedblleft;
kernLeft = quoteleft.2;
kernRight = quoteleft;
layers = (
{
layerId = "606d6ca3-1ac2-46e0-8c1a-6890279d6924";
name = Fore;
shapes = (
{
closed = 1;
nodes = (
(174,487,l),
(40,487,l),
(40,522,l),
(40,604,o),
(52.5,644.5,q),
(65,685,o),
(119,760,q),
(176,728,l),
(131,651,o),
(124,622,q),
(174,622,l)
);
},
{
closed = 1;
nodes = (
(356,487,l),
(222,487,l),
(222,522,l),
(222,604,o),
(234.5,644.5,q),
(247,685,o),
(301,760,q),
(358,728,l),
(313,651,o),
(306,622,q),
(356,622,l)
);
}
);
width = 398;
}
);
unicode = 8220;
},
{
glyphname = quotedblright;
kernLeft = quotesingle.2;
kernRight = quotesingle;
layers = (
{
layerId = "606d6ca3-1ac2-46e0-8c1a-6890279d6924";
name = Fore;
shapes = (
{
closed = 1;
nodes = (
(224,752,l),
(358,752,l),
(358,717,l),
(358,635,o),
(345.5,594.5,q),
(333,554,o),
(279,479,q),
(222,511,l),
(267,588,o),
(274,617,q),
(224,617,l)
);
},
{
closed = 1;
nodes = (
(42,752,l),
(176,752,l),
(176,717,l),
(176,635,o),
(163.5,594.5,q),
(151,554,o),
(97,479,q),
(40,511,l),
(85,588,o),
(92,617,q),
(42,617,l)
);
}
);
width = 398;
}
);
unicode = 8221;
},
{
glyphname = quotedblbase;
kernLeft = comma.2;
kernRight = comma;
layers = (
{
layerId = "606d6ca3-1ac2-46e0-8c1a-6890279d6924";
name = Fore;
shapes = (
{
closed = 1;
nodes = (
(224,135,l),
(358,135,l),
(358,100,l),
(358,18,o),
(345.5,-22.5,q),
(333,-63,o),
(279,-138,q),
(222,-106,l),
(267,-29,o),
(274,0,q),
(224,0,l)
);
},
{
closed = 1;
nodes = (
(42,135,l),
(176,135,l),
(176,100,l),
(176,18,o),
(163.5,-22.5,q),
(151,-63,o),
(97,-138,q),
(40,-106,l),
(44.6667,-99,o),
(53.8333,-82.5,q),
(68,-57,l),
(73,-48,o),
(75,-44.5,q),
(77,-41,o),
(80.5,-34,q),
(84,-27,o),
(85.5,-22.5,q),
(87,-18,o),
(88.5,-12,q),
(90,-6,o),
(92,0,q),
(42,0,l)
);
}
);
width = 398;
}
);
unicode = 8222;
},
{
glyphname = dagger;
layers = (
{
layerId = "606d6ca3-1ac2-46e0-8c1a-6890279d6924";
name = Fore;
shapes = (
{
closed = 1;
nodes = (
(132,0,l),
(132,431,l),
(30,431,l),
(30,541,l),
(132,541,l),
(132,700,l),
(253,700,l),
(253,541,l),
(355,541,l),
(355,431,l),
(253,431,l),
(253,0,l)
);
}
);
width = 422;
}
);
unicode = 8224;
},
{
glyphname = daggerdbl;
layers = (
{
layerId = "606d6ca3-1ac2-46e0-8c1a-6890279d6924";
name = Fore;
shapes = (
{
closed = 1;
nodes = (
(132,0,l),
(132,179,l),
(30,179,l),
(30,289,l),
(132,289,l),
(132,431,l),
(30,431,l),
(30,541,l),
(132,541,l),
(132,700,l),
(253,700,l),
(253,541,l),
(355,541,l),
(355,431,l),
(253,431,l),
(253,289,l),
(355,289,l),
(355,179,l),
(253,179,l),
(253,0,l)
);
}
);
width = 422;
}
);
unicode = 8225;
},
{
glyphname = bullet;
layers = (
{
layerId = "606d6ca3-1ac2-46e0-8c1a-6890279d6924";
name = Fore;
shapes = (
{
closed = 1;
nodes = (
(223,437,l),
(223,233,l),
(40,233,l),
(40,437,l)
);
}
);
width = 263;
}
);
unicode = 8226;
},
{
glyphname = ellipsis;
kernLeft = comma.2;
kernRight = comma;
layers = (
{
layerId = "606d6ca3-1ac2-46e0-8c1a-6890279d6924";
name = Fore;
shapes = (
{
closed = 1;
nodes = (
(184,148,l),
(184,0,l),
(40,0,l),
(40,148,l)
);
},
{
closed = 1;
nodes = (
(416,148,l),
(416,0,l),
(272,0,l),
(272,148,l)
);
},
{
closed = 1;
nodes = (
(648,148,l),
(648,0,l),
(504,0,l),
(504,148,l)
);
}
);
width = 688;
}
);
unicode = 8230;
},
{
glyphname = paragraph;
layers = (
{
layerId = "606d6ca3-1ac2-46e0-8c1a-6890279d6924";
name = Fore;
shapes = (
{
closed = 1;
nodes = (
(188,150,l),
(112,186,o),
(68.5,260.5,q),
(25,335,o),
(25,416,q),
(25,605,o),
(188,700,q),
(426,700,l),
(426,115,l),
(426,-11,o),
(396,-110,q),
(264,-110,l),
(294,-1,o),
(294,111,q),
(294,558,l),
(249,558,l),
(249,150,l)
);
}
);
width = 463;
}
);
unicode = 182;
},
{
glyphname = periodcentered;
layers = (
{
layerId = "606d6ca3-1ac2-46e0-8c1a-6890279d6924";
name = Fore;
shapes = (
{
closed = 1;
nodes = (
(152,419,l),
(152,295,l),
(40,295,l),
(40,419,l)
);
}
);
width = 192;
}
);
unicode = 183;
},
{
glyphname = uni00AD;
kernLeft = hyphen.2;
kernRight = hyphen;
layers = (
{
layerId = "606d6ca3-1ac2-46e0-8c1a-6890279d6924";
name = Fore;
shapes = (
{
closed = 1;
nodes = (
(45,345,l),
(251,345,l),
(251,231,l),
(45,231,l)
);
}
);
width = 296;
}
);
unicode = 173;
},
{
glyphname = endash;
kernLeft = hyphen.2;
kernRight = hyphen;
layers = (
{
layerId = "606d6ca3-1ac2-46e0-8c1a-6890279d6924";
name = Fore;
shapes = (
{
closed = 1;
nodes = (
(0,345,l),
(416,345,l),
(416,231,l),
(0,231,l)
);
}
);
width = 416;
}
);
unicode = 8211;
},
{
glyphname = emdash;
kernLeft = hyphen.2;
kernRight = hyphen;
layers = (
{
layerId = "606d6ca3-1ac2-46e0-8c1a-6890279d6924";
name = Fore;
shapes = (
{
closed = 1;
nodes = (
(0,345,l),
(793,345,l),
(793,231,l),
(0,231,l)
);
}
);
width = 793;
}
);
unicode = 8212;
},
{
glyphname = hyphen.case;
layers = (
{
layerId = "606d6ca3-1ac2-46e0-8c1a-6890279d6924";
name = Fore;
shapes = (
{
closed = 1;
nodes = (
(45,394,l),
(251,394,l),
(251,280,l),
(45,280,l)
);
}
);
width = 296;
}
);
},
{
glyphname = AE;
kernLeft = AE;
kernRight = E;
layers = (
{
layerId = "606d6ca3-1ac2-46e0-8c1a-6890279d6924";
name = Fore;
shapes = (
{
closed = 1;
nodes = (
(186,700,l),
(642,700,l),
(642,580,l),
(420,580,l),
(420,413,l),
(618,413,l),
(618,297,l),
(420,297,l),
(420,116,l),
(646,116,l),
(646,0,l),
(283,0,l),
(283,170,l),
(181,170,l),
(141,0,l),
(5,0,l)
);
},
{
closed = 1;
nodes = (
(206,278,l),
(283,278,l),
(283,580,l),
(277,580,l)
);
}
);
width = 675;
}
);
unicode = 198;
},
{
glyphname = Eth;
kernRight = D;
layers = (
{
layerId = "606d6ca3-1ac2-46e0-8c1a-6890279d6924";
name = Fore;
shapes = (
{
closed = 1;
nodes = (
(13,405,l),
(60,405,l),
(60,700,l),
(350,700,l),
(492,574,o),
(492,358.5,q),
(492,143,o),
(359,0,q),
(60,0,l),
(60,299,l),
(13,299,l)
);
},
{
closed = 1;
nodes = (
(286,116,l),
(314,151,o),
(330.5,218,q),
(347,285,o),
(347,351,q),
(347,508,o),
(288,580,q),
(196,580,l),
(196,405,l),
(283,405,l),
(283,299,l),
(196,299,l),
(196,116,l)
);
}
);
width = 522;
}
);
unicode = 208;
},
{
glyphname = Oslash;
kernLeft = C.2;
kernRight = D;
layers = (
{
layerId = "606d6ca3-1ac2-46e0-8c1a-6890279d6924";
name = Fore;
shapes = (
{
closed = 1;
nodes = (
(129,41,l),
(30,164,o),
(30,340,q),
(30,451,o),
(64,547,q),
(98,643,o),
(168,700,q),
(312,700,l),
(329,750,l),
(452,750,l),
(420,653,l),
(512,535,o),
(512,340,q),
(512,248,o),
(479,157,q),
(446,66,o),
(374,0,q),
(238,0,l),
(222,-50,l),
(99,-50,l)
);
},
{
closed = 1;
nodes = (
(307,116,l),
(332,145,o),
(349.5,210.5,q),
(367,276,o),
(367,349,q),
(367,422,o),
(350,486.5,q),
(333,551,o),
(308,580,q),
(235,580,l),
(210,551,o),
(192.5,486.5,q),
(175,422,o),
(175,349,q),
(175,276,o),
(192.5,210.5,q),
(210,145,o),
(235,116,q)
);
}
);
width = 542;
}
);
unicode = 216;
},
{
glyphname = Thorn;
kernRight = P;
layers = (
{
layerId = "606d6ca3-1ac2-46e0-8c1a-6890279d6924";
name = Fore;
shapes = (
{
closed = 1;
nodes = (
(48,700,l),
(183,700,l),
(183,610,l),
(319,610,l),
(387,580,o),
(426.5,518,q),
(466,456,o),
(466,373.5,q),
(466,291,o),
(425,221,q),
(384,151,o),
(304,122,q),
(183,122,l),
(183,0,l),
(48,0,l)
);
},
{
closed = 1;
nodes = (
(183,239,l),
(272,239,l),
(327,284,o),
(327,368,q),
(327,405,o),
(312,439,q),
(297,473,o),
(278,488,q),
(183,488,l)
);
}
);
width = 491;
}
);
unicode = 222;
},
{
glyphname = germandbls;
layers = (
{
layerId = "606d6ca3-1ac2-46e0-8c1a-6890279d6924";
name = Fore;
shapes = (
{
closed = 1;
nodes = (
(373,270,o),
(333,292,q),
(254,292,l),
(254,445,l),
(254,542,o),
(226,595,q),
(193,595,l),
(166,541,o),
(166,445,q),
(166,0,l),
(33,0,l),
(33,413,l),
(33,514,o),
(52.5,582,q),
(72,650,o),
(138,700,q),
(282,700,l),
(355.2273,638.9773,o),
(372,563.5,q),
(386,500.5,o),
(386,413,q),
(386,395,l),
(508,355,o),
(508,197,q),
(508,145,o),
(477.5,87,q),
(447,29,o),
(392,0,q),
(215,0,l),
(215,105,l),
(333,105,l),
(349,116,o),
(361,141.5,q),
(373,167,o),
(373,198,q)
);
}
);
width = 508;
}
);
unicode = 223;
},
{
glyphname = ae;
kernLeft = a.2;
kernRight = b;
layers = (
{
layerId = "606d6ca3-1ac2-46e0-8c1a-6890279d6924";
name = Fore;
shapes = (
{
closed = 1;
nodes = (
(664,0,l),
(410,0,l),
(390,13,o),
(364,39,q),
(320,0,o),
(257,0,q),
(114,0,l),
(29,56,o),
(29,161.5,q),
(29,267,o),
(116,328,q),
(210,328,l),
(249,328,o),
(283,304,q),
(283,354,l),
(283,393,o),
(249,406,q),
(69,406,l),
(69,511,l),
(308,511,l),
(341,497,o),
(362,467,q),
(378,485,o),
(412,511,q),
(569,511,l),
(636,462,o),
(660,407,q),
(684,352,o),
(684,296,q),
(684,240,o),
(675,200,q),
(426,200,l),
(429,177,o),
(443.5,147,q),
(458,117,o),
(475,104,q),
(664,104,l)
);
},
{
closed = 1;
nodes = (
(177,231,l),
(156,205,o),
(156,166,q),
(156,127,o),
(178,105,q),
(317,105,l),
(287,164,o),
(284,231,q)
);
},
{
closed = 1;
nodes = (
(453,406,l),
(438,388,o),
(428.5,356,q),
(419,324,o),
(419,294,q),
(562,294,l),
(562,321,o),
(552.5,355.5,q),
(543,390,o),
(528,406,q)
);
}
);
width = 708;
}
);
unicode = 230;
},
{
glyphname = thorn;
kernRight = b;
layers = (
{
layerId = "606d6ca3-1ac2-46e0-8c1a-6890279d6924";
name = Fore;
shapes = (
{
closed = 1;
nodes = (
(174,700,l),
(174,485,l),
(206,511,o),
(265,511,q),
(355,511,l),
(445,423,o),
(445,259,q),
(445,95,o),
(345,0,q),
(260,0,l),
(205,0,o),
(174,28,q),
(174,-150,l),
(43,-150,l),
(43,700,l)
);
},
{
closed = 1;
nodes = (
(272,105,l),
(309,168,o),
(309,258,q),
(309,348,o),
(271,406,q),
(174,406,l),
(174,105,l)
);
}
);
width = 474;
}
);
unicode = 254;
},
{
glyphname = OE;
kernLeft = C.2;
kernRight = E;
layers = (
{
layerId = "606d6ca3-1ac2-46e0-8c1a-6890279d6924";
name = Fore;
shapes = (
{
closed = 1;
nodes = (
(722,580,l),
(464,580,l),
(497,507,o),
(508,413,q),
(698,413,l),
(698,297,l),
(510,297,l),
(502,198,o),
(460,116,q),
(726,116,l),
(726,0,l),
(168,0,l),
(96,66,o),
(63,157,q),
(30,248,o),
(30,349.5,q),
(30,451,o),
(64,547,q),
(98,643,o),
(168,700,q),
(722,700,l)
);
},
{
closed = 1;
nodes = (
(307,116,l),
(332,145,o),
(349.5,210.5,q),
(367,276,o),
(367,349,q),
(367,422,o),
(350,486.5,q),
(333,551,o),
(308,580,q),
(235,580,l),
(210,551,o),
(192.5,486.5,q),
(175,422,o),
(175,349,q),
(175,276,o),
(192.5,210.5,q),
(210,145,o),
(235,116,q)
);
}
);
width = 755;
}
);
unicode = 338;
},
{
glyphname = oe;
kernLeft = c.2;
kernRight = b;
layers = (
{
layerId = "606d6ca3-1ac2-46e0-8c1a-6890279d6924";
name = Fore;
shapes = (
{
closed = 1;
nodes = (
(683,0,l),
(435,0,l),
(407,18,o),
(384,51,q),
(366,22,o),
(343,0,q),
(129,0,l),
(29,93,o),
(29,254,q),
(29,335,o),
(51.5,395,q),
(74,455,o),
(123,511,q),
(342,511,l),
(360,496,o),
(386,458,q),
(403,485,o),
(438,511,q),
(588,511,l),
(655,462,o),
(679,407,q),
(703,352,o),
(703,296,q),
(703,240,o),
(694,200,q),
(445,200,l),
(448,177,o),
(462.5,147.5,q),
(477,118,o),
(494,105,q),
(683,105,l)
);
},
{
closed = 1;
nodes = (
(276,104,l),
(312,174,o),
(312,263.5,q),
(312,353,o),
(275,406,q),
(200,406,l),
(164,355,o),
(164,261,q),
(164,167,o),
(200,104,q)
);
},
{
closed = 1;
nodes = (
(472,406,l),
(457,388,o),
(447.5,356,q),
(438,324,o),
(438,294,q),
(581,294,l),
(583,324,o),
(573,356.5,q),
(563,389,o),
(547,406,q)
);
}
);
width = 727;
}
);
unicode = 339;
},
{
glyphname = circumflex;
layers = (
{
layerId = "606d6ca3-1ac2-46e0-8c1a-6890279d6924";
name = Fore;
shapes = (
{
closed = 1;
nodes = (
(309,718,l),
(390,582,l),
(326,549,l),
(250,626,l),
(174,549,l),
(111,582,l),
(191,718,l)
);
}
);
width = 500;
}
);
unicode = 710;
},
{
glyphname = caron;
layers = (
{
layerId = "606d6ca3-1ac2-46e0-8c1a-6890279d6924";
name = Fore;
shapes = (
{
closed = 1;
nodes = (
(191,549,l),
(111,685,l),
(174,718,l),
(250,641,l),
(326,718,l),
(390,685,l),
(309,549,l)
);
}
);
width = 500;
}
);
unicode = 711;
},
{
glyphname = uni02C9;
layers = (
{
layerId = "606d6ca3-1ac2-46e0-8c1a-6890279d6924";
name = Fore;
shapes = (
{
closed = 1;
nodes = (
(124,669,l),
(376,669,l),
(376,569,l),
(124,569,l)
);
}
);
width = 500;
}
);
unicode = 713;
},
{
glyphname = breve;
layers = (
{
layerId = "606d6ca3-1ac2-46e0-8c1a-6890279d6924";
name = Fore;
shapes = (
{
closed = 1;
nodes = (
(195,707,l),
(202.3267,664.5049,o),
(210.3666,655.809,q),
(218.4065,647.1132,o),
(226,643,q),
(274,643,l),
(291.0058,652.4477,o),
(295.5029,667.2238,q),
(301.8421,688.0526,o),
(305,707,q),
(399,707,l),
(392,588,o),
(294,548,q),
(206,548,l),
(108,588,o),
(101,707,q)
);
}
);
width = 500;
}
);
unicode = 728;
},
{
glyphname = dieresis;
layers = (
{
layerId = "606d6ca3-1ac2-46e0-8c1a-6890279d6924";
name = Fore;
shapes = (
{
closed = 1;
nodes = (
(97,700,l),
(229,700,l),
(229,565,l),
(97,565,l)
);
},
{
closed = 1;
nodes = (
(270,700,l),
(402,700,l),
(402,565,l),
(270,565,l)
);
}
);
width = 500;
}
);
unicode = 168;
},
{
glyphname = macron;
layers = (
{
layerId = "606d6ca3-1ac2-46e0-8c1a-6890279d6924";
name = Fore;
shapes = (
{
closed = 1;
nodes = (
(124,669,l),
(376,669,l),
(376,569,l),
(124,569,l)
);
}
);
width = 500;
}
);
unicode = 175;
},
{
glyphname = degree;
layers = (
{
layerId = "606d6ca3-1ac2-46e0-8c1a-6890279d6924";
name = Fore;
shapes = (
{
closed = 1;
nodes = (
(205,774,l),
(285,735,o),
(285,644,q),
(285,605,o),
(264,570,q),
(243,535,o),
(205,518,q),
(111,518,l),
(73,535,o),
(52,570,q),
(31,605,o),
(31,644,q),
(31,735,o),
(111,774,q)
);
},
{
closed = 1;
nodes = (
(174,598,l),
(192,616,o),
(192,646.5,q),
(192,677,o),
(174,694,q),
(142,694,l),
(124,677,o),
(124,646.5,q),
(124,616,o),
(142,598,q)
);
}
);
width = 315;
}
);
unicode = 176;
},
{
glyphname = acute;
layers = (
{
layerId = "606d6ca3-1ac2-46e0-8c1a-6890279d6924";
name = Fore;
shapes = (
{
closed = 1;
nodes = (
(317,727,l),
(364,624,l),
(186,546,l),
(146,627,l)
);
}
);
width = 500;
}
);
unicode = 180;
},
{
glyphname = grave;
layers = (
{
layerId = "606d6ca3-1ac2-46e0-8c1a-6890279d6924";
name = Fore;
shapes = (
{
closed = 1;
nodes = (
(354,627,l),
(314,546,l),
(136,624,l),
(183,727,l)
);
}
);
width = 500;
}
);
unicode = 96;
},
{
glyphname = cedilla;
layers = (
{
layerId = "606d6ca3-1ac2-46e0-8c1a-6890279d6924";
name = Fore;
shapes = (
{
closed = 1;
nodes = (
(194,-132,l),
(194,-60,l),
(227,15,l),
(311,15,l),
(282,-60,l),
(297,-73,o),
(304,-81.5,q),
(326,-108.2143,o),
(326,-146.1071,q),
(326,-184,o),
(308,-213,q),
(290,-242,o),
(262,-260,q),
(174,-260,l),
(174,-179,l),
(219,-179,l),
(228,-173,o),
(228.5,-156,q),
(229,-139,o),
(219,-132,q)
);
}
);
width = 500;
}
);
unicode = 184;
},
{
glyphname = dotaccent;
layers = (
{
layerId = "606d6ca3-1ac2-46e0-8c1a-6890279d6924";
name = Fore;
shapes = (
{
closed = 1;
nodes = (
(315,700,l),
(315,565,l),
(183,565,l),
(183,700,l)
);
}
);
width = 500;
}
);
unicode = 729;
},
{
glyphname = ring;
layers = (
{
layerId = "606d6ca3-1ac2-46e0-8c1a-6890279d6924";
name = Fore;
shapes = (
{
closed = 1;
nodes = (
(295,794,l),
(375,755,o),
(375,669,q),
(375,631,o),
(354,598.5,q),
(333,566,o),
(295,548,q),
(205,548,l),
(167,566,o),
(146,598.5,q),
(125,631,o),
(125,669,q),
(125,755,o),
(205,794,q)
);
},
{
closed = 1;
nodes = (
(268,621,l),
(289,642,o),
(289,671,q),
(289,700,o),
(268,719,q),
(231,719,l),
(211,699,o),
(211,670,q),
(211,641,o),
(231,621,q)
);
}
);
width = 500;
}
);
unicode = 730;
},
{
glyphname = ogonek;
layers = (
{
layerId = "606d6ca3-1ac2-46e0-8c1a-6890279d6924";
name = Fore;
shapes = (
{
closed = 1;
nodes = (
(334,0,l),
(270,-127,l),
(274,-132,l),
(340,-132,l),
(340,-227,l),
(187,-227,l),
(150,-204,o),
(150,-159,q),
(150,-130,o),
(162,-106,q),
(176.5,-77,l),
(180,-70,o),
(198,-40,q),
(228,12,l)
);
}
);
width = 500;
}
);
unicode = 731;
},
{
glyphname = tilde;
layers = (
{
layerId = "606d6ca3-1ac2-46e0-8c1a-6890279d6924";
name = Fore;
shapes = (
{
closed = 1;
nodes = (
(201,582,l),
(180,582,o),
(119,559,q),
(119,659,l),
(183,686,o),
(205,686,q),
(302,659,l),
(322,659,o),
(381,673,q),
(381,571,l),
(320,556,o),
(297,557,q)
);
}
);
width = 500;
}
);
unicode = 732;
},
{
glyphname = hungarumlaut;
layers = (
{
layerId = "606d6ca3-1ac2-46e0-8c1a-6890279d6924";
name = Fore;
shapes = (
{
closed = 1;
nodes = (
(325,763,l),
(419,702,l),
(303,546,l),
(226,591,l)
);
},
{
closed = 1;
nodes = (
(161,762,l),
(261,711,l),
(159,545,l),
(78,582,l)
);
}
);
width = 500;
}
);
unicode = 733;
},
{
glyphname = perthousand;
layers = (
{
layerId = "606d6ca3-1ac2-46e0-8c1a-6890279d6924";
name = Fore;
shapes = (
{
closed = 1;
nodes = (
(222,700,l),
(301,624,o),
(301,517.5,q),
(301,411,o),
(222,336,q),
(89,336,l),
(10,411,o),
(10,517.5,q),
(10,624,o),
(89,700,q)
);
},
{
closed = 1;
nodes = (
(173,414,l),
(202,464,o),
(202,521.5,q),
(202,579,o),
(172,622,q),
(140,622,l),
(110,579,o),
(110,521.5,q),
(110,464,o),
(139,414,q)
);
},
{
closed = 1;
nodes = (
(610,364,l),
(689,288,o),
(689,181.5,q),
(689,75,o),
(610,0,q),
(477,0,l),
(398,75,o),
(398,181.5,q),
(398,288,o),
(477,364,q)
);
},
{
closed = 1;
nodes = (
(561,78,l),
(590,128,o),
(590,185.5,q),
(590,243,o),
(560,286,q),
(528,286,l),
(498,243,o),
(498,185.5,q),
(498,128,o),
(527,78,q)
);
},
{
closed = 1;
nodes = (
(930,364,l),
(1009,288,o),
(1009,181.5,q),
(1009,75,o),
(930,0,q),
(797,0,l),
(718,75,o),
(718,181.5,q),
(718,288,o),
(797,364,q)
);
},
{
closed = 1;
nodes = (
(881,78,l),
(910,128,o),
(910,185.5,q),
(910,243,o),
(880,286,q),
(848,286,l),
(818,243,o),
(818,185.5,q),
(818,128,o),
(847,78,q)
);
},
{
closed = 1;
nodes = (
(184,0,l),
(293,0,l),
(519,700,l),
(406,700,l)
);
}
);
width = 1019;
}
);
unicode = 8240;
},
{
glyphname = percent;
layers = (
{
layerId = "606d6ca3-1ac2-46e0-8c1a-6890279d6924";
name = Fore;
shapes = (
{
closed = 1;
nodes = (
(95,279,l),
(10,365,o),
(10,483,q),
(10,621,o),
(95,700,q),
(241,700,l),
(326,621,o),
(326,483,q),
(326,365,o),
(241,279,q)
);
},
{
closed = 1;
nodes = (
(119,558,o),
(119,488.5,q),
(119,419,o),
(146,373,q),
(190,373,l),
(217,422,o),
(217,488.5,q),
(217,555,o),
(190,604,q),
(146,604,l)
);
},
{
closed = 1;
nodes = (
(535,0,l),
(450,86,o),
(450,204,q),
(450,342,o),
(535,421,q),
(681,421,l),
(766,342,o),
(766,204,q),
(766,86,o),
(681,0,q)
);
},
{
closed = 1;
nodes = (
(559,279,o),
(559,209.5,q),
(559,140,o),
(586,94,q),
(630,94,l),
(657,143,o),
(657,209.5,q),
(657,276,o),
(630,325,q),
(586,325,l)
);
},
{
closed = 1;
nodes = (
(443,700,l),
(556,700,l),
(330,0,l),
(221,0,l)
);
}
);
width = 776;
}
);
unicode = 37;
},
{
glyphname = fraction;
layers = (
{
layerId = "606d6ca3-1ac2-46e0-8c1a-6890279d6924";
name = Fore;
shapes = (
{
closed = 1;
nodes = (
(232,700,l),
(345,700,l),
(119,0,l),
(10,0,l)
);
}
);
width = 305;
}
);
unicode = 8260;
},
{
glyphname = minus;
layers = (
{
layerId = "606d6ca3-1ac2-46e0-8c1a-6890279d6924";
name = Fore;
shapes = (
{
closed = 1;
nodes = (
(5,387,l),
(339,387,l),
(339,290,l),
(5,290,l)
);
}
);
width = 344;
}
);
unicode = 8722;
},
{
glyphname = uni2215;
layers = (
{
layerId = "606d6ca3-1ac2-46e0-8c1a-6890279d6924";
name = Fore;
shapes = (
{
closed = 1;
nodes = (
(232,700,l),
(345,700,l),
(119,0,l),
(10,0,l)
);
}
);
width = 395;
}
);
unicode = 8725;
},
{
glyphname = uni2219;
layers = (
{
layerId = "606d6ca3-1ac2-46e0-8c1a-6890279d6924";
name = Fore;
shapes = (
{
closed = 1;
nodes = (
(152,419,l),
(152,295,l),
(40,295,l),
(40,419,l)
);
}
);
width = 192;
}
);
unicode = 8729;
},
{
glyphname = approxequal;
layers = (
{
layerId = "606d6ca3-1ac2-46e0-8c1a-6890279d6924";
name = Fore;
shapes = (
{
closed = 1;
nodes = (
(168,431,l),
(114,427,o),
(40,401,q),
(40,530,l),
(88,548,o),
(111.5,553,q),
(135,558,o),
(168,560,q),
(304,512,l),
(354,512,o),
(432,529,q),
(432,400,l),
(369,384,o),
(304,383,q)
);
},
{
closed = 1;
nodes = (
(168,206,l),
(114,202,o),
(40,176,q),
(40,305,l),
(88,323,o),
(111.5,328,q),
(135,333,o),
(168,335,q),
(304,287,l),
(354,287,o),
(432,304,q),
(432,175,l),
(369,159,o),
(304,158,q)
);
}
);
width = 472;
}
);
unicode = 8776;
},
{
glyphname = notequal;
layers = (
{
layerId = "606d6ca3-1ac2-46e0-8c1a-6890279d6924";
name = Fore;
shapes = (
{
closed = 1;
nodes = (
(272,570,l),
(366,570,l),
(143,58,l),
(49,58,l)
);
},
{
closed = 1;
nodes = (
(40,467,l),
(374,467,l),
(374,370,l),
(40,370,l)
);
},
{
closed = 1;
nodes = (
(40,267,l),
(374,267,l),
(374,170,l),
(40,170,l)
);
}
);
width = 414;
}
);
unicode = 8800;
},
{
glyphname = lessequal;
layers = (
{
layerId = "606d6ca3-1ac2-46e0-8c1a-6890279d6924";
name = Fore;
shapes = (
{
closed = 1;
nodes = (
(20,97,l),
(354,97,l),
(354,0,l),
(20,0,l)
);
},
{
closed = 1;
nodes = (
(20,289,l),
(20,389,l),
(308,534,l),
(359,431,l),
(156,339,l),
(359,247,l),
(308,144,l)
);
}
);
width = 379;
}
);
unicode = 8804;
},
{
glyphname = greaterequal;
layers = (
{
layerId = "606d6ca3-1ac2-46e0-8c1a-6890279d6924";
name = Fore;
shapes = (
{
closed = 1;
nodes = (
(25,97,l),
(359,97,l),
(359,0,l),
(25,0,l)
);
},
{
closed = 1;
nodes = (
(121,144,l),
(70,247,l),
(273,339,l),
(70,431,l),
(121,534,l),
(409,389,l),
(409,289,l)
);
}
);
width = 379;
}
);
unicode = 8805;
},
{
glyphname = less;
layers = (
{
layerId = "606d6ca3-1ac2-46e0-8c1a-6890279d6924";
name = Fore;
shapes = (
{
closed = 1;
nodes = (
(20,289,l),
(20,389,l),
(308,534,l),
(359,431,l),
(156,339,l),
(359,247,l),
(308,144,l)
);
}
);
width = 379;
}
);
unicode = 60;
},
{
glyphname = equal;
layers = (
{
layerId = "606d6ca3-1ac2-46e0-8c1a-6890279d6924";
name = Fore;
shapes = (
{
closed = 1;
nodes = (
(5,467,l),
(339,467,l),
(339,370,l),
(5,370,l)
);
},
{
closed = 1;
nodes = (
(5,267,l),
(339,267,l),
(339,170,l),
(5,170,l)
);
}
);
width = 344;
}
);
unicode = 61;
},
{
glyphname = greater;
layers = (
{
layerId = "606d6ca3-1ac2-46e0-8c1a-6890279d6924";
name = Fore;
shapes = (
{
closed = 1;
nodes = (
(71,144,l),
(20,247,l),
(223,339,l),
(20,431,l),
(71,534,l),
(359,389,l),
(359,289,l)
);
}
);
width = 379;
}
);
unicode = 62;
},
{
glyphname = logicalnot;
layers = (
{
layerId = "606d6ca3-1ac2-46e0-8c1a-6890279d6924";
name = Fore;
shapes = (
{
closed = 1;
nodes = (
(5,412,l),
(339,412,l),
(339,129,l),
(206,129,l),
(206,293,l),
(5,293,l)
);
}
);
width = 344;
}
);
unicode = 172;
},
{
glyphname = plus;
layers = (
{
layerId = "606d6ca3-1ac2-46e0-8c1a-6890279d6924";
name = Fore;
shapes = (
{
closed = 1;
nodes = (
(5,387,l),
(339,387,l),
(339,290,l),
(5,290,l)
);
},
{
closed = 1;
nodes = (
(123,511,l),
(219,511,l),
(219,167,l),
(123,167,l)
);
}
);
width = 344;
}
);
unicode = 43;
},
{
glyphname = plusminus;
layers = (
{
layerId = "606d6ca3-1ac2-46e0-8c1a-6890279d6924";
name = Fore;
shapes = (
{
closed = 1;
nodes = (
(339,97,l),
(5,97,l),
(5,0,l),
(339,0,l)
);
},
{
closed = 1;
nodes = (
(5,387,l),
(339,387,l),
(339,290,l),
(5,290,l)
);
},
{
closed = 1;
nodes = (
(123,511,l),
(219,511,l),
(219,167,l),
(123,167,l)
);
}
);
width = 344;
}
);
unicode = 177;
},
{
glyphname = divide;
layers = (
{
layerId = "606d6ca3-1ac2-46e0-8c1a-6890279d6924";
name = Fore;
shapes = (
{
closed = 1;
nodes = (
(202,570,l),
(249,546,o),
(249,491,q),
(249,472,o),
(236,449,q),
(223,426,o),
(202,416,q),
(142,416,l),
(121,426,o),
(108,448.5,q),
(95,471,o),
(95,491,q),
(95,547,o),
(142,570,q)
);
},
{
closed = 1;
nodes = (
(202,259,l),
(249,236,o),
(249,180,q),
(249,161,o),
(236,138,q),
(223,115,o),
(202,105,q),
(142,105,l),
(121,115,o),
(108,137.5,q),
(95,160,o),
(95,180,q),
(95,236,o),
(142,259,q)
);
},
{
closed = 1;
nodes = (
(339,386,l),
(5,386,l),
(5,289,l),
(339,289,l)
);
}
);
width = 344;
}
);
unicode = 247;
},
{
glyphname = multiply;
layers = (
{
layerId = "606d6ca3-1ac2-46e0-8c1a-6890279d6924";
name = Fore;
shapes = (
{
closed = 1;
nodes = (
(9,255,l),
(245,491,l),
(314,422,l),
(78,186,l)
);
},
{
closed = 1;
nodes = (
(5,426,l),
(73,494,l),
(316,251,l),
(248,183,l)
);
}
);
width = 321;
}
);
unicode = 215;
},
{
glyphname = commaaccent;
layers = (
{
layerId = "606d6ca3-1ac2-46e0-8c1a-6890279d6924";
name = Fore;
shapes = (
{
closed = 1;
nodes = (
(190,-66,l),
(310,-66,l),
(310,-109,l),
(310,-185,o),
(298,-220.5,q),
(286,-256,o),
(240,-319,q),
(194,-293,l),
(223,-244,o),
(234,-203,q),
(190,-203,l)
);
}
);
width = 500;
}
);
},
{
glyphname = revcommaaccent;
layers = (
{
layerId = "606d6ca3-1ac2-46e0-8c1a-6890279d6924";
name = Fore;
shapes = (
{
closed = 1;
nodes = (
(310,548,l),
(190,548,l),
(190,591,l),
(190,667,o),
(202,702.5,q),
(214,738,o),
(260,801,q),
(306,775,l),
(277,726,o),
(266,685,q),
(310,685,l)
);
}
);
width = 500;
}
);
},
{
glyphname = tilde.cap;
layers = (
{
layerId = "606d6ca3-1ac2-46e0-8c1a-6890279d6924";
name = Fore;
shapes = (
{
closed = 1;
nodes = (
(201,759,l),
(180,759,o),
(119,736,q),
(119,841,l),
(183,868,o),
(205,868,q),
(302,841,l),
(322,841,o),
(381,855,q),
(381,748,l),
(320,733,o),
(297,734,q)
);
}
);
width = 500;
}
);
},
{
glyphname = ring.cap;
layers = (
{
layerId = "606d6ca3-1ac2-46e0-8c1a-6890279d6924";
name = Fore;
shapes = (
{
closed = 1;
nodes = (
(295,974,l),
(375,935,o),
(375,849,q),
(375,811,o),
(354,778.5,q),
(333,746,o),
(295,728,q),
(205,728,l),
(167,746,o),
(146,778.5,q),
(125,811,o),
(125,849,q),
(125,935,o),
(205,974,q)
);
},
{
closed = 1;
nodes = (
(268,801,l),
(289,822,o),
(289,851,q),
(289,880,o),
(268,899,q),
(231,899,l),
(211,879,o),
(211,850,q),
(211,821,o),
(231,801,q)
);
}
);
width = 500;
}
);
},
{
glyphname = circumflex.cap;
layers = (
{
layerId = "606d6ca3-1ac2-46e0-8c1a-6890279d6924";
name = Fore;
shapes = (
{
closed = 1;
nodes = (
(304,878,l),
(395,767,l),
(336,728,l),
(250,786,l),
(164,729,l),
(105,769,l),
(198,878,l)
);
}
);
width = 500;
}
);
},
{
glyphname = acute.cap;
layers = (
{
layerId = "606d6ca3-1ac2-46e0-8c1a-6890279d6924";
name = Fore;
shapes = (
{
closed = 1;
nodes = (
(326,899,l),
(364,788,l),
(175,730,l),
(143,817,l)
);
}
);
width = 500;
}
);
},
{
glyphname = grave.cap;
layers = (
{
layerId = "606d6ca3-1ac2-46e0-8c1a-6890279d6924";
name = Fore;
shapes = (
{
closed = 1;
nodes = (
(358,817,l),
(326,730,l),
(136,788,l),
(175,899,l)
);
}
);
width = 500;
}
);
},
{
glyphname = dieresis.cap;
layers = (
{
layerId = "606d6ca3-1ac2-46e0-8c1a-6890279d6924";
name = Fore;
shapes = (
{
closed = 1;
nodes = (
(97,865,l),
(229,865,l),
(229,730,l),
(97,730,l)
);
},
{
closed = 1;
nodes = (
(270,865,l),
(402,865,l),
(402,730,l),
(270,730,l)
);
}
);
width = 500;
}
);
},
{
glyphname = caron.cap;
layers = (
{
layerId = "606d6ca3-1ac2-46e0-8c1a-6890279d6924";
name = Fore;
shapes = (
{
closed = 1;
nodes = (
(198,728,l),
(105,837,l),
(164,877,l),
(250,820,l),
(336,878,l),
(395,839,l),
(304,728,l)
);
}
);
width = 500;
}
);
},
{
glyphname = macron.cap;
layers = (
{
layerId = "606d6ca3-1ac2-46e0-8c1a-6890279d6924";
name = Fore;
shapes = (
{
closed = 1;
nodes = (
(124,838,l),
(376,838,l),
(376,738,l),
(124,738,l)
);
}
);
width = 500;
}
);
},
{
glyphname = dotaccent.cap;
layers = (
{
layerId = "606d6ca3-1ac2-46e0-8c1a-6890279d6924";
name = Fore;
shapes = (
{
closed = 1;
nodes = (
(315,865,l),
(315,730,l),
(183,730,l),
(183,865,l)
);
}
);
width = 500;
}
);
},
{
glyphname = cedilla.cap;
layers = (
{
layerId = "606d6ca3-1ac2-46e0-8c1a-6890279d6924";
name = Fore;
shapes = (
{
closed = 1;
nodes = (
(194,-132,l),
(194,-60,l),
(227,15,l),
(311,15,l),
(282,-60,l),
(297,-73,o),
(304,-81.5,q),
(326,-108.2143,o),
(326,-146.1071,q),
(326,-184,o),
(308,-213,q),
(290,-242,o),
(262,-260,q),
(174,-260,l),
(174,-179,l),
(219,-179,l),
(228,-173,o),
(228.5,-156,q),
(229,-139,o),
(219,-132,q)
);
}
);
width = 500;
}
);
},
{
glyphname = hungarumlaut.cap;
layers = (
{
layerId = "606d6ca3-1ac2-46e0-8c1a-6890279d6924";
name = Fore;
shapes = (
{
closed = 1;
nodes = (
(334,939,l),
(421,872,l),
(289,729,l),
(218,779,l)
);
},
{
closed = 1;
nodes = (
(174,959,l),
(268,900,l),
(149,745,l),
(73,789,l)
);
}
);
width = 500;
}
);
},
{
glyphname = apostrophe;
layers = (
{
layerId = "606d6ca3-1ac2-46e0-8c1a-6890279d6924";
name = Fore;
shapes = (
{
closed = 1;
nodes = (
(187,663,l),
(311,663,l),
(311,631,l),
(311,558,o),
(298.5,521,q),
(286,484,o),
(246,430,q),
(198,456,l),
(227,501,o),
(236,540,q),
(187,540,l)
);
}
);
width = 500;
}
);
unicode = 700;
},
{
glyphname = commaaccent.cap;
layers = (
{
layerId = "606d6ca3-1ac2-46e0-8c1a-6890279d6924";
name = Fore;
shapes = (
{
closed = 1;
nodes = (
(188,-66,l),
(308,-66,l),
(308,-109,l),
(308,-185,o),
(296,-220.5,q),
(284,-256,o),
(238,-319,q),
(192,-293,l),
(221,-244,o),
(232,-203,q),
(188,-203,l)
);
}
);
width = 500;
}
);
},
{
glyphname = breve.cap;
layers = (
{
layerId = "606d6ca3-1ac2-46e0-8c1a-6890279d6924";
name = Fore;
shapes = (
{
closed = 1;
nodes = (
(195,879,l),
(205,840,o),
(231,827,q),
(270,827,l),
(296,840,o),
(306,879,q),
(399,879,l),
(395,771,o),
(294,730,q),
(208,730,l),
(109,770,o),
(103,879,q)
);
}
);
width = 500;
}
);
},
{
glyphname = caron.alt;
layers = (
{
layerId = "606d6ca3-1ac2-46e0-8c1a-6890279d6924";
name = Fore;
shapes = (
{
closed = 1;
nodes = (
(286,700,l),
(266,501,l),
(183,501,l),
(183,700,l)
);
}
);
width = 500;
}
);
},
{
glyphname = ogonek.cap;
layers = (
{
layerId = "606d6ca3-1ac2-46e0-8c1a-6890279d6924";
name = Fore;
shapes = (
{
closed = 1;
nodes = (
(334,0,l),
(270,-127,l),
(274,-132,l),
(340,-132,l),
(340,-227,l),
(187,-227,l),
(150,-204,o),
(150,-159,q),
(150,-130,o),
(162,-106,q),
(176.5,-77,l),
(180,-70,o),
(198,-40,q),
(228,12,l)
);
}
);
width = 500;
}
);
},
{
glyphname = ff;
kernLeft = f.2;
kernRight = f;
layers = (
{
layerId = "606d6ca3-1ac2-46e0-8c1a-6890279d6924";
name = Fore;
shapes = (
{
closed = 1;
nodes = (
(291,700,l),
(291,595,l),
(231,595,l),
(197,574,o),
(197,511,q),
(321,511,l),
(321,641,o),
(434,700,q),
(578,700,l),
(578,595,l),
(488,595,l),
(454,574,o),
(454,511,q),
(558,511,l),
(558,406,l),
(454,406,l),
(454,0,l),
(321,0,l),
(321,406,l),
(197,406,l),
(197,0,l),
(64,0,l),
(64,406,l),
(9,406,l),
(9,511,l),
(64,511,l),
(64,641,o),
(177,700,q)
);
}
);
width = 567;
}
);
unicode = 64256;
},
{
glyphname = fi;
kernLeft = f.2;
layers = (
{
layerId = "606d6ca3-1ac2-46e0-8c1a-6890279d6924";
name = Fore;
shapes = (
{
closed = 1;
nodes = (
(281,700,l),
(281,595,l),
(231,595,l),
(197,574,o),
(197,511,q),
(453,511,l),
(453,0,l),
(321,0,l),
(321,406,l),
(197,406,l),
(197,0,l),
(64,0,l),
(64,406,l),
(9,406,l),
(9,511,l),
(64,511,l),
(64,641,o),
(177,700,q)
);
},
{
closed = 1;
nodes = (
(453,700,l),
(453,565,l),
(321,565,l),
(321,700,l)
);
}
);
width = 496;
}
);
unicode = 64257;
},
{
glyphname = fl;
kernLeft = f.2;
layers = (
{
layerId = "606d6ca3-1ac2-46e0-8c1a-6890279d6924";
name = Fore;
shapes = (
{
closed = 1;
nodes = (
(453,0,l),
(321,0,l),
(321,406,l),
(197,406,l),
(197,0,l),
(64,0,l),
(64,406,l),
(9,406,l),
(9,511,l),
(64,511,l),
(64,641,o),
(177,700,q),
(280,700,l),
(280,595,l),
(231,595,l),
(197,574,o),
(197,511,q),
(321,511,l),
(321,700,l),
(453,700,l)
);
}
);
width = 496;
}
);
unicode = 64258;
},
{
glyphname = ffi;
kernLeft = f.2;
layers = (
{
layerId = "606d6ca3-1ac2-46e0-8c1a-6890279d6924";
name = Fore;
shapes = (
{
closed = 1;
nodes = (
(538,700,l),
(538,595,l),
(488,595,l),
(454,574,o),
(454,511,q),
(710,511,l),
(710,0,l),
(578,0,l),
(578,406,l),
(454,406,l),
(454,0,l),
(321,0,l),
(321,406,l),
(197,406,l),
(197,0,l),
(64,0,l),
(64,406,l),
(9,406,l),
(9,511,l),
(64,511,l),
(64,641,o),
(177,700,q),
(291,700,l),
(291,595,l),
(231,595,l),
(197,574,o),
(197,511,q),
(321,511,l),
(321,641,o),
(434,700,q)
);
},
{
closed = 1;
nodes = (
(710,700,l),
(710,565,l),
(578,565,l),
(578,700,l)
);
}
);
width = 753;
}
);
unicode = 64259;
},
{
glyphname = ffl;
kernLeft = f.2;
layers = (
{
layerId = "606d6ca3-1ac2-46e0-8c1a-6890279d6924";
name = Fore;
shapes = (
{
closed = 1;
nodes = (
(709,0,l),
(577,0,l),
(577,406,l),
(453,406,l),
(453,0,l),
(320,0,l),
(320,406,l),
(197,406,l),
(197,0,l),
(64,0,l),
(64,406,l),
(9,406,l),
(9,511,l),
(64,511,l),
(64,641,o),
(177,700,q),
(291,700,l),
(291,595,l),
(231,595,l),
(197,574,o),
(197,511,q),
(320,511,l),
(320,641,o),
(433,700,q),
(536,700,l),
(536,595,l),
(487,595,l),
(453,574,o),
(453,511,q),
(577,511,l),
(577,700,l),
(709,700,l)
);
}
);
width = 752;
}
);
unicode = 64260;
},
{
glyphname = Aacute;
kernLeft = A.2;
kernRight = A;
layers = (
{
layerId = "606d6ca3-1ac2-46e0-8c1a-6890279d6924";
name = Fore;
shapes = (
{
closed = 1;
nodes = (
(325,111,l),
(167,111,l),
(146,0,l),
(10,0,l),
(145,700,l),
(352,700,l),
(480,0,l),
(346,0,l)
);
},
{
closed = 1;
nodes = (
(205,337,l),
(183,218,l),
(308,218,l),
(285,337,l),
(246,570,l),
(244,570,l)
);
},
{
closed = 1;
nodes = (
(342,899,l),
(380,788,l),
(191,730,l),
(159,817,l)
);
}
);
width = 490;
}
);
unicode = 193;
},
{
glyphname = Abreve;
kernLeft = A.2;
kernRight = A;
layers = (
{
layerId = "606d6ca3-1ac2-46e0-8c1a-6890279d6924";
name = Fore;
shapes = (
{
closed = 1;
nodes = (
(325,111,l),
(167,111,l),
(146,0,l),
(10,0,l),
(145,700,l),
(352,700,l),
(480,0,l),
(346,0,l)
);
},
{
closed = 1;
nodes = (
(205,337,l),
(183,218,l),
(308,218,l),
(285,337,l),
(246,570,l),
(244,570,l)
);
},
{
closed = 1;
nodes = (
(190,879,l),
(200,840,o),
(226,827,q),
(265,827,l),
(291,840,o),
(301,879,q),
(394,879,l),
(390,771,o),
(289,730,q),
(203,730,l),
(104,770,o),
(98,879,q)
);
}
);
width = 490;
}
);
unicode = 258;
},
{
glyphname = Acircumflex;
kernLeft = A.2;
kernRight = A;
layers = (
{
layerId = "606d6ca3-1ac2-46e0-8c1a-6890279d6924";
name = Fore;
shapes = (
{
closed = 1;
nodes = (
(325,111,l),
(167,111,l),
(146,0,l),
(10,0,l),
(145,700,l),
(352,700,l),
(480,0,l),
(346,0,l)
);
},
{
closed = 1;
nodes = (
(205,337,l),
(183,218,l),
(308,218,l),
(285,337,l),
(246,570,l),
(244,570,l)
);
},
{
closed = 1;
nodes = (
(299,878,l),
(390,767,l),
(331,728,l),
(245,786,l),
(159,729,l),
(100,769,l),
(193,878,l)
);
}
);
width = 490;
}
);
unicode = 194;
},
{
glyphname = Adieresis;
kernLeft = A.2;
kernRight = A;
layers = (
{
layerId = "606d6ca3-1ac2-46e0-8c1a-6890279d6924";
name = Fore;
shapes = (
{
closed = 1;
nodes = (
(325,111,l),
(167,111,l),
(146,0,l),
(10,0,l),
(145,700,l),
(352,700,l),
(480,0,l),
(346,0,l)
);
},
{
closed = 1;
nodes = (
(205,337,l),
(183,218,l),
(308,218,l),
(285,337,l),
(246,570,l),
(244,570,l)
);
},
{
closed = 1;
nodes = (
(93,865,l),
(225,865,l),
(225,730,l),
(93,730,l)
);
},
{
closed = 1;
nodes = (
(266,865,l),
(398,865,l),
(398,730,l),
(266,730,l)
);
}
);
width = 490;
}
);
unicode = 196;
},
{
glyphname = Agrave;
kernLeft = A.2;
kernRight = A;
layers = (
{
layerId = "606d6ca3-1ac2-46e0-8c1a-6890279d6924";
name = Fore;
shapes = (
{
closed = 1;
nodes = (
(325,111,l),
(167,111,l),
(146,0,l),
(10,0,l),
(145,700,l),
(352,700,l),
(480,0,l),
(346,0,l)
);
},
{
closed = 1;
nodes = (
(205,337,l),
(183,218,l),
(308,218,l),
(285,337,l),
(246,570,l),
(244,570,l)
);
},
{
closed = 1;
nodes = (
(353,817,l),
(321,730,l),
(131,788,l),
(170,899,l)
);
}
);
width = 490;
}
);
unicode = 192;
},
{
glyphname = Amacron;
kernLeft = A.2;
kernRight = A;
layers = (
{
layerId = "606d6ca3-1ac2-46e0-8c1a-6890279d6924";
name = Fore;
shapes = (
{
closed = 1;
nodes = (
(325,111,l),
(167,111,l),
(146,0,l),
(10,0,l),
(145,700,l),
(352,700,l),
(480,0,l),
(346,0,l)
);
},
{
closed = 1;
nodes = (
(205,337,l),
(183,218,l),
(308,218,l),
(285,337,l),
(246,570,l),
(244,570,l)
);
},
{
closed = 1;
nodes = (
(119,838,l),
(371,838,l),
(371,738,l),
(119,738,l)
);
}
);
width = 490;
}
);
unicode = 256;
},
{
glyphname = Aogonek;
kernLeft = A.2;
kernRight = A;
layers = (
{
layerId = "606d6ca3-1ac2-46e0-8c1a-6890279d6924";
name = Fore;
shapes = (
{
closed = 1;
nodes = (
(325,111,l),
(167,111,l),
(146,0,l),
(10,0,l),
(145,700,l),
(352,700,l),
(480,0,l),
(417,-103,l),
(411,-113,o),
(411,-120,q),
(411,-127,o),
(421,-127,q),
(471,-127,l),
(471,-227,l),
(328,-227,l),
(291,-204,o),
(291,-158,q),
(291,-112,o),
(341,-40,q),
(367,0,l),
(346,0,l)
);
},
{
closed = 1;
nodes = (
(205,337,l),
(183,218,l),
(308,218,l),
(285,337,l),
(246,570,l),
(244,570,l)
);
}
);
width = 490;
}
);
unicode = 260;
},
{
glyphname = Aring;
kernLeft = A.2;
kernRight = A;
layers = (
{
layerId = "606d6ca3-1ac2-46e0-8c1a-6890279d6924";
name = Fore;
shapes = (
{
closed = 1;
nodes = (
(292,892,l),
(372,853,o),
(372,767,q),
(372,729,o),
(352,698,q),
(480,0,l),
(346,0,l),
(325,111,l),
(167,111,l),
(146,0,l),
(10,0,l),
(144,694,l),
(122,726,o),
(122,767,q),
(122,853,o),
(202,892,q)
);
},
{
closed = 1;
nodes = (
(205,337,l),
(183,218,l),
(308,218,l),
(285,337,l),
(246,570,l),
(244,570,l)
);
},
{
closed = 1;
nodes = (
(265,719,l),
(286,740,o),
(286,769,q),
(286,798,o),
(265,817,q),
(228,817,l),
(208,797,o),
(208,768,q),
(208,739,o),
(228,719,q)
);
}
);
width = 490;
}
);
unicode = 197;
},
{
glyphname = Atilde;
kernLeft = A.2;
kernRight = A;
layers = (
{
layerId = "606d6ca3-1ac2-46e0-8c1a-6890279d6924";
name = Fore;
shapes = (
{
closed = 1;
nodes = (
(325,111,l),
(167,111,l),
(146,0,l),
(10,0,l),
(145,700,l),
(352,700,l),
(480,0,l),
(346,0,l)
);
},
{
closed = 1;
nodes = (
(205,337,l),
(183,218,l),
(308,218,l),
(285,337,l),
(246,570,l),
(244,570,l)
);
},
{
closed = 1;
nodes = (
(196,759,l),
(175,759,o),
(114,736,q),
(114,841,l),
(178,868,o),
(200,868,q),
(297,841,l),
(317,841,o),
(376,855,q),
(376,748,l),
(315,733,o),
(292,734,q)
);
}
);
width = 490;
}
);
unicode = 195;
},
{
glyphname = Cacute;
kernLeft = C.2;
kernRight = C;
layers = (
{
layerId = "606d6ca3-1ac2-46e0-8c1a-6890279d6924";
name = Fore;
shapes = (
{
closed = 1;
nodes = (
(418,116,l),
(418,0,l),
(164,0,l),
(98,62,o),
(64,157,q),
(30,252,o),
(30,352.5,q),
(30,453,o),
(68,546,q),
(106,639,o),
(181,700,q),
(418,700,l),
(418,580,l),
(242,580,l),
(215,549,o),
(195.5,480,q),
(176,411,o),
(176,348,q),
(176,285,o),
(195.5,216,q),
(215,147,o),
(242,116,q)
);
},
{
closed = 1;
nodes = (
(382,899,l),
(420,788,l),
(231,730,l),
(199,817,l)
);
}
);
width = 443;
}
);
unicode = 262;
},
{
glyphname = Ccaron;
kernLeft = C.2;
kernRight = C;
layers = (
{
layerId = "606d6ca3-1ac2-46e0-8c1a-6890279d6924";
name = Fore;
shapes = (
{
closed = 1;
nodes = (
(418,116,l),
(418,0,l),
(164,0,l),
(98,62,o),
(64,157,q),
(30,252,o),
(30,352.5,q),
(30,453,o),
(68,546,q),
(106,639,o),
(181,700,q),
(418,700,l),
(418,580,l),
(242,580,l),
(215,549,o),
(195.5,480,q),
(176,411,o),
(176,348,q),
(176,285,o),
(195.5,216,q),
(215,147,o),
(242,116,q)
);
},
{
closed = 1;
nodes = (
(234,728,l),
(141,837,l),
(200,877,l),
(286,820,l),
(372,878,l),
(431,839,l),
(340,728,l)
);
}
);
width = 443;
}
);
unicode = 268;
},
{
glyphname = Ccedilla;
kernLeft = C.2;
kernRight = C;
layers = (
{
layerId = "606d6ca3-1ac2-46e0-8c1a-6890279d6924";
name = Fore;
shapes = (
{
closed = 1;
nodes = (
(199,-132,l),
(199,-60,l),
(225,0,l),
(164,0,l),
(98,62,o),
(64,157,q),
(30,252,o),
(30,352.5,q),
(30,453,o),
(68,546,q),
(106,639,o),
(181,700,q),
(418,700,l),
(418,580,l),
(242,580,l),
(215,549,o),
(195.5,480,q),
(176,411,o),
(176,348,q),
(176,285,o),
(195.5,216,q),
(215,147,o),
(242,116,q),
(418,116,l),
(418,0,l),
(310,0,l),
(287,-60,l),
(302,-73,o),
(309,-81.5,q),
(331,-108.2143,o),
(331,-146.1071,q),
(331,-184,o),
(313,-213,q),
(295,-242,o),
(267,-260,q),
(179,-260,l),
(179,-179,l),
(224,-179,l),
(233,-173,o),
(233.5,-156,q),
(234,-139,o),
(224,-132,q)
);
}
);
width = 443;
}
);
unicode = 199;
},
{
glyphname = Ccircumflex;
kernLeft = C.2;
kernRight = C;
layers = (
{
layerId = "606d6ca3-1ac2-46e0-8c1a-6890279d6924";
name = Fore;
shapes = (
{
closed = 1;
nodes = (
(418,116,l),
(418,0,l),
(164,0,l),
(98,62,o),
(64,157,q),
(30,252,o),
(30,352.5,q),
(30,453,o),
(68,546,q),
(106,639,o),
(181,700,q),
(418,700,l),
(418,580,l),
(242,580,l),
(215,549,o),
(195.5,480,q),
(176,411,o),
(176,348,q),
(176,285,o),
(195.5,216,q),
(215,147,o),
(242,116,q)
);
},
{
closed = 1;
nodes = (
(330,878,l),
(421,767,l),
(362,728,l),
(276,786,l),
(190,729,l),
(131,769,l),
(224,878,l)
);
}
);
width = 443;
}
);
unicode = 264;
},
{
glyphname = Cdotaccent;
kernLeft = C.2;
kernRight = C;
layers = (
{
layerId = "606d6ca3-1ac2-46e0-8c1a-6890279d6924";
name = Fore;
shapes = (
{
closed = 1;
nodes = (
(418,116,l),
(418,0,l),
(164,0,l),
(98,62,o),
(64,157,q),
(30,252,o),
(30,352.5,q),
(30,453,o),
(68,546,q),
(106,639,o),
(181,700,q),
(418,700,l),
(418,580,l),
(242,580,l),
(215,549,o),
(195.5,480,q),
(176,411,o),
(176,348,q),
(176,285,o),
(195.5,216,q),
(215,147,o),
(242,116,q)
);
},
{
closed = 1;
nodes = (
(365,865,l),
(365,730,l),
(233,730,l),
(233,865,l)
);
}
);
width = 443;
}
);
unicode = 266;
},
{
glyphname = Dcaron;
kernRight = D;
layers = (
{
layerId = "606d6ca3-1ac2-46e0-8c1a-6890279d6924";
name = Fore;
shapes = (
{
closed = 1;
nodes = (
(184,116,l),
(184,580,l),
(276,580,l),
(335,508,o),
(335,351,q),
(335,285,o),
(318.5,218,q),
(302,151,o),
(274,116,q)
);
},
{
closed = 1;
nodes = (
(48,0,l),
(347,0,l),
(480,143,o),
(480,358.5,q),
(480,574,o),
(338,700,q),
(48,700,l)
);
},
{
closed = 1;
nodes = (
(167,728,l),
(74,837,l),
(133,877,l),
(219,820,l),
(305,878,l),
(364,839,l),
(273,728,l)
);
}
);
width = 510;
}
);
unicode = 270;
},
{
glyphname = Eacute;
kernRight = E;
layers = (
{
layerId = "606d6ca3-1ac2-46e0-8c1a-6890279d6924";
name = Fore;
shapes = (
{
closed = 1;
nodes = (
(48,0,l),
(411,0,l),
(411,116,l),
(185,116,l),
(185,297,l),
(383,297,l),
(383,413,l),
(185,413,l),
(185,580,l),
(407,580,l),
(407,700,l),
(48,700,l)
);
},
{
closed = 1;
nodes = (
(311,899,l),
(349,788,l),
(160,730,l),
(128,817,l)
);
}
);
width = 440;
}
);
unicode = 201;
},
{
glyphname = Ebreve;
kernRight = E;
layers = (
{
layerId = "606d6ca3-1ac2-46e0-8c1a-6890279d6924";
name = Fore;
shapes = (
{
closed = 1;
nodes = (
(48,700,l),
(407,700,l),
(407,580,l),
(185,580,l),
(185,413,l),
(383,413,l),
(383,297,l),
(185,297,l),
(185,116,l),
(411,116,l),
(411,0,l),
(48,0,l)
);
},
{
closed = 1;
nodes = (
(173,879,l),
(183,840,o),
(209,827,q),
(248,827,l),
(274,840,o),
(284,879,q),
(377,879,l),
(373,771,o),
(272,730,q),
(186,730,l),
(87,770,o),
(81,879,q)
);
}
);
width = 440;
}
);
unicode = 276;
},
{
glyphname = Ecaron;
kernRight = E;
layers = (
{
layerId = "606d6ca3-1ac2-46e0-8c1a-6890279d6924";
name = Fore;
shapes = (
{
closed = 1;
nodes = (
(48,0,l),
(411,0,l),
(411,116,l),
(185,116,l),
(185,297,l),
(383,297,l),
(383,413,l),
(185,413,l),
(185,580,l),
(407,580,l),
(407,700,l),
(48,700,l)
);
},
{
closed = 1;
nodes = (
(181,728,l),
(88,837,l),
(147,877,l),
(233,820,l),
(319,878,l),
(378,839,l),
(287,728,l)
);
}
);
width = 440;
}
);
unicode = 282;
},
{
glyphname = Ecircumflex;
kernRight = E;
layers = (
{
layerId = "606d6ca3-1ac2-46e0-8c1a-6890279d6924";
name = Fore;
shapes = (
{
closed = 1;
nodes = (
(48,0,l),
(411,0,l),
(411,116,l),
(185,116,l),
(185,297,l),
(383,297,l),
(383,413,l),
(185,413,l),
(185,580,l),
(407,580,l),
(407,700,l),
(48,700,l)
);
},
{
closed = 1;
nodes = (
(284,878,l),
(375,767,l),
(316,728,l),
(230,786,l),
(144,729,l),
(85,769,l),
(178,878,l)
);
}
);
width = 440;
}
);
unicode = 202;
},
{
glyphname = Edieresis;
kernRight = E;
layers = (
{
layerId = "606d6ca3-1ac2-46e0-8c1a-6890279d6924";
name = Fore;
shapes = (
{
closed = 1;
nodes = (
(48,0,l),
(411,0,l),
(411,116,l),
(185,116,l),
(185,297,l),
(383,297,l),
(383,413,l),
(185,413,l),
(185,580,l),
(407,580,l),
(407,700,l),
(48,700,l)
);
},
{
closed = 1;
nodes = (
(75,865,l),
(207,865,l),
(207,730,l),
(75,730,l)
);
},
{
closed = 1;
nodes = (
(248,865,l),
(380,865,l),
(380,730,l),
(248,730,l)
);
}
);
width = 440;
}
);
unicode = 203;
},
{
glyphname = Edotaccent;
kernRight = E;
layers = (
{
layerId = "606d6ca3-1ac2-46e0-8c1a-6890279d6924";
name = Fore;
shapes = (
{
closed = 1;
nodes = (
(48,0,l),
(411,0,l),
(411,116,l),
(185,116,l),
(185,297,l),
(383,297,l),
(383,413,l),
(185,413,l),
(185,580,l),
(407,580,l),
(407,700,l),
(48,700,l)
);
},
{
closed = 1;
nodes = (
(298,865,l),
(298,730,l),
(166,730,l),
(166,865,l)
);
}
);
width = 440;
}
);
unicode = 278;
},
{
glyphname = Egrave;
kernRight = E;
layers = (
{
layerId = "606d6ca3-1ac2-46e0-8c1a-6890279d6924";
name = Fore;
shapes = (
{
closed = 1;
nodes = (
(48,0,l),
(411,0,l),
(411,116,l),
(185,116,l),
(185,297,l),
(383,297,l),
(383,413,l),
(185,413,l),
(185,580,l),
(407,580,l),
(407,700,l),
(48,700,l)
);
},
{
closed = 1;
nodes = (
(342,817,l),
(310,730,l),
(120,788,l),
(159,899,l)
);
}
);
width = 440;
}
);
unicode = 200;
},
{
glyphname = Emacron;
kernRight = E;
layers = (
{
layerId = "606d6ca3-1ac2-46e0-8c1a-6890279d6924";
name = Fore;
shapes = (
{
closed = 1;
nodes = (
(48,0,l),
(411,0,l),
(411,116,l),
(185,116,l),
(185,297,l),
(383,297,l),
(383,413,l),
(185,413,l),
(185,580,l),
(407,580,l),
(407,700,l),
(48,700,l)
);
},
{
closed = 1;
nodes = (
(104,838,l),
(356,838,l),
(356,738,l),
(104,738,l)
);
}
);
width = 440;
}
);
unicode = 274;
},
{
glyphname = Eogonek;
kernRight = E;
layers = (
{
layerId = "606d6ca3-1ac2-46e0-8c1a-6890279d6924";
name = Fore;
shapes = (
{
closed = 1;
nodes = (
(48,700,l),
(407,700,l),
(407,580,l),
(185,580,l),
(185,413,l),
(383,413,l),
(383,297,l),
(185,297,l),
(185,116,l),
(411,116,l),
(411,0,l),
(336,-103,l),
(330,-113,o),
(330,-120,q),
(330,-127,o),
(340,-127,q),
(395,-127,l),
(395,-227,l),
(252,-227,l),
(215,-204,o),
(215,-157.5,q),
(215,-111,o),
(262,-47,q),
(297,0,l),
(48,0,l)
);
}
);
width = 440;
}
);
unicode = 280;
},
{
glyphname = Gbreve;
kernLeft = C.2;
kernRight = G;
layers = (
{
layerId = "606d6ca3-1ac2-46e0-8c1a-6890279d6924";
name = Fore;
shapes = (
{
closed = 1;
nodes = (
(168,0,l),
(96,66,o),
(63,157,q),
(30,248,o),
(30,347.5,q),
(30,447,o),
(70,544,q),
(110,641,o),
(182,700,q),
(425,700,l),
(425,580,l),
(239,580,l),
(213,550,o),
(194,485.5,q),
(175,421,o),
(175,348.5,q),
(175,276,o),
(192.5,210.5,q),
(210,145,o),
(236,116,q),
(332,116,l),
(332,388,l),
(464,388,l),
(464,220,l),
(464,82,o),
(380,0,q)
);
},
{
closed = 1;
nodes = (
(217,879,l),
(227,840,o),
(253,827,q),
(292,827,l),
(318,840,o),
(328,879,q),
(421,879,l),
(417,771,o),
(316,730,q),
(230,730,l),
(131,770,o),
(125,879,q)
);
}
);
width = 494;
}
);
unicode = 286;
},
{
glyphname = Gcircumflex;
kernLeft = C.2;
kernRight = G;
layers = (
{
layerId = "606d6ca3-1ac2-46e0-8c1a-6890279d6924";
name = Fore;
shapes = (
{
closed = 1;
nodes = (
(168,0,l),
(96,66,o),
(63,157,q),
(30,248,o),
(30,347.5,q),
(30,447,o),
(70,544,q),
(110,641,o),
(182,700,q),
(425,700,l),
(425,580,l),
(239,580,l),
(213,550,o),
(194,485.5,q),
(175,421,o),
(175,348.5,q),
(175,276,o),
(192.5,210.5,q),
(210,145,o),
(236,116,q),
(332,116,l),
(332,388,l),
(464,388,l),
(464,220,l),
(464,82,o),
(380,0,q)
);
},
{
closed = 1;
nodes = (
(321,878,l),
(412,767,l),
(353,728,l),
(267,786,l),
(181,729,l),
(122,769,l),
(215,878,l)
);
}
);
width = 494;
}
);
unicode = 284;
},
{
glyphname = Gcommaaccent;
kernLeft = C.2;
kernRight = G;
layers = (
{
layerId = "606d6ca3-1ac2-46e0-8c1a-6890279d6924";
name = Fore;
shapes = (
{
closed = 1;
nodes = (
(168,0,l),
(96,66,o),
(63,157,q),
(30,248,o),
(30,347.5,q),
(30,447,o),
(70,544,q),
(110,641,o),
(182,700,q),
(425,700,l),
(425,580,l),
(239,580,l),
(213,550,o),
(194,485.5,q),
(175,421,o),
(175,348.5,q),
(175,276,o),
(192.5,210.5,q),
(210,145,o),
(236,116,q),
(332,116,l),
(332,388,l),
(464,388,l),
(464,220,l),
(464,82,o),
(380,0,q)
);
},
{
closed = 1;
nodes = (
(213,-66,l),
(333,-66,l),
(333,-109,l),
(333,-185,o),
(321,-220.5,q),
(309,-256,o),
(263,-319,q),
(217,-293,l),
(246,-244,o),
(257,-203,q),
(213,-203,l)
);
}
);
width = 494;
}
);
unicode = 290;
},
{
glyphname = Gdotaccent;
kernLeft = C.2;
kernRight = G;
layers = (
{
layerId = "606d6ca3-1ac2-46e0-8c1a-6890279d6924";
name = Fore;
shapes = (
{
closed = 1;
nodes = (
(168,0,l),
(96,66,o),
(63,157,q),
(30,248,o),
(30,347.5,q),
(30,447,o),
(70,544,q),
(110,641,o),
(182,700,q),
(425,700,l),
(425,580,l),
(239,580,l),
(213,550,o),
(194,485.5,q),
(175,421,o),
(175,348.5,q),
(175,276,o),
(192.5,210.5,q),
(210,145,o),
(236,116,q),
(332,116,l),
(332,388,l),
(464,388,l),
(464,220,l),
(464,82,o),
(380,0,q)
);
},
{
closed = 1;
nodes = (
(342,865,l),
(342,730,l),
(210,730,l),
(210,865,l)
);
}
);
width = 494;
}
);
unicode = 288;
},
{
glyphname = Hcircumflex;
layers = (
{
layerId = "606d6ca3-1ac2-46e0-8c1a-6890279d6924";
name = Fore;
shapes = (
{
closed = 1;
nodes = (
(185,0,l),
(185,290,l),
(345,290,l),
(345,0,l),
(482,0,l),
(482,700,l),
(345,700,l),
(345,418,l),
(185,418,l),
(185,700,l),
(48,700,l),
(48,0,l)
);
},
{
closed = 1;
nodes = (
(319,878,l),
(410,767,l),
(351,728,l),
(265,786,l),
(179,729,l),
(120,769,l),
(213,878,l)
);
}
);
width = 530;
}
);
unicode = 292;
},
{
glyphname = Iacute;
layers = (
{
layerId = "606d6ca3-1ac2-46e0-8c1a-6890279d6924";
name = Fore;
shapes = (
{
closed = 1;
nodes = (
(48,0,l),
(185,0,l),
(185,700,l),
(48,700,l)
);
},
{
closed = 1;
nodes = (
(213,899,l),
(251,788,l),
(62,730,l),
(30,817,l)
);
}
);
width = 233;
}
);
unicode = 205;
},
{
glyphname = Ibreve;
layers = (
{
layerId = "606d6ca3-1ac2-46e0-8c1a-6890279d6924";
name = Fore;
shapes = (
{
closed = 1;
nodes = (
(48,700,l),
(185,700,l),
(185,0,l),
(48,0,l)
);
},
{
closed = 1;
nodes = (
(60,879,l),
(70,840,o),
(96,827,q),
(135,827,l),
(161,840,o),
(171,879,q),
(264,879,l),
(260,771,o),
(159,730,q),
(73,730,l),
(-26,770,o),
(-32,879,q)
);
}
);
width = 233;
}
);
unicode = 300;
},
{
glyphname = Icircumflex;
layers = (
{
layerId = "606d6ca3-1ac2-46e0-8c1a-6890279d6924";
name = Fore;
shapes = (
{
closed = 1;
nodes = (
(48,0,l),
(185,0,l),
(185,700,l),
(48,700,l)
);
},
{
closed = 1;
nodes = (
(170,878,l),
(261,767,l),
(202,728,l),
(116,786,l),
(30,729,l),
(-29,769,l),
(64,878,l)
);
}
);
width = 233;
}
);
unicode = 206;
},
{
glyphname = Idieresis;
layers = (
{
layerId = "606d6ca3-1ac2-46e0-8c1a-6890279d6924";
name = Fore;
shapes = (
{
closed = 1;
nodes = (
(48,0,l),
(185,0,l),
(185,700,l),
(48,700,l)
);
},
{
closed = 1;
nodes = (
(-36,865,l),
(96,865,l),
(96,730,l),
(-36,730,l)
);
},
{
closed = 1;
nodes = (
(137,865,l),
(269,865,l),
(269,730,l),
(137,730,l)
);
}
);
width = 233;
}
);
unicode = 207;
},
{
glyphname = Idotaccent;
layers = (
{
layerId = "606d6ca3-1ac2-46e0-8c1a-6890279d6924";
name = Fore;
shapes = (
{
closed = 1;
nodes = (
(48,0,l),
(185,0,l),
(185,700,l),
(48,700,l)
);
},
{
closed = 1;
nodes = (
(182,865,l),
(182,730,l),
(50,730,l),
(50,865,l)
);
}
);
width = 233;
}
);
unicode = 304;
},
{
glyphname = Igrave;
layers = (
{
layerId = "606d6ca3-1ac2-46e0-8c1a-6890279d6924";
name = Fore;
shapes = (
{
closed = 1;
nodes = (
(48,0,l),
(185,0,l),
(185,700,l),
(48,700,l)
);
},
{
closed = 1;
nodes = (
(195,817,l),
(163,730,l),
(-27,788,l),
(12,899,l)
);
}
);
width = 233;
}
);
unicode = 204;
},
{
glyphname = Imacron;
layers = (
{
layerId = "606d6ca3-1ac2-46e0-8c1a-6890279d6924";
name = Fore;
shapes = (
{
closed = 1;
nodes = (
(48,0,l),
(185,0,l),
(185,700,l),
(48,700,l)
);
},
{
closed = 1;
nodes = (
(-10,838,l),
(242,838,l),
(242,738,l),
(-10,738,l)
);
}
);
width = 233;
}
);
unicode = 298;
},
{
glyphname = Iogonek;
layers = (
{
layerId = "606d6ca3-1ac2-46e0-8c1a-6890279d6924";
name = Fore;
shapes = (
{
closed = 1;
nodes = (
(185,0,l),
(121,-127,l),
(125,-132,l),
(191,-132,l),
(191,-227,l),
(38,-227,l),
(1,-204,o),
(1,-159,q),
(1,-130,o),
(13,-106,q),
(27.5,-77,l),
(31,-70,o),
(49,-40,q),
(72,0,l),
(48,0,l),
(48,700,l),
(185,700,l)
);
}
);
width = 233;
}
);
unicode = 302;
},
{
glyphname = Itilde;
layers = (
{
layerId = "606d6ca3-1ac2-46e0-8c1a-6890279d6924";
name = Fore;
shapes = (
{
closed = 1;
nodes = (
(48,700,l),
(185,700,l),
(185,0,l),
(48,0,l)
);
},
{
closed = 1;
nodes = (
(67,759,l),
(46,759,o),
(-15,736,q),
(-15,841,l),
(49,868,o),
(71,868,q),
(168,841,l),
(188,841,o),
(247,855,q),
(247,748,l),
(186,733,o),
(163,734,q)
);
}
);
width = 233;
}
);
unicode = 296;
},
{
glyphname = Jcircumflex;
kernLeft = J.2;
kernRight = J;
layers = (
{
layerId = "606d6ca3-1ac2-46e0-8c1a-6890279d6924";
name = Fore;
shapes = (
{
closed = 1;
nodes = (
(119,116,l),
(137,139,o),
(142,169.5,q),
(147,200,o),
(147,293,q),
(147,700,l),
(284,700,l),
(284,340,l),
(284,273,o),
(281.5,236,q),
(279,199,o),
(269,151.5,q),
(250.2822,62.5905,o),
(174,0,q),
(16,0,l),
(16,116,l)
);
},
{
closed = 1;
nodes = (
(269,878,l),
(360,767,l),
(301,728,l),
(215,786,l),
(129,729,l),
(70,769,l),
(163,878,l)
);
}
);
width = 326;
}
);
unicode = 308;
},
{
glyphname = Kcommaaccent;
kernRight = K;
layers = (
{
layerId = "606d6ca3-1ac2-46e0-8c1a-6890279d6924";
name = Fore;
shapes = (
{
closed = 1;
nodes = (
(48,700,l),
(185,700,l),
(185,405,l),
(190,405,l),
(315,700,l),
(456,700,l),
(310,366,l),
(463,0,l),
(311,0,l),
(192,306,l),
(185,306,l),
(185,0,l),
(48,0,l)
);
},
{
closed = 1;
nodes = (
(177,-66,l),
(297,-66,l),
(297,-109,l),
(297,-185,o),
(285,-220.5,q),
(273,-256,o),
(227,-319,q),
(181,-293,l),
(210,-244,o),
(221,-203,q),
(177,-203,l)
);
}
);
width = 463;
}
);
unicode = 310;
},
{
glyphname = Lacute;
kernRight = L;
layers = (
{
layerId = "606d6ca3-1ac2-46e0-8c1a-6890279d6924";
name = Fore;
shapes = (
{
closed = 1;
nodes = (
(48,0,l),
(393,0,l),
(393,116,l),
(185,116,l),
(185,700,l),
(48,700,l)
);
},
{
closed = 1;
nodes = (
(197,899,l),
(235,788,l),
(46,730,l),
(14,817,l)
);
}
);
width = 413;
}
);
unicode = 313;
},
{
glyphname = Lcaron;
kernRight = L;
layers = (
{
layerId = "606d6ca3-1ac2-46e0-8c1a-6890279d6924";
name = Fore;
shapes = (
{
closed = 1;
nodes = (
(48,700,l),
(185,700,l),
(185,116,l),
(393,116,l),
(393,0,l),
(48,0,l)
);
},
{
closed = 1;
nodes = (
(352,700,l),
(332,501,l),
(249,501,l),
(249,700,l)
);
}
);
width = 413;
}
);
unicode = 317;
},
{
glyphname = Lcommaaccent;
kernRight = L;
layers = (
{
layerId = "606d6ca3-1ac2-46e0-8c1a-6890279d6924";
name = Fore;
shapes = (
{
closed = 1;
nodes = (
(48,700,l),
(185,700,l),
(185,116,l),
(393,116,l),
(393,0,l),
(48,0,l)
);
},
{
closed = 1;
nodes = (
(165,-66,l),
(285,-66,l),
(285,-109,l),
(285,-185,o),
(273,-220.5,q),
(261,-256,o),
(215,-319,q),
(169,-293,l),
(198,-244,o),
(209,-203,q),
(165,-203,l)
);
}
);
width = 413;
}
);
unicode = 315;
},
{
glyphname = Ldot;
kernRight = L;
layers = (
{
layerId = "606d6ca3-1ac2-46e0-8c1a-6890279d6924";
name = Fore;
shapes = (
{
closed = 1;
nodes = (
(48,700,l),
(185,700,l),
(185,116,l),
(393,116,l),
(393,0,l),
(48,0,l)
);
},
{
closed = 1;
nodes = (
(362,392,l),
(362,268,l),
(250,268,l),
(250,392,l)
);
}
);
width = 413;
}
);
unicode = 319;
},
{
glyphname = Nacute;
layers = (
{
layerId = "606d6ca3-1ac2-46e0-8c1a-6890279d6924";
name = Fore;
shapes = (
{
closed = 1;
nodes = (
(173,387,l),
(168,385,l),
(174,267,l),
(174,0,l),
(48,0,l),
(48,700,l),
(149,700,l),
(333,298,l),
(338,300,l),
(327,423,l),
(327,700,l),
(453,700,l),
(453,0,l),
(360,0,l)
);
},
{
closed = 1;
nodes = (
(352,899,l),
(390,788,l),
(201,730,l),
(169,817,l)
);
}
);
width = 501;
}
);
unicode = 323;
},
{
glyphname = Ncaron;
layers = (
{
layerId = "606d6ca3-1ac2-46e0-8c1a-6890279d6924";
name = Fore;
shapes = (
{
closed = 1;
nodes = (
(173,387,l),
(168,385,l),
(174,267,l),
(174,0,l),
(48,0,l),
(48,700,l),
(149,700,l),
(333,298,l),
(338,300,l),
(327,423,l),
(327,700,l),
(453,700,l),
(453,0,l),
(360,0,l)
);
},
{
closed = 1;
nodes = (
(193,728,l),
(100,837,l),
(159,877,l),
(245,820,l),
(331,878,l),
(390,839,l),
(299,728,l)
);
}
);
width = 501;
}
);
unicode = 327;
},
{
glyphname = Ncommaaccent;
layers = (
{
layerId = "606d6ca3-1ac2-46e0-8c1a-6890279d6924";
name = Fore;
shapes = (
{
closed = 1;
nodes = (
(173,387,l),
(168,385,l),
(174,267,l),
(174,0,l),
(48,0,l),
(48,700,l),
(149,700,l),
(333,298,l),
(338,300,l),
(327,423,l),
(327,700,l),
(453,700,l),
(453,0,l),
(360,0,l)
);
},
{
closed = 1;
nodes = (
(187,-66,l),
(307,-66,l),
(307,-109,l),
(307,-185,o),
(295,-220.5,q),
(283,-256,o),
(237,-319,q),
(191,-293,l),
(220,-244,o),
(231,-203,q),
(187,-203,l)
);
}
);
width = 501;
}
);
unicode = 325;
},
{
glyphname = Ntilde;
layers = (
{
layerId = "606d6ca3-1ac2-46e0-8c1a-6890279d6924";
name = Fore;
shapes = (
{
closed = 1;
nodes = (
(173,387,l),
(168,385,l),
(174,267,l),
(174,0,l),
(48,0,l),
(48,700,l),
(149,700,l),
(333,298,l),
(338,300,l),
(327,423,l),
(327,700,l),
(453,700,l),
(453,0,l),
(360,0,l)
);
},
{
closed = 1;
nodes = (
(196,759,l),
(175,759,o),
(114,736,q),
(114,841,l),
(178,868,o),
(200,868,q),
(297,841,l),
(317,841,o),
(376,855,q),
(376,748,l),
(315,733,o),
(292,734,q)
);
}
);
width = 501;
}
);
unicode = 209;
},
{
glyphname = Oacute;
kernLeft = C.2;
kernRight = D;
layers = (
{
layerId = "606d6ca3-1ac2-46e0-8c1a-6890279d6924";
name = Fore;
shapes = (
{
closed = 1;
nodes = (
(358,899,l),
(396,788,l),
(207,730,l),
(175,817,l)
);
},
{
closed = 1;
nodes = (
(444,643,o),
(478,547,q),
(512,451,o),
(512,349.5,q),
(512,248,o),
(479,157,q),
(446,66,o),
(374,0,q),
(168,0,l),
(96,66,o),
(63,157,q),
(30,248,o),
(30,349.5,q),
(30,451,o),
(64,547,q),
(98,643,o),
(168,700,q),
(374,700,l)
);
},
{
closed = 1;
nodes = (
(307,116,l),
(332,145,o),
(349.5,210.5,q),
(367,276,o),
(367,349,q),
(367,422,o),
(350,486.5,q),
(333,551,o),
(308,580,q),
(235,580,l),
(210,551,o),
(192.5,486.5,q),
(175,422,o),
(175,349,q),
(175,276,o),
(192.5,210.5,q),
(210,145,o),
(235,116,q)
);
}
);
width = 542;
}
);
unicode = 211;
},
{
glyphname = Obreve;
kernLeft = C.2;
kernRight = D;
layers = (
{
layerId = "606d6ca3-1ac2-46e0-8c1a-6890279d6924";
name = Fore;
shapes = (
{
closed = 1;
nodes = (
(216,879,l),
(226,840,o),
(252,827,q),
(291,827,l),
(317,840,o),
(327,879,q),
(420,879,l),
(416,771,o),
(315,730,q),
(229,730,l),
(130,770,o),
(124,879,q)
);
},
{
closed = 1;
nodes = (
(444,643,o),
(478,547,q),
(512,451,o),
(512,349.5,q),
(512,248,o),
(479,157,q),
(446,66,o),
(374,0,q),
(168,0,l),
(96,66,o),
(63,157,q),
(30,248,o),
(30,349.5,q),
(30,451,o),
(64,547,q),
(98,643,o),
(168,700,q),
(374,700,l)
);
},
{
closed = 1;
nodes = (
(307,116,l),
(332,145,o),
(349.5,210.5,q),
(367,276,o),
(367,349,q),
(367,422,o),
(350,486.5,q),
(333,551,o),
(308,580,q),
(235,580,l),
(210,551,o),
(192.5,486.5,q),
(175,422,o),
(175,349,q),
(175,276,o),
(192.5,210.5,q),
(210,145,o),
(235,116,q)
);
}
);
width = 542;
}
);
unicode = 334;
},
{
glyphname = Ocircumflex;
kernLeft = C.2;
kernRight = D;
layers = (
{
layerId = "606d6ca3-1ac2-46e0-8c1a-6890279d6924";
name = Fore;
shapes = (
{
closed = 1;
nodes = (
(325,878,l),
(416,767,l),
(357,728,l),
(271,786,l),
(185,729,l),
(126,769,l),
(219,878,l)
);
},
{
closed = 1;
nodes = (
(444,643,o),
(478,547,q),
(512,451,o),
(512,349.5,q),
(512,248,o),
(479,157,q),
(446,66,o),
(374,0,q),
(168,0,l),
(96,66,o),
(63,157,q),
(30,248,o),
(30,349.5,q),
(30,451,o),
(64,547,q),
(98,643,o),
(168,700,q),
(374,700,l)
);
},
{
closed = 1;
nodes = (
(307,116,l),
(332,145,o),
(349.5,210.5,q),
(367,276,o),
(367,349,q),
(367,422,o),
(350,486.5,q),
(333,551,o),
(308,580,q),
(235,580,l),
(210,551,o),
(192.5,486.5,q),
(175,422,o),
(175,349,q),
(175,276,o),
(192.5,210.5,q),
(210,145,o),
(235,116,q)
);
}
);
width = 542;
}
);
unicode = 212;
},
{
glyphname = Odieresis;
kernLeft = C.2;
kernRight = D;
layers = (
{
layerId = "606d6ca3-1ac2-46e0-8c1a-6890279d6924";
name = Fore;
shapes = (
{
closed = 1;
nodes = (
(119,865,l),
(251,865,l),
(251,730,l),
(119,730,l)
);
},
{
closed = 1;
nodes = (
(292,865,l),
(424,865,l),
(424,730,l),
(292,730,l)
);
},
{
closed = 1;
nodes = (
(444,643,o),
(478,547,q),
(512,451,o),
(512,349.5,q),
(512,248,o),
(479,157,q),
(446,66,o),
(374,0,q),
(168,0,l),
(96,66,o),
(63,157,q),
(30,248,o),
(30,349.5,q),
(30,451,o),
(64,547,q),
(98,643,o),
(168,700,q),
(374,700,l)
);
},
{
closed = 1;
nodes = (
(307,116,l),
(332,145,o),
(349.5,210.5,q),
(367,276,o),
(367,349,q),
(367,422,o),
(350,486.5,q),
(333,551,o),
(308,580,q),
(235,580,l),
(210,551,o),
(192.5,486.5,q),
(175,422,o),
(175,349,q),
(175,276,o),
(192.5,210.5,q),
(210,145,o),
(235,116,q)
);
}
);
width = 542;
}
);
unicode = 214;
},
{
glyphname = Ograve;
kernLeft = C.2;
kernRight = D;
layers = (
{
layerId = "606d6ca3-1ac2-46e0-8c1a-6890279d6924";
name = Fore;
shapes = (
{
closed = 1;
nodes = (
(359,817,l),
(327,730,l),
(137,788,l),
(176,899,l)
);
},
{
closed = 1;
nodes = (
(444,643,o),
(478,547,q),
(512,451,o),
(512,349.5,q),
(512,248,o),
(479,157,q),
(446,66,o),
(374,0,q),
(168,0,l),
(96,66,o),
(63,157,q),
(30,248,o),
(30,349.5,q),
(30,451,o),
(64,547,q),
(98,643,o),
(168,700,q),
(374,700,l)
);
},
{
closed = 1;
nodes = (
(307,116,l),
(332,145,o),
(349.5,210.5,q),
(367,276,o),
(367,349,q),
(367,422,o),
(350,486.5,q),
(333,551,o),
(308,580,q),
(235,580,l),
(210,551,o),
(192.5,486.5,q),
(175,422,o),
(175,349,q),
(175,276,o),
(192.5,210.5,q),
(210,145,o),
(235,116,q)
);
}
);
width = 542;
}
);
unicode = 210;
},
{
glyphname = Ohungarumlaut;
kernLeft = C.2;
kernRight = D;
layers = (
{
layerId = "606d6ca3-1ac2-46e0-8c1a-6890279d6924";
name = Fore;
shapes = (
{
closed = 1;
nodes = (
(406,939,l),
(493,872,l),
(361,729,l),
(290,779,l)
);
},
{
closed = 1;
nodes = (
(246,959,l),
(340,900,l),
(221,745,l),
(145,789,l)
);
},
{
closed = 1;
nodes = (
(444,643,o),
(478,547,q),
(512,451,o),
(512,349.5,q),
(512,248,o),
(479,157,q),
(446,66,o),
(374,0,q),
(168,0,l),
(96,66,o),
(63,157,q),
(30,248,o),
(30,349.5,q),
(30,451,o),
(64,547,q),
(98,643,o),
(168,700,q),
(374,700,l)
);
},
{
closed = 1;
nodes = (
(307,116,l),
(332,145,o),
(349.5,210.5,q),
(367,276,o),
(367,349,q),
(367,422,o),
(350,486.5,q),
(333,551,o),
(308,580,q),
(235,580,l),
(210,551,o),
(192.5,486.5,q),
(175,422,o),
(175,349,q),
(175,276,o),
(192.5,210.5,q),
(210,145,o),
(235,116,q)
);
}
);
width = 542;
}
);
unicode = 336;
},
{
glyphname = Omacron;
kernLeft = C.2;
kernRight = D;
layers = (
{
layerId = "606d6ca3-1ac2-46e0-8c1a-6890279d6924";
name = Fore;
shapes = (
{
closed = 1;
nodes = (
(145,838,l),
(397,838,l),
(397,738,l),
(145,738,l)
);
},
{
closed = 1;
nodes = (
(444,643,o),
(478,547,q),
(512,451,o),
(512,349.5,q),
(512,248,o),
(479,157,q),
(446,66,o),
(374,0,q),
(168,0,l),
(96,66,o),
(63,157,q),
(30,248,o),
(30,349.5,q),
(30,451,o),
(64,547,q),
(98,643,o),
(168,700,q),
(374,700,l)
);
},
{
closed = 1;
nodes = (
(307,116,l),
(332,145,o),
(349.5,210.5,q),
(367,276,o),
(367,349,q),
(367,422,o),
(350,486.5,q),
(333,551,o),
(308,580,q),
(235,580,l),
(210,551,o),
(192.5,486.5,q),
(175,422,o),
(175,349,q),
(175,276,o),
(192.5,210.5,q),
(210,145,o),
(235,116,q)
);
}
);
width = 542;
}
);
unicode = 332;
},
{
glyphname = Otilde;
kernLeft = C.2;
kernRight = D;
layers = (
{
layerId = "606d6ca3-1ac2-46e0-8c1a-6890279d6924";
name = Fore;
shapes = (
{
closed = 1;
nodes = (
(222,759,l),
(201,759,o),
(140,736,q),
(140,841,l),
(204,868,o),
(226,868,q),
(323,841,l),
(343,841,o),
(402,855,q),
(402,748,l),
(341,733,o),
(318,734,q)
);
},
{
closed = 1;
nodes = (
(444,643,o),
(478,547,q),
(512,451,o),
(512,349.5,q),
(512,248,o),
(479,157,q),
(446,66,o),
(374,0,q),
(168,0,l),
(96,66,o),
(63,157,q),
(30,248,o),
(30,349.5,q),
(30,451,o),
(64,547,q),
(98,643,o),
(168,700,q),
(374,700,l)
);
},
{
closed = 1;
nodes = (
(307,116,l),
(332,145,o),
(349.5,210.5,q),
(367,276,o),
(367,349,q),
(367,422,o),
(350,486.5,q),
(333,551,o),
(308,580,q),
(235,580,l),
(210,551,o),
(192.5,486.5,q),
(175,422,o),
(175,349,q),
(175,276,o),
(192.5,210.5,q),
(210,145,o),
(235,116,q)
);
}
);
width = 542;
}
);
unicode = 213;
},
{
glyphname = Racute;
kernRight = R;
layers = (
{
layerId = "606d6ca3-1ac2-46e0-8c1a-6890279d6924";
name = Fore;
shapes = (
{
closed = 1;
nodes = (
(48,700,l),
(48,0,l),
(183,0,l),
(183,255,l),
(236,255,l),
(321,0,l),
(461,0,l),
(360,287,l),
(466,350,o),
(466,484,q),
(466,566,o),
(421.5,622.5,q),
(377,679,o),
(314,700,q)
);
},
{
closed = 1;
nodes = (
(183,580,l),
(275,580,l),
(292,576,o),
(309.5,545,q),
(327,514,o),
(327,473,q),
(327,432,o),
(306.5,401.5,q),
(286,371,o),
(269,367,q),
(183,367,l)
);
},
{
closed = 1;
nodes = (
(339,899,l),
(377,788,l),
(188,730,l),
(156,817,l)
);
}
);
width = 490;
}
);
unicode = 340;
},
{
glyphname = Rcommaaccent;
kernRight = R;
layers = (
{
layerId = "606d6ca3-1ac2-46e0-8c1a-6890279d6924";
name = Fore;
shapes = (
{
closed = 1;
nodes = (
(314,700,l),
(377,679,o),
(421.5,622.5,q),
(466,566,o),
(466,484,q),
(466,350,o),
(360,287,q),
(461,0,l),
(321,0,l),
(236,255,l),
(183,255,l),
(183,0,l),
(48,0,l),
(48,700,l)
);
},
{
closed = 1;
nodes = (
(183,367,l),
(269,367,l),
(286,371,o),
(306.5,401.5,q),
(327,432,o),
(327,473,q),
(327,514,o),
(309.5,545,q),
(292,576,o),
(275,580,q),
(183,580,l)
);
},
{
closed = 1;
nodes = (
(193,-66,l),
(313,-66,l),
(313,-109,l),
(313,-185,o),
(301,-220.5,q),
(289,-256,o),
(243,-319,q),
(197,-293,l),
(226,-244,o),
(237,-203,q),
(193,-203,l)
);
}
);
width = 490;
}
);
unicode = 342;
},
{
glyphname = Rcaron;
kernRight = R;
layers = (
{
layerId = "606d6ca3-1ac2-46e0-8c1a-6890279d6924";
name = Fore;
shapes = (
{
closed = 1;
nodes = (
(48,700,l),
(48,0,l),
(183,0,l),
(183,255,l),
(236,255,l),
(321,0,l),
(461,0,l),
(360,287,l),
(466,350,o),
(466,484,q),
(466,566,o),
(421.5,622.5,q),
(377,679,o),
(314,700,q)
);
},
{
closed = 1;
nodes = (
(183,580,l),
(275,580,l),
(292,576,o),
(309.5,545,q),
(327,514,o),
(327,473,q),
(327,432,o),
(306.5,401.5,q),
(286,371,o),
(269,367,q),
(183,367,l)
);
},
{
closed = 1;
nodes = (
(170,728,l),
(77,837,l),
(136,877,l),
(222,820,l),
(308,878,l),
(367,839,l),
(276,728,l)
);
}
);
width = 490;
}
);
unicode = 344;
},
{
glyphname = Sacute;
kernLeft = S.2;
kernRight = S;
layers = (
{
layerId = "606d6ca3-1ac2-46e0-8c1a-6890279d6924";
name = Fore;
shapes = (
{
closed = 1;
nodes = (
(293,899,l),
(331,788,l),
(142,730,l),
(110,817,l)
);
},
{
closed = 1;
nodes = (
(352,700,l),
(352,580,l),
(160,580,l),
(157,574,l),
(317,282,l),
(366,194,o),
(366,148,q),
(366,47,o),
(299,0,q),
(34,0,l),
(34,116,l),
(241,116,l),
(244,122,l),
(64,445,l),
(25,515,o),
(25,559,q),
(25,663,o),
(112,700,q)
);
}
);
width = 388;
}
);
unicode = 346;
},
{
glyphname = Scaron;
kernLeft = S.2;
kernRight = S;
layers = (
{
layerId = "606d6ca3-1ac2-46e0-8c1a-6890279d6924";
name = Fore;
shapes = (
{
closed = 1;
nodes = (
(152,728,l),
(59,837,l),
(118,877,l),
(204,820,l),
(290,878,l),
(349,839,l),
(258,728,l)
);
},
{
closed = 1;
nodes = (
(352,700,l),
(352,580,l),
(160,580,l),
(157,574,l),
(317,282,l),
(366,194,o),
(366,148,q),
(366,47,o),
(299,0,q),
(34,0,l),
(34,116,l),
(241,116,l),
(244,122,l),
(64,445,l),
(25,515,o),
(25,559,q),
(25,663,o),
(112,700,q)
);
}
);
width = 388;
}
);
unicode = 352;
},
{
glyphname = Scedilla;
kernLeft = S.2;
kernRight = S;
layers = (
{
layerId = "606d6ca3-1ac2-46e0-8c1a-6890279d6924";
name = Fore;
shapes = (
{
closed = 1;
nodes = (
(352,700,l),
(352,580,l),
(160,580,l),
(157,574,l),
(317,282,l),
(366,194,o),
(366,148,q),
(366,47,o),
(299,0,q),
(235,0,l),
(212,-60,l),
(227,-73,o),
(234,-81.5,q),
(256,-108.2143,o),
(256,-146.1071,q),
(256,-184,o),
(238,-213,q),
(220,-242,o),
(192,-260,q),
(104,-260,l),
(104,-179,l),
(149,-179,l),
(158,-173,o),
(158.5,-156,q),
(159,-139,o),
(149,-132,q),
(124,-132,l),
(124,-60,l),
(150,0,l),
(34,0,l),
(34,116,l),
(241,116,l),
(244,122,l),
(64,445,l),
(25,515,o),
(25,559,q),
(25,663,o),
(112,700,q)
);
}
);
width = 388;
}
);
unicode = 350;
},
{
glyphname = Scircumflex;
kernLeft = S.2;
kernRight = S;
layers = (
{
layerId = "606d6ca3-1ac2-46e0-8c1a-6890279d6924";
name = Fore;
shapes = (
{
closed = 1;
nodes = (
(260,878,l),
(351,767,l),
(292,728,l),
(206,786,l),
(120,729,l),
(61,769,l),
(154,878,l)
);
},
{
closed = 1;
nodes = (
(352,700,l),
(352,580,l),
(160,580,l),
(157,574,l),
(317,282,l),
(366,194,o),
(366,148,q),
(366,47,o),
(299,0,q),
(34,0,l),
(34,116,l),
(241,116,l),
(244,122,l),
(64,445,l),
(25,515,o),
(25,559,q),
(25,663,o),
(112,700,q)
);
}
);
width = 388;
}
);
unicode = 348;
},
{
glyphname = Scommaaccent;
kernLeft = S.2;
kernRight = S;
layers = (
{
layerId = "606d6ca3-1ac2-46e0-8c1a-6890279d6924";
name = Fore;
shapes = (
{
closed = 1;
nodes = (
(128,-66,l),
(248,-66,l),
(248,-109,l),
(248,-185,o),
(236,-220.5,q),
(224,-256,o),
(178,-319,q),
(132,-293,l),
(161,-244,o),
(172,-203,q),
(128,-203,l)
);
},
{
closed = 1;
nodes = (
(352,700,l),
(352,580,l),
(160,580,l),
(157,574,l),
(317,282,l),
(366,194,o),
(366,148,q),
(366,47,o),
(299,0,q),
(34,0,l),
(34,116,l),
(241,116,l),
(244,122,l),
(64,445,l),
(25,515,o),
(25,559,q),
(25,663,o),
(112,700,q)
);
}
);
width = 388;
}
);
unicode = 536;
},
{
glyphname = Tcaron;
kernLeft = T.2;
kernRight = T;
layers = (
{
layerId = "606d6ca3-1ac2-46e0-8c1a-6890279d6924";
name = Fore;
shapes = (
{
closed = 1;
nodes = (
(10,580,l),
(10,700,l),
(448,700,l),
(448,580,l),
(297,580,l),
(297,0,l),
(161,0,l),
(161,580,l)
);
},
{
closed = 1;
nodes = (
(177,728,l),
(84,837,l),
(143,877,l),
(229,820,l),
(315,878,l),
(374,839,l),
(283,728,l)
);
}
);
width = 458;
}
);
unicode = 356;
},
{
glyphname = uni0162;
kernLeft = T.2;
kernRight = T;
layers = (
{
layerId = "606d6ca3-1ac2-46e0-8c1a-6890279d6924";
name = Fore;
shapes = (
{
closed = 1;
nodes = (
(163,-132,l),
(163,-60,l),
(189,0,l),
(161,0,l),
(161,580,l),
(10,580,l),
(10,700,l),
(448,700,l),
(448,580,l),
(297,580,l),
(297,0,l),
(274,0,l),
(251,-60,l),
(266,-73,o),
(273,-81.5,q),
(295,-108.2143,o),
(295,-146.1071,q),
(295,-184,o),
(277,-213,q),
(259,-242,o),
(231,-260,q),
(143,-260,l),
(143,-179,l),
(188,-179,l),
(197,-173,o),
(197.5,-156,q),
(198,-139,o),
(188,-132,q)
);
}
);
width = 458;
}
);
unicode = 354;
},
{
glyphname = uni021A;
kernLeft = T.2;
kernRight = T;
layers = (
{
layerId = "606d6ca3-1ac2-46e0-8c1a-6890279d6924";
name = Fore;
shapes = (
{
closed = 1;
nodes = (
(10,580,l),
(10,700,l),
(448,700,l),
(448,580,l),
(297,580,l),
(297,0,l),
(161,0,l),
(161,580,l)
);
},
{
closed = 1;
nodes = (
(167,-66,l),
(287,-66,l),
(287,-109,l),
(287,-185,o),
(275,-220.5,q),
(263,-256,o),
(217,-319,q),
(171,-293,l),
(200,-244,o),
(211,-203,q),
(167,-203,l)
);
}
);
width = 458;
}
);
unicode = 538;
},
{
glyphname = Uacute;
kernLeft = U.2;
kernRight = U;
layers = (
{
layerId = "606d6ca3-1ac2-46e0-8c1a-6890279d6924";
name = Fore;
shapes = (
{
closed = 1;
nodes = (
(305,116,l),
(327,140,o),
(336.5,164.5,q),
(346,189,o),
(346,237,q),
(346,700,l),
(483,700,l),
(483,287,l),
(483,236,o),
(480.5,207.5,q),
(478,179,o),
(468.5,138.5,q),
(451.2769,65.0753,o),
(374,0,q),
(152,0,l),
(75.0229,62.7971,o),
(57.5,137.5,q),
(43,199.3158,o),
(43,287,q),
(43,700,l),
(180,700,l),
(180,237,l),
(180,189,o),
(189.5,164.5,q),
(199,140,o),
(221,116,q)
);
},
{
closed = 1;
nodes = (
(360,899,l),
(398,788,l),
(209,730,l),
(177,817,l)
);
}
);
width = 526;
}
);
unicode = 218;
},
{
glyphname = Ubreve;
kernLeft = U.2;
kernRight = U;
layers = (
{
layerId = "606d6ca3-1ac2-46e0-8c1a-6890279d6924";
name = Fore;
shapes = (
{
closed = 1;
nodes = (
(305,116,l),
(327,140,o),
(336.5,164.5,q),
(346,189,o),
(346,237,q),
(346,700,l),
(483,700,l),
(483,287,l),
(483,236,o),
(480.5,207.5,q),
(478,179,o),
(468.5,138.5,q),
(451.2769,65.0753,o),
(374,0,q),
(152,0,l),
(75.0229,62.7971,o),
(57.5,137.5,q),
(43,199.3158,o),
(43,287,q),
(43,700,l),
(180,700,l),
(180,237,l),
(180,189,o),
(189.5,164.5,q),
(199,140,o),
(221,116,q)
);
},
{
closed = 1;
nodes = (
(208,879,l),
(218,840,o),
(244,827,q),
(283,827,l),
(309,840,o),
(319,879,q),
(412,879,l),
(408,771,o),
(307,730,q),
(221,730,l),
(122,770,o),
(116,879,q)
);
}
);
width = 526;
}
);
unicode = 364;
},
{
glyphname = Ucircumflex;
kernLeft = U.2;
kernRight = U;
layers = (
{
layerId = "606d6ca3-1ac2-46e0-8c1a-6890279d6924";
name = Fore;
shapes = (
{
closed = 1;
nodes = (
(305,116,l),
(327,140,o),
(336.5,164.5,q),
(346,189,o),
(346,237,q),
(346,700,l),
(483,700,l),
(483,287,l),
(483,236,o),
(480.5,207.5,q),
(478,179,o),
(468.5,138.5,q),
(451.2769,65.0753,o),
(374,0,q),
(152,0,l),
(75.0229,62.7971,o),
(57.5,137.5,q),
(43,199.3158,o),
(43,287,q),
(43,700,l),
(180,700,l),
(180,237,l),
(180,189,o),
(189.5,164.5,q),
(199,140,o),
(221,116,q)
);
},
{
closed = 1;
nodes = (
(317,878,l),
(408,767,l),
(349,728,l),
(263,786,l),
(177,729,l),
(118,769,l),
(211,878,l)
);
}
);
width = 526;
}
);
unicode = 219;
},
{
glyphname = Udieresis;
kernLeft = U.2;
kernRight = U;
layers = (
{
layerId = "606d6ca3-1ac2-46e0-8c1a-6890279d6924";
name = Fore;
shapes = (
{
closed = 1;
nodes = (
(305,116,l),
(327,140,o),
(336.5,164.5,q),
(346,189,o),
(346,237,q),
(346,700,l),
(483,700,l),
(483,287,l),
(483,236,o),
(480.5,207.5,q),
(478,179,o),
(468.5,138.5,q),
(451.2769,65.0753,o),
(374,0,q),
(152,0,l),
(75.0229,62.7971,o),
(57.5,137.5,q),
(43,199.3158,o),
(43,287,q),
(43,700,l),
(180,700,l),
(180,237,l),
(180,189,o),
(189.5,164.5,q),
(199,140,o),
(221,116,q)
);
},
{
closed = 1;
nodes = (
(111,865,l),
(243,865,l),
(243,730,l),
(111,730,l)
);
},
{
closed = 1;
nodes = (
(284,865,l),
(416,865,l),
(416,730,l),
(284,730,l)
);
}
);
width = 526;
}
);
unicode = 220;
},
{
glyphname = Ugrave;
kernLeft = U.2;
kernRight = U;
layers = (
{
layerId = "606d6ca3-1ac2-46e0-8c1a-6890279d6924";
name = Fore;
shapes = (
{
closed = 1;
nodes = (
(305,116,l),
(327,140,o),
(336.5,164.5,q),
(346,189,o),
(346,237,q),
(346,700,l),
(483,700,l),
(483,287,l),
(483,236,o),
(480.5,207.5,q),
(478,179,o),
(468.5,138.5,q),
(451.2769,65.0753,o),
(374,0,q),
(152,0,l),
(75.0229,62.7971,o),
(57.5,137.5,q),
(43,199.3158,o),
(43,287,q),
(43,700,l),
(180,700,l),
(180,237,l),
(180,189,o),
(189.5,164.5,q),
(199,140,o),
(221,116,q)
);
},
{
closed = 1;
nodes = (
(371,817,l),
(339,730,l),
(149,788,l),
(188,899,l)
);
}
);
width = 526;
}
);
unicode = 217;
},
{
glyphname = Uhungarumlaut;
kernLeft = U.2;
kernRight = U;
layers = (
{
layerId = "606d6ca3-1ac2-46e0-8c1a-6890279d6924";
name = Fore;
shapes = (
{
closed = 1;
nodes = (
(305,116,l),
(327,140,o),
(336.5,164.5,q),
(346,189,o),
(346,237,q),
(346,700,l),
(483,700,l),
(483,287,l),
(483,236,o),
(480.5,207.5,q),
(478,179,o),
(468.5,138.5,q),
(451.2769,65.0753,o),
(374,0,q),
(152,0,l),
(75.0229,62.7971,o),
(57.5,137.5,q),
(43,199.3158,o),
(43,287,q),
(43,700,l),
(180,700,l),
(180,237,l),
(180,189,o),
(189.5,164.5,q),
(199,140,o),
(221,116,q)
);
},
{
closed = 1;
nodes = (
(377,939,l),
(464,872,l),
(332,729,l),
(261,779,l)
);
},
{
closed = 1;
nodes = (
(217,959,l),
(311,900,l),
(192,745,l),
(116,789,l)
);
}
);
width = 526;
}
);
unicode = 368;
},
{
glyphname = Umacron;
kernLeft = U.2;
kernRight = U;
layers = (
{
layerId = "606d6ca3-1ac2-46e0-8c1a-6890279d6924";
name = Fore;
shapes = (
{
closed = 1;
nodes = (
(305,116,l),
(327,140,o),
(336.5,164.5,q),
(346,189,o),
(346,237,q),
(346,700,l),
(483,700,l),
(483,287,l),
(483,236,o),
(480.5,207.5,q),
(478,179,o),
(468.5,138.5,q),
(451.2769,65.0753,o),
(374,0,q),
(152,0,l),
(75.0229,62.7971,o),
(57.5,137.5,q),
(43,199.3158,o),
(43,287,q),
(43,700,l),
(180,700,l),
(180,237,l),
(180,189,o),
(189.5,164.5,q),
(199,140,o),
(221,116,q)
);
},
{
closed = 1;
nodes = (
(137,838,l),
(389,838,l),
(389,738,l),
(137,738,l)
);
}
);
width = 526;
}
);
unicode = 362;
},
{
glyphname = Uogonek;
kernLeft = U.2;
kernRight = U;
layers = (
{
layerId = "606d6ca3-1ac2-46e0-8c1a-6890279d6924";
name = Fore;
shapes = (
{
closed = 1;
nodes = (
(305,116,l),
(327,140,o),
(336.5,164.5,q),
(346,189,o),
(346,237,q),
(346,700,l),
(483,700,l),
(483,287,l),
(483,182,o),
(466,133.5,q),
(449,85,o),
(405,19.5,q),
(361,-46,o),
(318,-127,q),
(322,-132,l),
(388,-132,l),
(388,-227,l),
(235,-227,l),
(198,-204,o),
(198,-159,q),
(198,-130,o),
(210,-106,q),
(224.5,-77,l),
(228,-70,o),
(246,-40,q),
(269,0,l),
(152,0,l),
(75.0229,62.7971,o),
(57.5,137.5,q),
(43,199.3158,o),
(43,287,q),
(43,700,l),
(180,700,l),
(180,237,l),
(180,189,o),
(189.5,164.5,q),
(199,140,o),
(221,116,q)
);
}
);
width = 526;
}
);
unicode = 370;
},
{
glyphname = Uring;
kernLeft = U.2;
kernRight = U;
layers = (
{
layerId = "606d6ca3-1ac2-46e0-8c1a-6890279d6924";
name = Fore;
shapes = (
{
closed = 1;
nodes = (
(305,116,l),
(327,140,o),
(336.5,164.5,q),
(346,189,o),
(346,237,q),
(346,700,l),
(483,700,l),
(483,287,l),
(483,236,o),
(480.5,207.5,q),
(478,179,o),
(468.5,138.5,q),
(451.2769,65.0753,o),
(374,0,q),
(152,0,l),
(75.0229,62.7971,o),
(57.5,137.5,q),
(43,199.3158,o),
(43,287,q),
(43,700,l),
(180,700,l),
(180,237,l),
(180,189,o),
(189.5,164.5,q),
(199,140,o),
(221,116,q)
);
},
{
closed = 1;
nodes = (
(308,974,l),
(388,935,o),
(388,849,q),
(388,811,o),
(367,778.5,q),
(346,746,o),
(308,728,q),
(218,728,l),
(180,746,o),
(159,778.5,q),
(138,811,o),
(138,849,q),
(138,935,o),
(218,974,q)
);
},
{
closed = 1;
nodes = (
(281,801,l),
(302,822,o),
(302,851,q),
(302,880,o),
(281,899,q),
(244,899,l),
(224,879,o),
(224,850,q),
(224,821,o),
(244,801,q)
);
}
);
width = 526;
}
);
unicode = 366;
},
{
glyphname = Utilde;
kernLeft = U.2;
kernRight = U;
layers = (
{
layerId = "606d6ca3-1ac2-46e0-8c1a-6890279d6924";
name = Fore;
shapes = (
{
closed = 1;
nodes = (
(305,116,l),
(327,140,o),
(336.5,164.5,q),
(346,189,o),
(346,237,q),
(346,700,l),
(483,700,l),
(483,287,l),
(483,236,o),
(480.5,207.5,q),
(478,179,o),
(468.5,138.5,q),
(451.2769,65.0753,o),
(374,0,q),
(152,0,l),
(75.0229,62.7971,o),
(57.5,137.5,q),
(43,199.3158,o),
(43,287,q),
(43,700,l),
(180,700,l),
(180,237,l),
(180,189,o),
(189.5,164.5,q),
(199,140,o),
(221,116,q)
);
},
{
closed = 1;
nodes = (
(214,759,l),
(193,759,o),
(132,736,q),
(132,841,l),
(196,868,o),
(218,868,q),
(315,841,l),
(335,841,o),
(394,855,q),
(394,748,l),
(333,733,o),
(310,734,q)
);
}
);
width = 526;
}
);
unicode = 360;
},
{
glyphname = Wacute;
kernLeft = W.2;
kernRight = W;
layers = (
{
layerId = "606d6ca3-1ac2-46e0-8c1a-6890279d6924";
name = Fore;
shapes = (
{
closed = 1;
nodes = (
(323,413,l),
(319,413,l),
(247,0,l),
(107,0,l),
(10,700,l),
(144,700,l),
(172,494,l),
(193,262,l),
(198,262,l),
(235,493,l),
(266,700,l),
(379,700,l),
(409,493,l),
(447,262,l),
(452,262,l),
(472,494,l),
(500,700,l),
(634,700,l),
(537,0,l),
(393,0,l)
);
},
{
closed = 1;
nodes = (
(409,899,l),
(447,788,l),
(258,730,l),
(226,817,l)
);
}
);
width = 644;
}
);
unicode = 7810;
},
{
glyphname = Wcircumflex;
kernLeft = W.2;
kernRight = W;
layers = (
{
layerId = "606d6ca3-1ac2-46e0-8c1a-6890279d6924";
name = Fore;
shapes = (
{
closed = 1;
nodes = (
(323,413,l),
(319,413,l),
(247,0,l),
(107,0,l),
(10,700,l),
(144,700,l),
(172,494,l),
(193,262,l),
(198,262,l),
(235,493,l),
(266,700,l),
(379,700,l),
(409,493,l),
(447,262,l),
(452,262,l),
(472,494,l),
(500,700,l),
(634,700,l),
(537,0,l),
(393,0,l)
);
},
{
closed = 1;
nodes = (
(376,878,l),
(467,767,l),
(408,728,l),
(322,786,l),
(236,729,l),
(177,769,l),
(270,878,l)
);
}
);
width = 644;
}
);
unicode = 372;
},
{
glyphname = Wdieresis;
kernLeft = W.2;
kernRight = W;
layers = (
{
layerId = "606d6ca3-1ac2-46e0-8c1a-6890279d6924";
name = Fore;
shapes = (
{
closed = 1;
nodes = (
(323,413,l),
(319,413,l),
(247,0,l),
(107,0,l),
(10,700,l),
(144,700,l),
(172,494,l),
(193,262,l),
(198,262,l),
(235,493,l),
(266,700,l),
(379,700,l),
(409,493,l),
(447,262,l),
(452,262,l),
(472,494,l),
(500,700,l),
(634,700,l),
(537,0,l),
(393,0,l)
);
},
{
closed = 1;
nodes = (
(170,865,l),
(302,865,l),
(302,730,l),
(170,730,l)
);
},
{
closed = 1;
nodes = (
(343,865,l),
(475,865,l),
(475,730,l),
(343,730,l)
);
}
);
width = 644;
}
);
unicode = 7812;
},
{
glyphname = Wgrave;
kernLeft = W.2;
kernRight = W;
layers = (
{
layerId = "606d6ca3-1ac2-46e0-8c1a-6890279d6924";
name = Fore;
shapes = (
{
closed = 1;
nodes = (
(323,413,l),
(319,413,l),
(247,0,l),
(107,0,l),
(10,700,l),
(144,700,l),
(172,494,l),
(193,262,l),
(198,262,l),
(235,493,l),
(266,700,l),
(379,700,l),
(409,493,l),
(447,262,l),
(452,262,l),
(472,494,l),
(500,700,l),
(634,700,l),
(537,0,l),
(393,0,l)
);
},
{
closed = 1;
nodes = (
(430,817,l),
(398,730,l),
(208,788,l),
(247,899,l)
);
}
);
width = 644;
}
);
unicode = 7808;
},
{
glyphname = Yacute;
kernLeft = Y.2;
kernRight = Y;
layers = (
{
layerId = "606d6ca3-1ac2-46e0-8c1a-6890279d6924";
name = Fore;
shapes = (
{
closed = 1;
nodes = (
(148,0,l),
(148,233,l),
(0,700,l),
(136,700,l),
(198,487,l),
(219,364,l),
(223,364,l),
(244,487,l),
(306,700,l),
(442,700,l),
(294,233,l),
(294,0,l)
);
},
{
closed = 1;
nodes = (
(329,899,l),
(367,788,l),
(178,730,l),
(146,817,l)
);
}
);
width = 442;
}
);
unicode = 221;
},
{
glyphname = Ycircumflex;
kernLeft = Y.2;
kernRight = Y;
layers = (
{
layerId = "606d6ca3-1ac2-46e0-8c1a-6890279d6924";
name = Fore;
shapes = (
{
closed = 1;
nodes = (
(148,0,l),
(148,233,l),
(0,700,l),
(136,700,l),
(198,487,l),
(219,364,l),
(223,364,l),
(244,487,l),
(306,700,l),
(442,700,l),
(294,233,l),
(294,0,l)
);
},
{
closed = 1;
nodes = (
(276,878,l),
(367,767,l),
(308,728,l),
(222,786,l),
(136,729,l),
(77,769,l),
(170,878,l)
);
}
);
width = 442;
}
);
unicode = 374;
},
{
glyphname = Ydieresis;
kernLeft = Y.2;
kernRight = Y;
layers = (
{
layerId = "606d6ca3-1ac2-46e0-8c1a-6890279d6924";
name = Fore;
shapes = (
{
closed = 1;
nodes = (
(148,0,l),
(148,233,l),
(0,700,l),
(136,700,l),
(198,487,l),
(219,364,l),
(223,364,l),
(244,487,l),
(306,700,l),
(442,700,l),
(294,233,l),
(294,0,l)
);
},
{
closed = 1;
nodes = (
(70,865,l),
(202,865,l),
(202,730,l),
(70,730,l)
);
},
{
closed = 1;
nodes = (
(243,865,l),
(375,865,l),
(375,730,l),
(243,730,l)
);
}
);
width = 442;
}
);
unicode = 376;
},
{
glyphname = Ygrave;
kernLeft = Y.2;
kernRight = Y;
layers = (
{
layerId = "606d6ca3-1ac2-46e0-8c1a-6890279d6924";
name = Fore;
shapes = (
{
closed = 1;
nodes = (
(148,0,l),
(148,233,l),
(0,700,l),
(136,700,l),
(198,487,l),
(219,364,l),
(223,364,l),
(244,487,l),
(306,700,l),
(442,700,l),
(294,233,l),
(294,0,l)
);
},
{
closed = 1;
nodes = (
(300,817,l),
(268,730,l),
(78,788,l),
(117,899,l)
);
}
);
width = 442;
}
);
unicode = 7922;
},
{
glyphname = Zacute;
kernLeft = Z.2;
kernRight = Z;
layers = (
{
layerId = "606d6ca3-1ac2-46e0-8c1a-6890279d6924";
name = Fore;
shapes = (
{
closed = 1;
nodes = (
(406,583,l),
(406,700,l),
(24,700,l),
(24,580,l),
(260,580,l),
(24,114,l),
(24,0,l),
(407,0,l),
(407,116,l),
(169,116,l)
);
},
{
closed = 1;
nodes = (
(299,899,l),
(337,788,l),
(148,730,l),
(116,817,l)
);
}
);
width = 432;
}
);
unicode = 377;
},
{
glyphname = Zcaron;
kernLeft = Z.2;
kernRight = Z;
layers = (
{
layerId = "606d6ca3-1ac2-46e0-8c1a-6890279d6924";
name = Fore;
shapes = (
{
closed = 1;
nodes = (
(406,583,l),
(406,700,l),
(24,700,l),
(24,580,l),
(260,580,l),
(24,114,l),
(24,0,l),
(407,0,l),
(407,116,l),
(169,116,l)
);
},
{
closed = 1;
nodes = (
(170,728,l),
(77,837,l),
(136,877,l),
(222,820,l),
(308,878,l),
(367,839,l),
(276,728,l)
);
}
);
width = 432;
}
);
unicode = 381;
},
{
glyphname = Zdotaccent;
kernLeft = Z.2;
kernRight = Z;
layers = (
{
layerId = "606d6ca3-1ac2-46e0-8c1a-6890279d6924";
name = Fore;
shapes = (
{
closed = 1;
nodes = (
(406,583,l),
(406,700,l),
(24,700,l),
(24,580,l),
(260,580,l),
(24,114,l),
(24,0,l),
(407,0,l),
(407,116,l),
(169,116,l)
);
},
{
closed = 1;
nodes = (
(289,865,l),
(289,730,l),
(157,730,l),
(157,865,l)
);
}
);
width = 432;
}
);
unicode = 379;
},
{
glyphname = abreve;
kernLeft = a.2;
kernRight = a;
layers = (
{
layerId = "606d6ca3-1ac2-46e0-8c1a-6890279d6924";
name = Fore;
shapes = (
{
closed = 1;
nodes = (
(177,231,l),
(156,205,o),
(156,166,q),
(156,127,o),
(178,105,q),
(284,105,l),
(284,231,l)
);
},
{
closed = 1;
nodes = (
(317,511,l),
(377,475,o),
(396,428.5,q),
(415,382,o),
(415,302,q),
(415,152,l),
(415,69,o),
(419,0,q),
(305,0,l),
(287,36,l),
(248,0,o),
(177,0,q),
(114,0,l),
(29,56,o),
(29,161.5,q),
(29,267,o),
(116,328,q),
(210,328,l),
(249,328,o),
(283,304,q),
(283,354,l),
(283,393,o),
(249,406,q),
(69,406,l),
(69,511,l)
);
},
{
closed = 1;
nodes = (
(155,707,l),
(162.3267,664.5049,o),
(170.3666,655.809,q),
(178.4065,647.1132,o),
(186,643,q),
(234,643,l),
(251.0058,652.4477,o),
(255.5029,667.2238,q),
(261.8421,688.0526,o),
(265,707,q),
(359,707,l),
(352,588,o),
(254,548,q),
(166,548,l),
(68,588,o),
(61,707,q)
);
}
);
width = 458;
}
);
unicode = 259;
},
{
glyphname = adieresis;
kernLeft = a.2;
kernRight = a;
layers = (
{
layerId = "606d6ca3-1ac2-46e0-8c1a-6890279d6924";
name = Fore;
shapes = (
{
closed = 1;
nodes = (
(177,231,l),
(156,205,o),
(156,166,q),
(156,127,o),
(178,105,q),
(284,105,l),
(284,231,l)
);
},
{
closed = 1;
nodes = (
(317,511,l),
(377,475,o),
(396,428.5,q),
(415,382,o),
(415,302,q),
(415,152,l),
(415,69,o),
(419,0,q),
(305,0,l),
(287,36,l),
(248,0,o),
(177,0,q),
(114,0,l),
(29,56,o),
(29,161.5,q),
(29,267,o),
(116,328,q),
(210,328,l),
(249,328,o),
(283,304,q),
(283,354,l),
(283,393,o),
(249,406,q),
(69,406,l),
(69,511,l)
);
},
{
closed = 1;
nodes = (
(68,700,l),
(200,700,l),
(200,565,l),
(68,565,l)
);
},
{
closed = 1;
nodes = (
(241,700,l),
(373,700,l),
(373,565,l),
(241,565,l)
);
}
);
width = 458;
}
);
unicode = 228;
},
{
glyphname = amacron;
kernLeft = a.2;
kernRight = a;
layers = (
{
layerId = "606d6ca3-1ac2-46e0-8c1a-6890279d6924";
name = Fore;
shapes = (
{
closed = 1;
nodes = (
(177,231,l),
(156,205,o),
(156,166,q),
(156,127,o),
(178,105,q),
(284,105,l),
(284,231,l)
);
},
{
closed = 1;
nodes = (
(317,511,l),
(377,475,o),
(396,428.5,q),
(415,382,o),
(415,302,q),
(415,152,l),
(415,69,o),
(419,0,q),
(305,0,l),
(287,36,l),
(248,0,o),
(177,0,q),
(114,0,l),
(29,56,o),
(29,161.5,q),
(29,267,o),
(116,328,q),
(210,328,l),
(249,328,o),
(283,304,q),
(283,354,l),
(283,393,o),
(249,406,q),
(69,406,l),
(69,511,l)
);
},
{
closed = 1;
nodes = (
(84,669,l),
(336,669,l),
(336,569,l),
(84,569,l)
);
}
);
width = 458;
}
);
unicode = 257;
},
{
glyphname = aogonek;
kernLeft = a.2;
kernRight = a;
layers = (
{
layerId = "606d6ca3-1ac2-46e0-8c1a-6890279d6924";
name = Fore;
shapes = (
{
closed = 1;
nodes = (
(317,511,l),
(377,475,o),
(396,428.5,q),
(415,382,o),
(415,302,q),
(415,152,l),
(415,69,o),
(419,0,q),
(364,-103,l),
(358,-113,o),
(358,-120,q),
(358,-127,o),
(368,-127,q),
(420,-127,l),
(420,-227,l),
(267,-227,l),
(230,-204,o),
(230,-159,q),
(230,-130,o),
(242,-106,q),
(256.5,-77,l),
(260,-70,o),
(278,-40,q),
(303,3,l),
(287,36,l),
(248,0,o),
(177,0,q),
(114,0,l),
(29,56,o),
(29,161.5,q),
(29,267,o),
(116,328,q),
(210,328,l),
(249,328,o),
(283,304,q),
(283,354,l),
(283,393,o),
(249,406,q),
(69,406,l),
(69,511,l)
);
},
{
closed = 1;
nodes = (
(177,231,l),
(156,205,o),
(156,166,q),
(156,127,o),
(178,105,q),
(284,105,l),
(284,231,l)
);
}
);
width = 458;
}
);
unicode = 261;
},
{
glyphname = atilde;
kernLeft = a.2;
kernRight = a;
layers = (
{
layerId = "606d6ca3-1ac2-46e0-8c1a-6890279d6924";
name = Fore;
shapes = (
{
closed = 1;
nodes = (
(177,231,l),
(156,205,o),
(156,166,q),
(156,127,o),
(178,105,q),
(284,105,l),
(284,231,l)
);
},
{
closed = 1;
nodes = (
(317,511,l),
(377,475,o),
(396,428.5,q),
(415,382,o),
(415,302,q),
(415,152,l),
(415,69,o),
(419,0,q),
(305,0,l),
(287,36,l),
(248,0,o),
(177,0,q),
(114,0,l),
(29,56,o),
(29,161.5,q),
(29,267,o),
(116,328,q),
(210,328,l),
(249,328,o),
(283,304,q),
(283,354,l),
(283,393,o),
(249,406,q),
(69,406,l),
(69,511,l)
);
},
{
closed = 1;
nodes = (
(171,582,l),
(150,582,o),
(89,559,q),
(89,659,l),
(153,686,o),
(175,686,q),
(272,659,l),
(292,659,o),
(351,673,q),
(351,571,l),
(290,556,o),
(267,557,q)
);
}
);
width = 458;
}
);
unicode = 227;
},
{
glyphname = ccaron;
kernLeft = c.2;
kernRight = c;
layers = (
{
layerId = "606d6ca3-1ac2-46e0-8c1a-6890279d6924";
name = Fore;
shapes = (
{
closed = 1;
nodes = (
(167,355,o),
(216,406,q),
(366,406,l),
(366,511,l),
(155,511,l),
(29,426,o),
(29,260,q),
(29,94,o),
(147,0,q),
(366,0,l),
(366,105,l),
(216,105,l),
(193,131,o),
(180,174.5,q),
(167,218,o),
(167,260,q)
);
},
{
closed = 1;
nodes = (
(192,549,l),
(112,685,l),
(175,718,l),
(251,641,l),
(327,718,l),
(391,685,l),
(310,549,l)
);
}
);
width = 390;
}
);
unicode = 269;
},
{
glyphname = ccedilla;
kernLeft = c.2;
kernRight = c;
layers = (
{
layerId = "606d6ca3-1ac2-46e0-8c1a-6890279d6924";
name = Fore;
shapes = (
{
closed = 1;
nodes = (
(181,-132,l),
(181,-60,l),
(207,0,l),
(147,0,l),
(29,94,o),
(29,260,q),
(29,426,o),
(155,511,q),
(366,511,l),
(366,406,l),
(216,406,l),
(167,355,o),
(167,260,q),
(167,218,o),
(180,174.5,q),
(193,131,o),
(216,105,q),
(366,105,l),
(366,0,l),
(292,0,l),
(269,-60,l),
(284,-73,o),
(291,-81.5,q),
(313,-108.2143,o),
(313,-146.1071,q),
(313,-184,o),
(295,-213,q),
(277,-242,o),
(249,-260,q),
(161,-260,l),
(161,-179,l),
(206,-179,l),
(215,-173,o),
(215.5,-156,q),
(216,-139,o),
(206,-132,q)
);
}
);
width = 390;
}
);
unicode = 231;
},
{
glyphname = cdotaccent;
kernLeft = c.2;
kernRight = c;
layers = (
{
layerId = "606d6ca3-1ac2-46e0-8c1a-6890279d6924";
name = Fore;
shapes = (
{
closed = 1;
nodes = (
(167,355,o),
(216,406,q),
(366,406,l),
(366,511,l),
(155,511,l),
(29,426,o),
(29,260,q),
(29,94,o),
(147,0,q),
(366,0,l),
(366,105,l),
(216,105,l),
(193,131,o),
(180,174.5,q),
(167,218,o),
(167,260,q)
);
},
{
closed = 1;
nodes = (
(323,700,l),
(323,565,l),
(191,565,l),
(191,700,l)
);
}
);
width = 390;
}
);
unicode = 267;
},
{
glyphname = dcaron;
kernLeft = c.2;
layers = (
{
layerId = "606d6ca3-1ac2-46e0-8c1a-6890279d6924";
name = Fore;
shapes = (
{
closed = 1;
nodes = (
(329,0,l),
(311,36,l),
(289,16,o),
(269.5,8,q),
(250,0,o),
(211,0,q),
(124,0,l),
(80,42,o),
(54.5,110,q),
(29,178,o),
(29,262.5,q),
(29,347,o),
(54.5,406,q),
(80,465,o),
(127,511,q),
(213,511,l),
(266,511,o),
(297,483,q),
(297,700,l),
(430,700,l),
(430,0,l)
);
},
{
closed = 1;
nodes = (
(201,406,l),
(164,343,o),
(164,251.5,q),
(164,160,o),
(200,105,q),
(297,105,l),
(297,406,l)
);
},
{
closed = 1;
nodes = (
(464,700,l),
(464,501,l),
(547,501,l),
(567,700,l)
);
}
);
width = 557;
}
);
unicode = 271;
},
{
glyphname = ebreve;
kernLeft = c.2;
kernRight = b;
layers = (
{
layerId = "606d6ca3-1ac2-46e0-8c1a-6890279d6924";
name = Fore;
shapes = (
{
closed = 1;
nodes = (
(199,406,l),
(184,388,o),
(174.5,356,q),
(165,324,o),
(165,294,q),
(308,294,l),
(310,324,o),
(300,356.5,q),
(290,389,o),
(274,406,q)
);
},
{
closed = 1;
nodes = (
(410,0,l),
(156,0,l),
(86,47,o),
(57.5,116.5,q),
(29,186,o),
(29,257,q),
(29,421,o),
(153,511,q),
(315,511,l),
(382,462,o),
(406,407,q),
(430,352,o),
(430,296,q),
(430,240,o),
(421,200,q),
(172,200,l),
(175,177,o),
(189.5,147.5,q),
(204,118,o),
(221,105,q),
(410,105,l)
);
},
{
closed = 1;
nodes = (
(179,707,l),
(186.3267,664.5049,o),
(194.3666,655.809,q),
(202.4065,647.1132,o),
(210,643,q),
(258,643,l),
(275.0058,652.4477,o),
(279.5029,667.2238,q),
(285.8421,688.0526,o),
(289,707,q),
(383,707,l),
(376,588,o),
(278,548,q),
(190,548,l),
(92,588,o),
(85,707,q)
);
}
);
width = 454;
}
);
unicode = 277;
},
{
glyphname = ecircumflex;
kernLeft = c.2;
kernRight = b;
layers = (
{
layerId = "606d6ca3-1ac2-46e0-8c1a-6890279d6924";
name = Fore;
shapes = (
{
closed = 1;
nodes = (
(199,406,l),
(184,388,o),
(174.5,356,q),
(165,324,o),
(165,294,q),
(308,294,l),
(310,324,o),
(300,356.5,q),
(290,389,o),
(274,406,q)
);
},
{
closed = 1;
nodes = (
(410,0,l),
(156,0,l),
(86,47,o),
(57.5,116.5,q),
(29,186,o),
(29,257,q),
(29,421,o),
(153,511,q),
(315,511,l),
(382,462,o),
(406,407,q),
(430,352,o),
(430,296,q),
(430,240,o),
(421,200,q),
(172,200,l),
(175,177,o),
(189.5,147.5,q),
(204,118,o),
(221,105,q),
(410,105,l)
);
},
{
closed = 1;
nodes = (
(292,718,l),
(373,582,l),
(309,549,l),
(233,626,l),
(157,549,l),
(94,582,l),
(174,718,l)
);
}
);
width = 454;
}
);
unicode = 234;
},
{
glyphname = edotaccent;
kernLeft = c.2;
kernRight = b;
layers = (
{
layerId = "606d6ca3-1ac2-46e0-8c1a-6890279d6924";
name = Fore;
shapes = (
{
closed = 1;
nodes = (
(199,406,l),
(184,388,o),
(174.5,356,q),
(165,324,o),
(165,294,q),
(308,294,l),
(310,324,o),
(300,356.5,q),
(290,389,o),
(274,406,q)
);
},
{
closed = 1;
nodes = (
(410,0,l),
(156,0,l),
(86,47,o),
(57.5,116.5,q),
(29,186,o),
(29,257,q),
(29,421,o),
(153,511,q),
(315,511,l),
(382,462,o),
(406,407,q),
(430,352,o),
(430,296,q),
(430,240,o),
(421,200,q),
(172,200,l),
(175,177,o),
(189.5,147.5,q),
(204,118,o),
(221,105,q),
(410,105,l)
);
},
{
closed = 1;
nodes = (
(299,700,l),
(299,565,l),
(167,565,l),
(167,700,l)
);
}
);
width = 454;
}
);
unicode = 279;
},
{
glyphname = emacron;
kernLeft = c.2;
kernRight = b;
layers = (
{
layerId = "606d6ca3-1ac2-46e0-8c1a-6890279d6924";
name = Fore;
shapes = (
{
closed = 1;
nodes = (
(199,406,l),
(184,388,o),
(174.5,356,q),
(165,324,o),
(165,294,q),
(308,294,l),
(310,324,o),
(300,356.5,q),
(290,389,o),
(274,406,q)
);
},
{
closed = 1;
nodes = (
(410,0,l),
(156,0,l),
(86,47,o),
(57.5,116.5,q),
(29,186,o),
(29,257,q),
(29,421,o),
(153,511,q),
(315,511,l),
(382,462,o),
(406,407,q),
(430,352,o),
(430,296,q),
(430,240,o),
(421,200,q),
(172,200,l),
(175,177,o),
(189.5,147.5,q),
(204,118,o),
(221,105,q),
(410,105,l)
);
},
{
closed = 1;
nodes = (
(110,669,l),
(362,669,l),
(362,569,l),
(110,569,l)
);
}
);
width = 454;
}
);
unicode = 275;
},
{
glyphname = eogonek;
kernLeft = c.2;
kernRight = b;
layers = (
{
layerId = "606d6ca3-1ac2-46e0-8c1a-6890279d6924";
name = Fore;
shapes = (
{
closed = 1;
nodes = (
(410,0,l),
(326,-125,l),
(330,-132,l),
(394,-132,l),
(394,-227,l),
(241,-227,l),
(204,-204,o),
(204,-159,q),
(204,-132,o),
(215,-111,q),
(226,-90,o),
(255,-52,q),
(295,0,l),
(156,0,l),
(86,47,o),
(57.5,116.5,q),
(29,186,o),
(29,257,q),
(29,421,o),
(153,511,q),
(315,511,l),
(382,462,o),
(406,407,q),
(430,352,o),
(430,296,q),
(430,240,o),
(421,200,q),
(172,200,l),
(175,177,o),
(189.5,147.5,q),
(204,118,o),
(221,105,q),
(410,105,l)
);
},
{
closed = 1;
nodes = (
(199,406,l),
(184,388,o),
(174.5,356,q),
(165,324,o),
(165,294,q),
(308,294,l),
(310,324,o),
(300,356.5,q),
(290,389,o),
(274,406,q)
);
}
);
width = 454;
}
);
unicode = 281;
},
{
glyphname = gcircumflex;
kernLeft = c.2;
kernRight = g;
layers = (
{
layerId = "606d6ca3-1ac2-46e0-8c1a-6890279d6924";
name = Fore;
shapes = (
{
closed = 1;
nodes = (
(430,53,l),
(430,-23,o),
(410.5,-69,q),
(391,-115,o),
(333,-150,q),
(105,-150,l),
(105,-46,l),
(276,-46,l),
(301,-31,o),
(301,2,q),
(301,61,l),
(264,30,o),
(183,30,q),
(110,30,l),
(29,127,o),
(29,255,q),
(29,347,o),
(55,405.5,q),
(81,464,o),
(131,511,q),
(205,511,l),
(270,511,o),
(308,469,q),
(326,511,l),
(430,511,l)
);
},
{
closed = 1;
nodes = (
(200,406,l),
(164,344,o),
(164,263.5,q),
(164,183,o),
(195,131,q),
(297,131,l),
(297,406,l)
);
},
{
closed = 1;
nodes = (
(313,718,l),
(394,582,l),
(330,549,l),
(254,626,l),
(178,549,l),
(115,582,l),
(195,718,l)
);
}
);
width = 469;
}
);
unicode = 285;
},
{
glyphname = gcommaaccent;
kernLeft = c.2;
kernRight = g;
layers = (
{
layerId = "606d6ca3-1ac2-46e0-8c1a-6890279d6924";
name = Fore;
shapes = (
{
closed = 1;
nodes = (
(430,53,l),
(430,-23,o),
(410.5,-69,q),
(391,-115,o),
(333,-150,q),
(105,-150,l),
(105,-46,l),
(276,-46,l),
(301,-31,o),
(301,2,q),
(301,61,l),
(264,30,o),
(183,30,q),
(110,30,l),
(29,127,o),
(29,255,q),
(29,347,o),
(55,405.5,q),
(81,464,o),
(131,511,q),
(205,511,l),
(270,511,o),
(308,469,q),
(326,511,l),
(430,511,l)
);
},
{
closed = 1;
nodes = (
(200,406,l),
(164,344,o),
(164,263.5,q),
(164,183,o),
(195,131,q),
(297,131,l),
(297,406,l)
);
},
{
closed = 1;
nodes = (
(309,548,l),
(189,548,l),
(189,591,l),
(189,667,o),
(201,702.5,q),
(213,738,o),
(259,801,q),
(305,775,l),
(276,726,o),
(265,685,q),
(309,685,l)
);
}
);
width = 469;
}
);
unicode = 291;
},
{
glyphname = hcircumflex;
kernRight = a;
layers = (
{
layerId = "606d6ca3-1ac2-46e0-8c1a-6890279d6924";
name = Fore;
shapes = (
{
closed = 1;
nodes = (
(371,511,l),
(415,455,o),
(431,399,q),
(447,343,o),
(447,259,q),
(447,0,l),
(314,0,l),
(314,269,l),
(314,364,o),
(288,406,q),
(176,406,l),
(176,0,l),
(43,0,l),
(43,700,l),
(176,700,l),
(176,475,l),
(198,495,o),
(217.5,503,q),
(237,511,o),
(276,511,q)
);
},
{
closed = 1;
nodes = (
(159,878,l),
(250,767,l),
(191,728,l),
(105,786,l),
(19,729,l),
(-40,769,l),
(53,878,l)
);
}
);
width = 486;
}
);
unicode = 293;
},
{
glyphname = iogonek;
layers = (
{
layerId = "606d6ca3-1ac2-46e0-8c1a-6890279d6924";
name = Fore;
shapes = (
{
closed = 1;
nodes = (
(43,511,l),
(175,511,l),
(175,0,l),
(110,-127,l),
(114,-132,l),
(180,-132,l),
(180,-227,l),
(27,-227,l),
(-10,-204,o),
(-10,-159,q),
(-10,-130,o),
(2,-106,q),
(16.5,-77,l),
(20,-70,o),
(38,-40,q),
(61,0,l),
(43,0,l)
);
},
{
closed = 1;
nodes = (
(175,700,l),
(175,565,l),
(43,565,l),
(43,700,l)
);
}
);
width = 218;
}
);
unicode = 303;
},
{
glyphname = kcommaaccent;
kernRight = k;
layers = (
{
layerId = "606d6ca3-1ac2-46e0-8c1a-6890279d6924";
name = Fore;
shapes = (
{
closed = 1;
nodes = (
(43,700,l),
(176,700,l),
(176,329,l),
(190,329,l),
(284,511,l),
(414,511,l),
(296,288,l),
(415,0,l),
(283,0,l),
(191,224,l),
(176,224,l),
(176,0,l),
(43,0,l)
);
},
{
closed = 1;
nodes = (
(156,-66,l),
(276,-66,l),
(276,-109,l),
(276,-185,o),
(264,-220.5,q),
(252,-256,o),
(206,-319,q),
(160,-293,l),
(189,-244,o),
(200,-203,q),
(156,-203,l)
);
}
);
width = 426;
}
);
unicode = 311;
},
{
glyphname = lacute;
layers = (
{
layerId = "606d6ca3-1ac2-46e0-8c1a-6890279d6924";
name = Fore;
shapes = (
{
closed = 1;
nodes = (
(175,0,l),
(43,0,l),
(43,700,l),
(175,700,l)
);
},
{
closed = 1;
nodes = (
(212,899,l),
(250,788,l),
(61,730,l),
(29,817,l)
);
}
);
width = 218;
}
);
unicode = 314;
},
{
glyphname = lcaron;
layers = (
{
layerId = "606d6ca3-1ac2-46e0-8c1a-6890279d6924";
name = Fore;
shapes = (
{
closed = 1;
nodes = (
(175,0,l),
(43,0,l),
(43,700,l),
(175,700,l)
);
},
{
closed = 1;
nodes = (
(211,700,l),
(211,501,l),
(294,501,l),
(314,700,l)
);
}
);
width = 304;
}
);
unicode = 318;
},
{
glyphname = lcommaaccent;
layers = (
{
layerId = "606d6ca3-1ac2-46e0-8c1a-6890279d6924";
name = Fore;
shapes = (
{
closed = 1;
nodes = (
(175,0,l),
(43,0,l),
(43,700,l),
(175,700,l)
);
},
{
closed = 1;
nodes = (
(45,-66,l),
(165,-66,l),
(165,-109,l),
(165,-185,o),
(153,-220.5,q),
(141,-256,o),
(95,-319,q),
(49,-293,l),
(78,-244,o),
(89,-203,q),
(45,-203,l)
);
}
);
width = 218;
}
);
unicode = 316;
},
{
glyphname = ldot;
layers = (
{
layerId = "606d6ca3-1ac2-46e0-8c1a-6890279d6924";
name = Fore;
shapes = (
{
closed = 1;
nodes = (
(175,0,l),
(43,0,l),
(43,700,l),
(175,700,l)
);
},
{
closed = 1;
nodes = (
(323,419,l),
(323,295,l),
(211,295,l),
(211,419,l)
);
}
);
width = 328;
}
);
unicode = 320;
},
{
glyphname = napostrophe;
kernLeft = m;
kernRight = a;
layers = (
{
layerId = "606d6ca3-1ac2-46e0-8c1a-6890279d6924";
name = Fore;
shapes = (
{
closed = 1;
nodes = (
(457,511,l),
(501,455,o),
(517,399,q),
(533,343,o),
(533,259,q),
(533,0,l),
(400,0,l),
(400,269,l),
(400,364,o),
(374,406,q),
(262,406,l),
(262,0,l),
(129,0,l),
(129,511,l),
(233,511,l),
(251,475,l),
(273,495,o),
(292.5,503,q),
(312,511,o),
(351,511,q)
);
},
{
closed = 1;
nodes = (
(-8,662,l),
(116,662,l),
(116,630,l),
(116,557,o),
(103.5,520,q),
(91,483,o),
(51,429,q),
(3,455,l),
(32,500,o),
(41,539,q),
(-8,539,l)
);
}
);
width = 572;
}
);
unicode = 329;
},
{
glyphname = ncaron;
kernLeft = m;
kernRight = a;
layers = (
{
layerId = "606d6ca3-1ac2-46e0-8c1a-6890279d6924";
name = Fore;
shapes = (
{
closed = 1;
nodes = (
(371,511,l),
(415,455,o),
(431,399,q),
(447,343,o),
(447,259,q),
(447,0,l),
(314,0,l),
(314,269,l),
(314,364,o),
(288,406,q),
(176,406,l),
(176,0,l),
(43,0,l),
(43,511,l),
(147,511,l),
(165,475,l),
(187,495,o),
(206.5,503,q),
(226,511,o),
(265,511,q)
);
},
{
closed = 1;
nodes = (
(177,549,l),
(97,685,l),
(160,718,l),
(236,641,l),
(312,718,l),
(376,685,l),
(295,549,l)
);
}
);
width = 486;
}
);
unicode = 328;
},
{
glyphname = ncommaaccent;
kernLeft = m;
kernRight = a;
layers = (
{
layerId = "606d6ca3-1ac2-46e0-8c1a-6890279d6924";
name = Fore;
shapes = (
{
closed = 1;
nodes = (
(371,511,l),
(415,455,o),
(431,399,q),
(447,343,o),
(447,259,q),
(447,0,l),
(314,0,l),
(314,269,l),
(314,364,o),
(288,406,q),
(176,406,l),
(176,0,l),
(43,0,l),
(43,511,l),
(147,511,l),
(165,475,l),
(187,495,o),
(206.5,503,q),
(226,511,o),
(265,511,q)
);
},
{
closed = 1;
nodes = (
(181,-66,l),
(301,-66,l),
(301,-109,l),
(301,-185,o),
(289,-220.5,q),
(277,-256,o),
(231,-319,q),
(185,-293,l),
(214,-244,o),
(225,-203,q),
(181,-203,l)
);
}
);
width = 486;
}
);
unicode = 326;
},
{
glyphname = ntilde;
kernLeft = m;
kernRight = a;
layers = (
{
layerId = "606d6ca3-1ac2-46e0-8c1a-6890279d6924";
name = Fore;
shapes = (
{
closed = 1;
nodes = (
(371,511,l),
(415,455,o),
(431,399,q),
(447,343,o),
(447,259,q),
(447,0,l),
(314,0,l),
(314,269,l),
(314,364,o),
(288,406,q),
(176,406,l),
(176,0,l),
(43,0,l),
(43,511,l),
(147,511,l),
(165,475,l),
(187,495,o),
(206.5,503,q),
(226,511,o),
(265,511,q)
);
},
{
closed = 1;
nodes = (
(177,582,l),
(156,582,o),
(95,559,q),
(95,659,l),
(159,686,o),
(181,686,q),
(278,659,l),
(298,659,o),
(357,673,q),
(357,571,l),
(296,556,o),
(273,557,q)
);
}
);
width = 486;
}
);
unicode = 241;
},
{
glyphname = obreve;
kernLeft = c.2;
kernRight = b;
layers = (
{
layerId = "606d6ca3-1ac2-46e0-8c1a-6890279d6924";
name = Fore;
shapes = (
{
closed = 1;
nodes = (
(129,0,l),
(29,93,o),
(29,254,q),
(29,335,o),
(51.5,395,q),
(74,455,o),
(123,511,q),
(357,511,l),
(409,451,o),
(428,394.5,q),
(447,338,o),
(447,254,q),
(447,93,o),
(347,0,q)
);
},
{
closed = 1;
nodes = (
(276,105,l),
(312,175,o),
(312,264,q),
(312,353,o),
(275,406,q),
(200,406,l),
(164,355,o),
(164,261.5,q),
(164,168,o),
(200,105,q)
);
},
{
closed = 1;
nodes = (
(179,707,l),
(186.3267,664.5049,o),
(194.3666,655.809,q),
(202.4065,647.1132,o),
(210,643,q),
(258,643,l),
(275.0058,652.4477,o),
(279.5029,667.2238,q),
(285.8421,688.0526,o),
(289,707,q),
(383,707,l),
(376,588,o),
(278,548,q),
(190,548,l),
(92,588,o),
(85,707,q)
);
}
);
width = 476;
}
);
unicode = 335;
},
{
glyphname = odieresis;
kernLeft = c.2;
kernRight = b;
layers = (
{
layerId = "606d6ca3-1ac2-46e0-8c1a-6890279d6924";
name = Fore;
shapes = (
{
closed = 1;
nodes = (
(347,0,l),
(447,93,o),
(447,254,q),
(447,338,o),
(428,394.5,q),
(409,451,o),
(357,511,q),
(123,511,l),
(74,455,o),
(51.5,395,q),
(29,335,o),
(29,254,q),
(29,93,o),
(129,0,q)
);
},
{
closed = 1;
nodes = (
(200,105,l),
(164,168,o),
(164,261.5,q),
(164,355,o),
(200,406,q),
(275,406,l),
(312,353,o),
(312,264,q),
(312,175,o),
(276,105,q)
);
},
{
closed = 1;
nodes = (
(82,700,l),
(214,700,l),
(214,565,l),
(82,565,l)
);
},
{
closed = 1;
nodes = (
(255,700,l),
(387,700,l),
(387,565,l),
(255,565,l)
);
}
);
width = 476;
}
);
unicode = 246;
},
{
glyphname = ohungarumlaut;
kernLeft = c.2;
kernRight = b;
layers = (
{
layerId = "606d6ca3-1ac2-46e0-8c1a-6890279d6924";
name = Fore;
shapes = (
{
closed = 1;
nodes = (
(347,0,l),
(447,93,o),
(447,254,q),
(447,338,o),
(428,394.5,q),
(409,451,o),
(357,511,q),
(123,511,l),
(74,455,o),
(51.5,395,q),
(29,335,o),
(29,254,q),
(29,93,o),
(129,0,q)
);
},
{
closed = 1;
nodes = (
(200,105,l),
(164,168,o),
(164,261.5,q),
(164,355,o),
(200,406,q),
(275,406,l),
(312,353,o),
(312,264,q),
(312,175,o),
(276,105,q)
);
},
{
closed = 1;
nodes = (
(349,763,l),
(443,702,l),
(327,546,l),
(250,591,l)
);
},
{
closed = 1;
nodes = (
(185,762,l),
(285,711,l),
(183,545,l),
(102,582,l)
);
}
);
width = 476;
}
);
unicode = 337;
},
{
glyphname = otilde;
kernLeft = c.2;
kernRight = b;
layers = (
{
layerId = "606d6ca3-1ac2-46e0-8c1a-6890279d6924";
name = Fore;
shapes = (
{
closed = 1;
nodes = (
(129,0,l),
(29,93,o),
(29,254,q),
(29,335,o),
(51.5,395,q),
(74,455,o),
(123,511,q),
(357,511,l),
(409,451,o),
(428,394.5,q),
(447,338,o),
(447,254,q),
(447,93,o),
(347,0,q)
);
},
{
closed = 1;
nodes = (
(276,105,l),
(312,175,o),
(312,264,q),
(312,353,o),
(275,406,q),
(200,406,l),
(164,355,o),
(164,261.5,q),
(164,168,o),
(200,105,q)
);
},
{
closed = 1;
nodes = (
(185,582,l),
(164,582,o),
(103,559,q),
(103,659,l),
(167,686,o),
(189,686,q),
(286,659,l),
(306,659,o),
(365,673,q),
(365,571,l),
(304,556,o),
(281,557,q)
);
}
);
width = 476;
}
);
unicode = 245;
},
{
glyphname = rcaron;
kernLeft = m;
kernRight = r;
layers = (
{
layerId = "606d6ca3-1ac2-46e0-8c1a-6890279d6924";
name = Fore;
shapes = (
{
closed = 1;
nodes = (
(44,0,l),
(177,0,l),
(177,377,l),
(304,377,l),
(304,511,l),
(265,511,l),
(204,511,o),
(164,457,q),
(139,511,l),
(44,511,l)
);
},
{
closed = 1;
nodes = (
(118,549,l),
(38,685,l),
(101,718,l),
(177,641,l),
(253,718,l),
(317,685,l),
(236,549,l)
);
}
);
width = 318;
}
);
unicode = 345;
},
{
glyphname = rcommaaccent;
kernLeft = m;
kernRight = r;
layers = (
{
layerId = "606d6ca3-1ac2-46e0-8c1a-6890279d6924";
name = Fore;
shapes = (
{
closed = 1;
nodes = (
(44,511,l),
(139,511,l),
(164,457,l),
(204,511,o),
(265,511,q),
(304,511,l),
(304,377,l),
(177,377,l),
(177,0,l),
(44,0,l)
);
},
{
closed = 1;
nodes = (
(46,-66,l),
(166,-66,l),
(166,-109,l),
(166,-185,o),
(154,-220.5,q),
(142,-256,o),
(96,-319,q),
(50,-293,l),
(79,-244,o),
(90,-203,q),
(46,-203,l)
);
}
);
width = 318;
}
);
unicode = 343;
},
{
glyphname = scaron;
kernLeft = s.2;
kernRight = s;
layers = (
{
layerId = "606d6ca3-1ac2-46e0-8c1a-6890279d6924";
name = Fore;
shapes = (
{
closed = 1;
nodes = (
(93,511,l),
(22,480,o),
(22,407,q),
(22,380.4,o),
(30,365.2,q),
(38,350,o),
(41,344,q),
(44,338,o),
(52,325.5,q),
(60,313,o),
(64,307.5,q),
(89.3333,272.6667,o),
(96,262,q),
(203,105,l),
(20,105,l),
(20,0,l),
(275,0,l),
(328,36,o),
(328,107,q),
(328,141.3889,o),
(315.5,165.6944,q),
(303,190,o),
(297,200,q),
(288,215,o),
(253,265,q),
(158,406,l),
(314,406,l),
(314,511,l)
);
},
{
closed = 1;
nodes = (
(115,549,l),
(35,685,l),
(98,718,l),
(174,641,l),
(250,718,l),
(314,685,l),
(233,549,l)
);
}
);
width = 350;
}
);
unicode = 353;
},
{
glyphname = scedilla;
kernLeft = s.2;
kernRight = s;
layers = (
{
layerId = "606d6ca3-1ac2-46e0-8c1a-6890279d6924";
name = Fore;
shapes = (
{
closed = 1;
nodes = (
(103,-132,l),
(103,-60,l),
(129,0,l),
(20,0,l),
(20,105,l),
(203,105,l),
(96,262,l),
(89.3333,272.6667,o),
(74.6667,292.8333,q),
(60,313,o),
(52,325.5,q),
(44,338,o),
(41,344,q),
(38,350,o),
(33,359.5,q),
(28,369,o),
(26.5,375.5,q),
(22,395,o),
(22,407,q),
(22,480,o),
(93,511,q),
(314,511,l),
(314,406,l),
(158,406,l),
(253,265,l),
(316.7143,173.9796,o),
(324.5,139.5,q),
(328,124,o),
(328,107,q),
(328,36,o),
(275,0,q),
(214,0,l),
(191,-60,l),
(206,-73,o),
(213,-81.5,q),
(235,-108.2143,o),
(235,-146.1071,q),
(235,-184,o),
(217,-213,q),
(199,-242,o),
(171,-260,q),
(83,-260,l),
(83,-179,l),
(128,-179,l),
(137,-173,o),
(137.5,-156,q),
(138,-139,o),
(128,-132,q)
);
}
);
width = 350;
}
);
unicode = 351;
},
{
glyphname = scommaaccent;
kernLeft = s.2;
kernRight = s;
layers = (
{
layerId = "606d6ca3-1ac2-46e0-8c1a-6890279d6924";
name = Fore;
shapes = (
{
closed = 1;
nodes = (
(314,511,l),
(314,406,l),
(158,406,l),
(253,265,l),
(316.7143,173.9796,o),
(324.5,139.5,q),
(328,124,o),
(328,107,q),
(328,36,o),
(275,0,q),
(20,0,l),
(20,105,l),
(203,105,l),
(96,262,l),
(89.3333,272.6667,o),
(74.6667,292.8333,q),
(60,313,o),
(52,325.5,q),
(44,338,o),
(41,344,q),
(38,350,o),
(33,359.5,q),
(28,369,o),
(26.5,375.5,q),
(22,395,o),
(22,407,q),
(22,480,o),
(93,511,q)
);
},
{
closed = 1;
nodes = (
(109,-66,l),
(229,-66,l),
(229,-109,l),
(229,-185,o),
(217,-220.5,q),
(205,-256,o),
(159,-319,q),
(113,-293,l),
(142,-244,o),
(153,-203,q),
(109,-203,l)
);
}
);
width = 350;
}
);
unicode = 537;
},
{
glyphname = tcaron;
kernLeft = t.2;
kernRight = t;
layers = (
{
layerId = "606d6ca3-1ac2-46e0-8c1a-6890279d6924";
name = Fore;
shapes = (
{
closed = 1;
nodes = (
(73,406,l),
(4,406,l),
(4,511,l),
(73,511,l),
(73,650,l),
(206,650,l),
(206,511,l),
(288,511,l),
(288,406,l),
(206,406,l),
(206,191,l),
(206,130,o),
(227,105,q),
(288,105,l),
(288,0,l),
(146,0,l),
(92.6395,49.2558,o),
(82,106,q),
(73,154,o),
(73,223,q)
);
},
{
closed = 1;
nodes = (
(350,752,l),
(330,553,l),
(247,553,l),
(247,752,l)
);
}
);
width = 335;
}
);
unicode = 357;
},
{
glyphname = uni0163;
kernLeft = t.2;
kernRight = t;
layers = (
{
layerId = "606d6ca3-1ac2-46e0-8c1a-6890279d6924";
name = Fore;
shapes = (
{
closed = 1;
nodes = (
(138,-132,l),
(138,-60,l),
(164,0,l),
(146,0,l),
(92.6395,49.2558,o),
(82,106,q),
(73,154,o),
(73,223,q),
(73,406,l),
(4,406,l),
(4,511,l),
(73,511,l),
(73,650,l),
(206,650,l),
(206,511,l),
(288,511,l),
(288,406,l),
(206,406,l),
(206,191,l),
(206,130,o),
(227,105,q),
(288,105,l),
(288,0,l),
(249,0,l),
(226,-60,l),
(241,-73,o),
(248,-81.5,q),
(270,-108.2143,o),
(270,-146.1071,q),
(270,-184,o),
(252,-213,q),
(234,-242,o),
(206,-260,q),
(118,-260,l),
(118,-179,l),
(163,-179,l),
(172,-173,o),
(172.5,-156,q),
(173,-139,o),
(163,-132,q)
);
}
);
width = 312;
}
);
unicode = 355;
},
{
glyphname = uni021B;
kernLeft = t.2;
kernRight = t;
layers = (
{
layerId = "606d6ca3-1ac2-46e0-8c1a-6890279d6924";
name = Fore;
shapes = (
{
closed = 1;
nodes = (
(73,406,l),
(4,406,l),
(4,511,l),
(73,511,l),
(73,650,l),
(206,650,l),
(206,511,l),
(288,511,l),
(288,406,l),
(206,406,l),
(206,191,l),
(206,130,o),
(227,105,q),
(288,105,l),
(288,0,l),
(146,0,l),
(92.6395,49.2558,o),
(82,106,q),
(73,154,o),
(73,223,q)
);
},
{
closed = 1;
nodes = (
(144,-66,l),
(264,-66,l),
(264,-109,l),
(264,-185,o),
(252,-220.5,q),
(240,-256,o),
(194,-319,q),
(148,-293,l),
(177,-244,o),
(188,-203,q),
(144,-203,l)
);
}
);
width = 312;
}
);
unicode = 539;
},
{
glyphname = ubreve;
kernLeft = u;
layers = (
{
layerId = "606d6ca3-1ac2-46e0-8c1a-6890279d6924";
name = Fore;
shapes = (
{
closed = 1;
nodes = (
(115,0,l),
(71,56,o),
(55,112,q),
(39,168,o),
(39,252,q),
(39,511,l),
(172,511,l),
(172,242,l),
(172,151,o),
(208,105,q),
(301,105,l),
(301,511,l),
(434,511,l),
(434,0,l),
(329,0,l),
(311,36,l),
(273,0,o),
(220,0,q)
);
},
{
closed = 1;
nodes = (
(179,707,l),
(186.3267,664.5049,o),
(194.3666,655.809,q),
(202.4065,647.1132,o),
(210,643,q),
(258,643,l),
(275.0058,652.4477,o),
(279.5029,667.2238,q),
(285.8421,688.0526,o),
(289,707,q),
(383,707,l),
(376,588,o),
(278,548,q),
(190,548,l),
(92,588,o),
(85,707,q)
);
}
);
width = 477;
}
);
unicode = 365;
},
{
glyphname = udieresis;
kernLeft = u;
layers = (
{
layerId = "606d6ca3-1ac2-46e0-8c1a-6890279d6924";
name = Fore;
shapes = (
{
closed = 1;
nodes = (
(115,0,l),
(71,56,o),
(55,112,q),
(39,168,o),
(39,252,q),
(39,511,l),
(172,511,l),
(172,242,l),
(172,151,o),
(208,105,q),
(301,105,l),
(301,511,l),
(434,511,l),
(434,0,l),
(329,0,l),
(311,36,l),
(273,0,o),
(220,0,q)
);
},
{
closed = 1;
nodes = (
(82,700,l),
(214,700,l),
(214,565,l),
(82,565,l)
);
},
{
closed = 1;
nodes = (
(255,700,l),
(387,700,l),
(387,565,l),
(255,565,l)
);
}
);
width = 477;
}
);
unicode = 252;
},
{
glyphname = uhungarumlaut;
kernLeft = u;
layers = (
{
layerId = "606d6ca3-1ac2-46e0-8c1a-6890279d6924";
name = Fore;
shapes = (
{
closed = 1;
nodes = (
(115,0,l),
(71,56,o),
(55,112,q),
(39,168,o),
(39,252,q),
(39,511,l),
(172,511,l),
(172,242,l),
(172,151,o),
(208,105,q),
(301,105,l),
(301,511,l),
(434,511,l),
(434,0,l),
(329,0,l),
(311,36,l),
(273,0,o),
(220,0,q)
);
},
{
closed = 1;
nodes = (
(329,763,l),
(423,702,l),
(307,546,l),
(230,591,l)
);
},
{
closed = 1;
nodes = (
(165,762,l),
(265,711,l),
(163,545,l),
(82,582,l)
);
}
);
width = 477;
}
);
unicode = 369;
},
{
glyphname = uogonek;
kernLeft = u;
layers = (
{
layerId = "606d6ca3-1ac2-46e0-8c1a-6890279d6924";
name = Fore;
shapes = (
{
closed = 1;
nodes = (
(115,0,l),
(71,56,o),
(55,112,q),
(39,168,o),
(39,252,q),
(39,511,l),
(172,511,l),
(172,242,l),
(172,151,o),
(208,105,q),
(301,105,l),
(301,511,l),
(434,511,l),
(434,0,l),
(370,-127,l),
(374,-132,l),
(440,-132,l),
(440,-227,l),
(287,-227,l),
(250,-204,o),
(250,-159,q),
(250,-130,o),
(262,-106,q),
(276.5,-77,l),
(280,-70,o),
(298,-40,q),
(325,7,l),
(311,36,l),
(273,0,o),
(220,0,q)
);
}
);
width = 477;
}
);
unicode = 371;
},
{
glyphname = uring;
kernLeft = u;
layers = (
{
layerId = "606d6ca3-1ac2-46e0-8c1a-6890279d6924";
name = Fore;
shapes = (
{
closed = 1;
nodes = (
(115,0,l),
(71,56,o),
(55,112,q),
(39,168,o),
(39,252,q),
(39,511,l),
(172,511,l),
(172,242,l),
(172,151,o),
(208,105,q),
(301,105,l),
(301,511,l),
(434,511,l),
(434,0,l),
(329,0,l),
(311,36,l),
(273,0,o),
(220,0,q)
);
},
{
closed = 1;
nodes = (
(279,794,l),
(359,755,o),
(359,669,q),
(359,631,o),
(338,598.5,q),
(317,566,o),
(279,548,q),
(189,548,l),
(151,566,o),
(130,598.5,q),
(109,631,o),
(109,669,q),
(109,755,o),
(189,794,q)
);
},
{
closed = 1;
nodes = (
(252,621,l),
(273,642,o),
(273,671,q),
(273,700,o),
(252,719,q),
(215,719,l),
(195,699,o),
(195,670,q),
(195,641,o),
(215,621,q)
);
}
);
width = 477;
}
);
unicode = 367;
},
{
glyphname = wcircumflex;
kernLeft = v.2;
kernRight = v;
layers = (
{
layerId = "606d6ca3-1ac2-46e0-8c1a-6890279d6924";
name = Fore;
shapes = (
{
closed = 1;
nodes = (
(276,511,l),
(276,105,l),
(205,105,l),
(173,156,o),
(173,245,q),
(173,511,l),
(40,511,l),
(40,245,l),
(40,66,o),
(134,0,q),
(217,0,l),
(290,0,o),
(340,46,q),
(390,0,o),
(467,0,q),
(550,0,l),
(644,76,o),
(644,245,q),
(644,511,l),
(511,511,l),
(511,251,l),
(511,158,o),
(478,105,q),
(408,105,l),
(408,511,l)
);
},
{
closed = 1;
nodes = (
(397,718,l),
(478,582,l),
(414,549,l),
(338,626,l),
(262,549,l),
(199,582,l),
(279,718,l)
);
}
);
width = 684;
}
);
unicode = 373;
},
{
glyphname = wgrave;
kernLeft = v.2;
kernRight = v;
layers = (
{
layerId = "606d6ca3-1ac2-46e0-8c1a-6890279d6924";
name = Fore;
shapes = (
{
closed = 1;
nodes = (
(276,511,l),
(276,105,l),
(205,105,l),
(173,156,o),
(173,245,q),
(173,511,l),
(40,511,l),
(40,245,l),
(40,66,o),
(134,0,q),
(217,0,l),
(290,0,o),
(340,46,q),
(390,0,o),
(467,0,q),
(550,0,l),
(644,76,o),
(644,245,q),
(644,511,l),
(511,511,l),
(511,251,l),
(511,158,o),
(478,105,q),
(408,105,l),
(408,511,l)
);
},
{
closed = 1;
nodes = (
(443,627,l),
(403,546,l),
(225,624,l),
(272,727,l)
);
}
);
width = 684;
}
);
unicode = 7809;
},
{
glyphname = ycircumflex;
kernLeft = v.2;
kernRight = v;
layers = (
{
layerId = "606d6ca3-1ac2-46e0-8c1a-6890279d6924";
name = Fore;
shapes = (
{
closed = 1;
nodes = (
(40,202,o),
(68,135.5,q),
(96,69,o),
(144,30,q),
(213,30,l),
(207,19,l),
(192,-9,o),
(178,-24,q),
(164,-39,o),
(143,-45,q),
(35,-45,l),
(35,-150,l),
(193,-150,l),
(225,-143,o),
(245,-128,q),
(265,-113,o),
(283,-82,q),
(350,27,l),
(394,99,o),
(413.5,156,q),
(433,213,o),
(433,288,q),
(433,511,l),
(300,511,l),
(300,280,l),
(300,192,o),
(267,135,q),
(208,135,l),
(173,193,o),
(173,280,q),
(173,511,l),
(40,511,l),
(40,281,l)
);
},
{
closed = 1;
nodes = (
(288,718,l),
(369,582,l),
(305,549,l),
(229,626,l),
(153,549,l),
(90,582,l),
(170,718,l)
);
}
);
width = 473;
}
);
unicode = 375;
},
{
glyphname = ygrave;
kernLeft = v.2;
kernRight = v;
layers = (
{
layerId = "606d6ca3-1ac2-46e0-8c1a-6890279d6924";
name = Fore;
shapes = (
{
closed = 1;
nodes = (
(40,202,o),
(68,135.5,q),
(96,69,o),
(144,30,q),
(213,30,l),
(207,19,l),
(192,-9,o),
(178,-24,q),
(164,-39,o),
(143,-45,q),
(35,-45,l),
(35,-150,l),
(193,-150,l),
(225,-143,o),
(245,-128,q),
(265,-113,o),
(283,-82,q),
(350,27,l),
(394,99,o),
(413.5,156,q),
(433,213,o),
(433,288,q),
(433,511,l),
(300,511,l),
(300,280,l),
(300,192,o),
(267,135,q),
(208,135,l),
(173,193,o),
(173,280,q),
(173,511,l),
(40,511,l),
(40,281,l)
);
},
{
closed = 1;
nodes = (
(314,627,l),
(274,546,l),
(96,624,l),
(143,727,l)
);
}
);
width = 473;
}
);
unicode = 7923;
},
{
glyphname = zcaron;
kernLeft = z.2;
kernRight = z;
layers = (
{
layerId = "606d6ca3-1ac2-46e0-8c1a-6890279d6924";
name = Fore;
shapes = (
{
closed = 1;
nodes = (
(378,434,l),
(378,511,l),
(36,511,l),
(36,406,l),
(220,406,l),
(24,77,l),
(24,0,l),
(376,0,l),
(376,105,l),
(185,105,l)
);
},
{
closed = 1;
nodes = (
(148,549,l),
(68,685,l),
(131,718,l),
(207,641,l),
(283,718,l),
(347,685,l),
(266,549,l)
);
}
);
width = 402;
}
);
unicode = 382;
},
{
glyphname = dotlessi;
layers = (
{
layerId = "606d6ca3-1ac2-46e0-8c1a-6890279d6924";
name = Fore;
shapes = (
{
closed = 1;
nodes = (
(43,511,l),
(175,511,l),
(175,0,l),
(43,0,l)
);
}
);
width = 218;
}
);
unicode = 305;
},
{
glyphname = iacute;
layers = (
{
layerId = "606d6ca3-1ac2-46e0-8c1a-6890279d6924";
name = Fore;
shapes = (
{
closed = 1;
nodes = (
(43,0,l),
(175,0,l),
(175,511,l),
(43,511,l)
);
},
{
closed = 1;
nodes = (
(179,727,l),
(226,624,l),
(48,546,l),
(8,627,l)
);
}
);
width = 218;
}
);
unicode = 237;
},
{
glyphname = idieresis;
layers = (
{
layerId = "606d6ca3-1ac2-46e0-8c1a-6890279d6924";
name = Fore;
shapes = (
{
closed = 1;
nodes = (
(43,0,l),
(175,0,l),
(175,511,l),
(43,511,l)
);
},
{
closed = 1;
nodes = (
(-51,700,l),
(81,700,l),
(81,565,l),
(-51,565,l)
);
},
{
closed = 1;
nodes = (
(122,700,l),
(254,700,l),
(254,565,l),
(122,565,l)
);
}
);
width = 218;
}
);
unicode = 239;
},
{
glyphname = imacron;
layers = (
{
layerId = "606d6ca3-1ac2-46e0-8c1a-6890279d6924";
name = Fore;
shapes = (
{
closed = 1;
nodes = (
(43,0,l),
(175,0,l),
(175,511,l),
(43,511,l)
);
},
{
closed = 1;
nodes = (
(-25,669,l),
(227,669,l),
(227,569,l),
(-25,569,l)
);
}
);
width = 218;
}
);
unicode = 299;
},
{
glyphname = dotlessj;
kernLeft = j;
layers = (
{
layerId = "606d6ca3-1ac2-46e0-8c1a-6890279d6924";
name = Fore;
shapes = (
{
closed = 1;
nodes = (
(174,511,l),
(174,51,l),
(174,-25,o),
(156,-70,q),
(138,-115,o),
(81,-150,q),
(-51,-150,l),
(-51,-45,l),
(18,-45,l),
(43,-30,o),
(43,3,q),
(43,511,l)
);
}
);
width = 217;
}
);
unicode = 567;
},
{
glyphname = jcircumflex;
kernLeft = j;
layers = (
{
layerId = "606d6ca3-1ac2-46e0-8c1a-6890279d6924";
name = Fore;
shapes = (
{
closed = 1;
nodes = (
(174,511,l),
(174,51,l),
(174,-25,o),
(156,-70,q),
(138,-115,o),
(81,-150,q),
(-51,-150,l),
(-51,-45,l),
(18,-45,l),
(43,-30,o),
(43,3,q),
(43,511,l)
);
},
{
closed = 1;
nodes = (
(157,718,l),
(238,582,l),
(174,549,l),
(98,626,l),
(22,549,l),
(-41,582,l),
(39,718,l)
);
}
);
width = 217;
}
);
unicode = 309;
},
{
glyphname = longs;
layers = (
{
layerId = "606d6ca3-1ac2-46e0-8c1a-6890279d6924";
name = Fore;
shapes = (
{
closed = 1;
nodes = (
(321,700,l),
(321,595,l),
(231,595,l),
(197,574,o),
(197,511,q),
(197,0,l),
(64,0,l),
(64,406,l),
(9,406,l),
(9,511,l),
(64,511,l),
(64,641,o),
(177,700,q)
);
}
);
width = 310;
}
);
unicode = 383;
},
{
glyphname = oslash;
kernLeft = c.2;
kernRight = b;
layers = (
{
layerId = "606d6ca3-1ac2-46e0-8c1a-6890279d6924";
name = Fore;
shapes = (
{
closed = 1;
nodes = (
(292,583,l),
(415,583,l),
(381,482,l),
(418,431,o),
(432.5,379.5,q),
(447,328,o),
(447,254,q),
(447,93,o),
(347,0,q),
(212,0,l),
(187,-77,l),
(64,-77,l),
(100,31,l),
(29,120,o),
(29,254,q),
(29,335,o),
(51.5,395,q),
(74,455,o),
(123,511,q),
(267,511,l)
);
},
{
closed = 1;
nodes = (
(276,105,l),
(312,175,o),
(312,264,q),
(312,353,o),
(275,406,q),
(200,406,l),
(164,355,o),
(164,261.5,q),
(164,168,o),
(200,105,q)
);
}
);
width = 476;
}
);
unicode = 248;
},
{
glyphname = IJ;
kernRight = J;
layers = (
{
layerId = "606d6ca3-1ac2-46e0-8c1a-6890279d6924";
name = Fore;
shapes = (
{
closed = 1;
nodes = (
(48,700,l),
(185,700,l),
(185,0,l),
(48,0,l)
);
},
{
closed = 1;
nodes = (
(346,116,l),
(364,139,o),
(369,169.5,q),
(374,200,o),
(374,293,q),
(374,700,l),
(511,700,l),
(511,340,l),
(511,273,o),
(508.5,236,q),
(506,199,o),
(496,151.5,q),
(477.2822,62.5905,o),
(401,0,q),
(243,0,l),
(243,116,l)
);
}
);
width = 553;
}
);
unicode = 306;
},
{
glyphname = ij;
layers = (
{
layerId = "606d6ca3-1ac2-46e0-8c1a-6890279d6924";
name = Fore;
shapes = (
{
closed = 1;
nodes = (
(43,511,l),
(175,511,l),
(175,0,l),
(43,0,l)
);
},
{
closed = 1;
nodes = (
(175,700,l),
(175,565,l),
(43,565,l),
(43,700,l)
);
},
{
closed = 1;
nodes = (
(402,511,l),
(402,51,l),
(402,-25,o),
(384,-70,q),
(366,-115,o),
(309,-150,q),
(177,-150,l),
(177,-45,l),
(246,-45,l),
(271,-30,o),
(271,3,q),
(271,511,l)
);
},
{
closed = 1;
nodes = (
(402,700,l),
(402,555,l),
(271,555,l),
(271,700,l)
);
}
);
width = 437;
}
);
unicode = 307;
},
{
glyphname = kgreenlandic;
kernLeft = m;
kernRight = k;
layers = (
{
layerId = "606d6ca3-1ac2-46e0-8c1a-6890279d6924";
name = Fore;
shapes = (
{
closed = 1;
nodes = (
(35,511,l),
(168,511,l),
(168,329,l),
(180,329,l),
(266,511,l),
(399,511,l),
(291,288,l),
(400,0,l),
(267,0,l),
(183,221,l),
(168,221,l),
(168,0,l),
(35,0,l)
);
}
);
width = 400;
}
);
unicode = 312;
},
{
glyphname = Dcroat;
kernRight = D;
layers = (
{
layerId = "606d6ca3-1ac2-46e0-8c1a-6890279d6924";
name = Fore;
shapes = (
{
closed = 1;
nodes = (
(13,405,l),
(60,405,l),
(60,700,l),
(350,700,l),
(492,574,o),
(492,358.5,q),
(492,143,o),
(359,0,q),
(60,0,l),
(60,299,l),
(13,299,l)
);
},
{
closed = 1;
nodes = (
(286,116,l),
(314,151,o),
(330.5,218,q),
(347,285,o),
(347,351,q),
(347,508,o),
(288,580,q),
(196,580,l),
(196,405,l),
(283,405,l),
(283,299,l),
(196,299,l),
(196,116,l)
);
}
);
width = 522;
}
);
unicode = 272;
},
{
glyphname = dcroat;
kernLeft = c.2;
layers = (
{
layerId = "606d6ca3-1ac2-46e0-8c1a-6890279d6924";
name = Fore;
shapes = (
{
closed = 1;
nodes = (
(175,649,l),
(297,649,l),
(297,700,l),
(430,700,l),
(430,649,l),
(471,649,l),
(471,556,l),
(430,556,l),
(430,0,l),
(329,0,l),
(311,36,l),
(289,16,o),
(269.5,8,q),
(250,0,o),
(211,0,q),
(124,0,l),
(80,42,o),
(54.5,110,q),
(29,178,o),
(29,262.5,q),
(29,347,o),
(54.5,406,q),
(80,465,o),
(127,511,q),
(213,511,l),
(266,511,o),
(297,483,q),
(297,556,l),
(175,556,l)
);
},
{
closed = 1;
nodes = (
(201,406,l),
(164,343,o),
(164,251.5,q),
(164,160,o),
(200,105,q),
(297,105,l),
(297,406,l)
);
}
);
width = 473;
}
);
unicode = 273;
},
{
glyphname = hbar;
kernRight = a;
layers = (
{
layerId = "606d6ca3-1ac2-46e0-8c1a-6890279d6924";
name = Fore;
shapes = (
{
closed = 1;
nodes = (
(-10,649,l),
(43,649,l),
(43,700,l),
(176,700,l),
(176,649,l),
(286,649,l),
(286,556,l),
(176,556,l),
(176,475,l),
(198,495,o),
(217.5,503,q),
(237,511,o),
(276,511,q),
(371,511,l),
(415,455,o),
(431,399,q),
(447,343,o),
(447,259,q),
(447,0,l),
(314,0,l),
(314,269,l),
(314,364,o),
(288,406,q),
(176,406,l),
(176,0,l),
(43,0,l),
(43,556,l),
(-10,556,l)
);
}
);
width = 486;
}
);
unicode = 295;
},
{
glyphname = Hbar;
layers = (
{
layerId = "606d6ca3-1ac2-46e0-8c1a-6890279d6924";
name = Fore;
shapes = (
{
closed = 1;
nodes = (
(55,0,l),
(55,501,l),
(13,501,l),
(13,615,l),
(55,615,l),
(55,700,l),
(192,700,l),
(192,615,l),
(352,615,l),
(352,700,l),
(489,700,l),
(489,615,l),
(531,615,l),
(531,501,l),
(489,501,l),
(489,0,l),
(352,0,l),
(352,290,l),
(192,290,l),
(192,0,l)
);
},
{
closed = 1;
nodes = (
(352,418,l),
(352,501,l),
(192,501,l),
(192,418,l)
);
}
);
width = 544;
}
);
unicode = 294;
},
{
glyphname = Tbar;
kernLeft = T.2;
kernRight = T;
layers = (
{
layerId = "606d6ca3-1ac2-46e0-8c1a-6890279d6924";
name = Fore;
shapes = (
{
closed = 1;
nodes = (
(10,580,l),
(10,700,l),
(448,700,l),
(448,580,l),
(297,580,l),
(297,363,l),
(407,363,l),
(407,249,l),
(297,249,l),
(297,0,l),
(161,0,l),
(161,249,l),
(53,249,l),
(53,363,l),
(161,363,l),
(161,580,l)
);
}
);
width = 458;
}
);
unicode = 358;
},
{
glyphname = tbar;
kernLeft = t.2;
kernRight = t;
layers = (
{
layerId = "606d6ca3-1ac2-46e0-8c1a-6890279d6924";
name = Fore;
shapes = (
{
closed = 1;
nodes = (
(0,311,l),
(73,311,l),
(73,406,l),
(4,406,l),
(4,511,l),
(73,511,l),
(73,650,l),
(206,650,l),
(206,511,l),
(288,511,l),
(288,406,l),
(206,406,l),
(206,311,l),
(284,311,l),
(284,206,l),
(206,206,l),
(206,191,l),
(206,130,o),
(227,105,q),
(288,105,l),
(288,0,l),
(146,0,l),
(100,41,o),
(86.5,88,q),
(73,135,o),
(73,206,q),
(0,206,l)
);
}
);
width = 312;
}
);
unicode = 359;
},
{
glyphname = Eng;
layers = (
{
layerId = "606d6ca3-1ac2-46e0-8c1a-6890279d6924";
name = Fore;
shapes = (
{
closed = 1;
nodes = (
(323,-20,o),
(323,13,q),
(323,77,l),
(453,51,l),
(453,-23,o),
(432.5,-69,q),
(412,-115,o),
(354,-150,q),
(241,-150,l),
(241,-35,l),
(298,-35,l)
);
},
{
closed = 1;
nodes = (
(173,387,l),
(168,385,l),
(174,267,l),
(174,0,l),
(48,0,l),
(48,700,l),
(149,700,l),
(333,298,l),
(338,300,l),
(327,423,l),
(327,700,l),
(453,700,l),
(453,51,l),
(360,0,l)
);
}
);
width = 501;
}
);
unicode = 330;
},
{
glyphname = eng;
kernLeft = m;
kernRight = a;
layers = (
{
layerId = "606d6ca3-1ac2-46e0-8c1a-6890279d6924";
name = Fore;
shapes = (
{
closed = 1;
nodes = (
(371,511,l),
(415,455,o),
(431,399,q),
(447,343,o),
(447,259,q),
(447,51,l),
(447,-23,o),
(426.5,-69,q),
(406,-115,o),
(348,-150,q),
(200,-150,l),
(200,-45,l),
(289,-45,l),
(314,-30,o),
(314,3,q),
(314,269,l),
(314,364,o),
(288,406,q),
(176,406,l),
(176,0,l),
(43,0,l),
(43,355,l),
(43,442,o),
(39,511,q),
(147,511,l),
(165,475,l),
(187,495,o),
(206.5,503,q),
(226,511,o),
(265,511,q)
);
}
);
width = 486;
}
);
unicode = 331;
},
{
glyphname = Lslash;
kernRight = L;
layers = (
{
layerId = "606d6ca3-1ac2-46e0-8c1a-6890279d6924";
name = Fore;
shapes = (
{
closed = 1;
nodes = (
(-18,384,l),
(48,402,l),
(48,700,l),
(185,700,l),
(185,441,l),
(348,487,l),
(348,375,l),
(185,329,l),
(185,116,l),
(393,116,l),
(393,0,l),
(48,0,l),
(48,290,l),
(-18,272,l)
);
}
);
width = 413;
}
);
unicode = 321;
},
{
glyphname = lslash;
layers = (
{
layerId = "606d6ca3-1ac2-46e0-8c1a-6890279d6924";
name = Fore;
shapes = (
{
closed = 1;
nodes = (
(191,447,l),
(252,466,l),
(252,355,l),
(191,336,l),
(191,0,l),
(59,0,l),
(59,297,l),
(-4,278,l),
(-4,389,l),
(59,408,l),
(59,700,l),
(191,700,l)
);
}
);
width = 250;
}
);
unicode = 322;
},
{
glyphname = eth;
kernLeft = c.2;
layers = (
{
layerId = "606d6ca3-1ac2-46e0-8c1a-6890279d6924";
name = Fore;
shapes = (
{
closed = 1;
nodes = (
(156,643,l),
(229,643,l),
(225,649,o),
(214.5,669,q),
(204,689,o),
(198,700,q),
(324,700,l),
(353,643,l),
(449,643,l),
(449,555,l),
(393,555,l),
(445,427,o),
(445,304,q),
(445,181,o),
(419,115.5,q),
(393,50,o),
(347,0,q),
(124,0,l),
(80,42,o),
(54.5,110,q),
(29,178,o),
(29,262.5,q),
(29,347,o),
(54.5,406,q),
(80,465,o),
(127,511,q),
(213,511,l),
(261,511,o),
(297,481,q),
(285,518,o),
(269,555,q),
(156,555,l)
);
},
{
closed = 1;
nodes = (
(201,406,l),
(164,343,o),
(164,251.5,q),
(164,160,o),
(200,105,q),
(279,105,l),
(312,180,o),
(312,297,q),
(312,360,o),
(304,406,q)
);
}
);
width = 472;
}
);
unicode = 240;
},
{
glyphname = Oslashacute;
kernLeft = C.2;
kernRight = D;
layers = (
{
layerId = "606d6ca3-1ac2-46e0-8c1a-6890279d6924";
name = Fore;
shapes = (
{
closed = 1;
nodes = (
(129,41,l),
(30,164,o),
(30,340,q),
(30,451,o),
(64,547,q),
(98,643,o),
(168,700,q),
(312,700,l),
(329,750,l),
(452,750,l),
(420,653,l),
(512,535,o),
(512,340,q),
(512,248,o),
(479,157,q),
(446,66,o),
(374,0,q),
(238,0,l),
(222,-50,l),
(99,-50,l)
);
},
{
closed = 1;
nodes = (
(307,116,l),
(332,145,o),
(349.5,210.5,q),
(367,276,o),
(367,349,q),
(367,422,o),
(350,486.5,q),
(333,551,o),
(308,580,q),
(235,580,l),
(210,551,o),
(192.5,486.5,q),
(175,422,o),
(175,349,q),
(175,276,o),
(192.5,210.5,q),
(210,145,o),
(235,116,q)
);
},
{
closed = 1;
nodes = (
(361,899,l),
(399,788,l),
(210,730,l),
(178,817,l)
);
}
);
width = 542;
}
);
unicode = 510;
},
{
glyphname = oslashacute;
kernLeft = c.2;
kernRight = b;
layers = (
{
layerId = "606d6ca3-1ac2-46e0-8c1a-6890279d6924";
name = Fore;
shapes = (
{
closed = 1;
nodes = (
(311,752,l),
(381,662,l),
(225,546,l),
(168,616,l)
);
},
{
closed = 1;
nodes = (
(267,511,l),
(123,511,l),
(74,455,o),
(51.5,395,q),
(29,335,o),
(29,254,q),
(29,120,o),
(100,31,q),
(64,-77,l),
(187,-77,l),
(212,0,l),
(347,0,l),
(447,93,o),
(447,254,q),
(447,328,o),
(432.5,379.5,q),
(418,431,o),
(381,482,q),
(415,583,l),
(292,583,l)
);
},
{
closed = 1;
nodes = (
(200,105,l),
(164,168,o),
(164,261.5,q),
(164,355,o),
(200,406,q),
(275,406,l),
(312,353,o),
(312,264,q),
(312,175,o),
(276,105,q)
);
}
);
width = 476;
}
);
unicode = 511;
},
{
glyphname = idotaccent;
layers = (
{
layerId = "606d6ca3-1ac2-46e0-8c1a-6890279d6924";
name = Fore;
shapes = (
{
closed = 1;
nodes = (
(43,511,l),
(175,511,l),
(175,0,l),
(43,0,l)
);
},
{
closed = 1;
nodes = (
(175,700,l),
(175,565,l),
(43,565,l),
(43,700,l)
);
}
);
width = 218;
}
);
},
{
glyphname = t_t;
kernLeft = t.2;
kernRight = t;
layers = (
{
layerId = "606d6ca3-1ac2-46e0-8c1a-6890279d6924";
name = Fore;
shapes = (
{
closed = 1;
nodes = (
(326,406,l),
(206,406,l),
(206,191,l),
(206,130,o),
(227,105,q),
(288,105,l),
(288,0,l),
(146,0,l),
(92.6395,49.2558,o),
(82,106,q),
(73,154,o),
(73,223,q),
(73,406,l),
(4,406,l),
(4,511,l),
(73,511,l),
(73,650,l),
(206,650,l),
(206,511,l),
(326,511,l),
(326,650,l),
(459,650,l),
(459,511,l),
(541,511,l),
(541,406,l),
(459,406,l),
(459,191,l),
(459,130,o),
(480,105,q),
(541,105,l),
(541,0,l),
(399,0,l),
(345.6395,49.2558,o),
(335,106,q),
(326,154,o),
(326,223,q)
);
}
);
width = 565;
}
);
},
{
glyphname = Aringacute;
kernLeft = A.2;
kernRight = A;
layers = (
{
layerId = "606d6ca3-1ac2-46e0-8c1a-6890279d6924";
name = Fore;
shapes = (
{
closed = 1;
nodes = (
(292,892,l),
(372,853,o),
(372,767,q),
(372,729,o),
(352,698,q),
(480,0,l),
(346,0,l),
(325,111,l),
(167,111,l),
(146,0,l),
(10,0,l),
(144,694,l),
(122,726,o),
(122,767,q),
(122,853,o),
(202,892,q)
);
},
{
closed = 1;
nodes = (
(205,337,l),
(183,218,l),
(308,218,l),
(285,337,l),
(246,570,l),
(244,570,l)
);
},
{
closed = 1;
nodes = (
(336,1079,l),
(374,968,l),
(185,910,l),
(153,997,l)
);
},
{
closed = 1;
nodes = (
(265,719,l),
(286,740,o),
(286,769,q),
(286,798,o),
(265,817,q),
(228,817,l),
(208,797,o),
(208,768,q),
(208,739,o),
(228,719,q)
);
}
);
width = 490;
}
);
unicode = 506;
},
{
glyphname = aeacute;
kernLeft = a.2;
layers = (
{
layerId = "606d6ca3-1ac2-46e0-8c1a-6890279d6924";
name = Fore;
shapes = (
{
closed = 1;
nodes = (
(664,0,l),
(410,0,l),
(390,13,o),
(364,39,q),
(320,0,o),
(257,0,q),
(114,0,l),
(29,56,o),
(29,161.5,q),
(29,267,o),
(116,328,q),
(210,328,l),
(249,328,o),
(283,304,q),
(283,354,l),
(283,393,o),
(249,406,q),
(69,406,l),
(69,511,l),
(308,511,l),
(341,497,o),
(362,467,q),
(378,485,o),
(412,511,q),
(569,511,l),
(636,462,o),
(660,407,q),
(684,352,o),
(684,296,q),
(684,240,o),
(675,200,q),
(426,200,l),
(429,177,o),
(443.5,147,q),
(458,117,o),
(475,104,q),
(664,104,l)
);
},
{
closed = 1;
nodes = (
(177,231,l),
(156,205,o),
(156,166,q),
(156,127,o),
(178,105,q),
(317,105,l),
(287,164,o),
(284,231,q)
);
},
{
closed = 1;
nodes = (
(453,406,l),
(438,388,o),
(428.5,356,q),
(419,324,o),
(419,294,q),
(562,294,l),
(562,321,o),
(552.5,355.5,q),
(543,390,o),
(528,406,q)
);
},
{
closed = 1;
nodes = (
(463,727,l),
(510,624,l),
(332,546,l),
(292,627,l)
);
}
);
width = 708;
}
);
unicode = 509;
},
{
glyphname = aringacute;
kernLeft = a.2;
kernRight = a;
layers = (
{
layerId = "606d6ca3-1ac2-46e0-8c1a-6890279d6924";
name = Fore;
shapes = (
{
closed = 1;
nodes = (
(177,231,l),
(156,205,o),
(156,166,q),
(156,127,o),
(178,105,q),
(284,105,l),
(284,231,l)
);
},
{
closed = 1;
nodes = (
(317,511,l),
(377,475,o),
(396,428.5,q),
(415,382,o),
(415,302,q),
(415,152,l),
(415,69,o),
(419,0,q),
(305,0,l),
(287,36,l),
(248,0,o),
(177,0,q),
(114,0,l),
(29,56,o),
(29,161.5,q),
(29,267,o),
(116,328,q),
(210,328,l),
(249,328,o),
(283,304,q),
(283,354,l),
(283,393,o),
(249,406,q),
(69,406,l),
(69,511,l)
);
},
{
closed = 1;
nodes = (
(266,784,l),
(346,745,o),
(346,659,q),
(346,621,o),
(325,588.5,q),
(304,556,o),
(266,538,q),
(176,538,l),
(138,556,o),
(117,588.5,q),
(96,621,o),
(96,659,q),
(96,745,o),
(176,784,q)
);
},
{
closed = 1;
nodes = (
(239,611,l),
(260,632,o),
(260,661,q),
(260,690,o),
(239,709,q),
(202,709,l),
(182,689,o),
(182,660,q),
(182,631,o),
(202,611,q)
);
},
{
closed = 1;
nodes = (
(289,982,l),
(336,879,l),
(158,801,l),
(118,882,l)
);
}
